<?xml version="1.0" standalone="no"?>
<!DOCTYPE svg PUBLIC "-//W3C//DTD SVG 1.1//EN" "http://www.w3.org/Graphics/SVG/1.1/DTD/svg11.dtd" >
<svg xmlns="http://www.w3.org/2000/svg" xmlns:xlink="http://www.w3.org/1999/xlink" version="1.1">
<metadata>
Created by FontForge 20150824 at Tue Feb 23 07:21:43 2016
 By Everything Fonts
Created by Robert E. Leuschke, Gideon Inc. Cyrillic version created by Andrey V. Markelov, Love Media Ltd.
</metadata>
<defs>
<font id="GoodVibesCyr" horiz-adv-x="335" >
  <font-face 
    font-family="GoodVibesCyr"
    font-weight="400"
    font-stretch="normal"
    units-per-em="1000"
    panose-1="2 0 5 7 8 0 0 2 0 2"
    ascent="800"
    descent="-200"
    x-height="344"
    cap-height="738"
    bbox="-401.167 -550.897 1972.66 1253.06"
    underline-thickness="14"
    underline-position="-106"
    unicode-range="U+0020-FB04"
  />
<missing-glyph horiz-adv-x="1000" 
 />
    <glyph glyph-name="fl" unicode="fl" horiz-adv-x="410" 
d="M363 621q-24 -22 -58.5 -73.5t-74 -121.5t-81.5 -153t-79 -167q10 -12 18.5 -30.5t13.5 -44.5q1 -3 1.5 -6.5t1.5 -6.5q22 -2 44 16t41.5 45t36 58.5t28.5 57.5q5 10 12.5 7t2.5 -14q-14 -32 -31 -65t-37.5 -61t-44 -45.5t-50.5 -17.5q4 -53 -7 -114t-34 -113.5t-57 -87
t-74 -32.5q-21 1 -36 11.5t-16 40.5q-1 24 7 58.5t22 76.5t33 90t41 100q-8 12 -10.5 25.5t-1 26t6.5 22.5t12 15q17 14 36 11q27 61 54.5 120.5t54 115t51 104t45.5 87.5q17 32 35 51t50 19q9 0 21 -3.5t23 -1.5zM84 14q-2 25 -9 45q-6 13 -15 24q-6 -14 -11 -25t-11 -25
q5 -8 15.5 -13.5t24.5 -5.5h6zM86 -5q-15 -2 -31.5 3t-26.5 13q-26 -66 -48.5 -131.5t-34.5 -115.5q-10 -44 -8 -63.5t12 -22t24.5 9t29.5 31.5q18 24 33.5 57.5t27 71t17.5 76t5 71.5zM515 493q-35 -78 -83 -155.5t-122 -144.5q-4 -13 -10 -30t-11 -36q-11 -45 -4 -71
t24.5 -33.5t40 3t42.5 38.5q12 18 23.5 36t21 35t17 31.5t12.5 24.5q7 13 14.5 11.5t0.5 -16.5q-9 -20 -24 -52t-36.5 -62t-50.5 -52t-67 -22q-28 0 -43.5 10.5t-22 27.5t-6 38t4.5 43t10 42.5t10 35.5q12 42 29 89t37 93.5t42 90.5t44 80q27 45 57 64.5t50 13t23.5 -39.5
t-23.5 -93zM500 508q7 17 12 37t3.5 31.5t-10.5 8.5t-29 -32q-18 -26 -41 -69t-45 -90.5t-41 -93t-31 -75.5q27 27 53 61.5t50 72t44 76t35 73.5z" />
    <glyph glyph-name="ffi" unicode="ffi" horiz-adv-x="570" 
d="M363 621q-24 -22 -58.5 -73.5t-74 -121.5t-81.5 -153t-79 -167q10 -12 18.5 -30.5t13.5 -44.5q1 -3 1.5 -6.5t1.5 -6.5q22 -2 44 16t41.5 45t36 58.5t28.5 57.5q5 10 12.5 7t2.5 -14q-14 -32 -31 -65t-37.5 -61t-44 -45.5t-50.5 -17.5q4 -53 -7 -114t-34 -113.5t-57 -87
t-74 -32.5q-21 1 -36 11.5t-16 40.5q-1 24 7 58.5t22 76.5t33 90t41 100q-8 12 -10.5 25.5t-1 26t6.5 22.5t12 15q17 14 36 11q27 61 54.5 120.5t54 115t51 104t45.5 87.5q17 32 35 51t50 19q9 0 21 -3.5t23 -1.5zM84 14q-2 25 -9 45q-6 13 -15 24q-6 -14 -11 -25t-11 -25
q5 -8 15.5 -13.5t24.5 -5.5h6zM86 -5q-15 -2 -31.5 3t-26.5 13q-26 -66 -48.5 -131.5t-34.5 -115.5q-10 -44 -8 -63.5t12 -22t24.5 9t29.5 31.5q18 24 33.5 57.5t27 71t17.5 76t5 71.5zM561 621q-24 -22 -58.5 -73.5t-74 -121.5t-81.5 -153t-79 -167q10 -12 18.5 -30.5
t13.5 -44.5q1 -3 1.5 -6.5t1.5 -6.5q22 -2 44 16t41.5 45t36 58.5t28.5 57.5q5 10 12.5 7t2.5 -14q-14 -32 -31 -65t-37.5 -61t-44 -45.5t-50.5 -17.5q4 -53 -7 -114t-34 -113.5t-57 -87t-74 -32.5q-21 1 -36 11.5t-16 40.5q-1 24 7 58.5t22 76.5t33 90t41 100
q-8 12 -10.5 25.5t-1 26t6.5 22.5t12 15q17 14 36 11q27 61 54.5 120.5t54 115t51 104t45.5 87.5q17 32 35 51t50 19q9 0 21 -3.5t23 -1.5zM282 14q-2 25 -9 45q-6 13 -15 24q-6 -14 -11 -25t-11 -25q5 -8 15.5 -13.5t24.5 -5.5h6zM284 -5q-15 -2 -31.5 3t-26.5 13
q-26 -66 -48.5 -131.5t-34.5 -115.5q-10 -44 -8 -63.5t12 -22t24.5 9t29.5 31.5q18 24 33.5 57.5t27 71t17.5 76t5 71.5zM607 418q-3 -17 -17 -29t-31 -12t-27 12t-8 29q3 17 17 29t31 12t27.5 -12t7.5 -29zM466 85q-7 -25 -3.5 -43t24.5 -20q11 -2 24 4.5t21 14.5
q25 25 49 67t45 84q6 14 13 10t0 -19q-10 -21 -25 -52t-35.5 -60.5t-44.5 -50t-52 -20.5t-43 13t-20 32.5t-2 42t11 42.5l64 163q6 14 -0.5 26t-9.5 16l55 1q24 0 26.5 -8.5t-5.5 -26.5l-80 -187q-2 -7 -5 -12l-4 -10t-3 -7z" />
    <glyph glyph-name="ffl" unicode="ffl" horiz-adv-x="608" 
d="M363 621q-24 -22 -58.5 -73.5t-74 -121.5t-81.5 -153t-79 -167q10 -12 18.5 -30.5t13.5 -44.5q1 -3 1.5 -6.5t1.5 -6.5q22 -2 44 16t41.5 45t36 58.5t28.5 57.5q5 10 12.5 7t2.5 -14q-14 -32 -31 -65t-37.5 -61t-44 -45.5t-50.5 -17.5q4 -53 -7 -114t-34 -113.5t-57 -87
t-74 -32.5q-21 1 -36 11.5t-16 40.5q-1 24 7 58.5t22 76.5t33 90t41 100q-8 12 -10.5 25.5t-1 26t6.5 22.5t12 15q17 14 36 11q27 61 54.5 120.5t54 115t51 104t45.5 87.5q17 32 35 51t50 19q9 0 21 -3.5t23 -1.5zM84 14q-2 25 -9 45q-6 13 -15 24q-6 -14 -11 -25t-11 -25
q5 -8 15.5 -13.5t24.5 -5.5h6zM86 -5q-15 -2 -31.5 3t-26.5 13q-26 -66 -48.5 -131.5t-34.5 -115.5q-10 -44 -8 -63.5t12 -22t24.5 9t29.5 31.5q18 24 33.5 57.5t27 71t17.5 76t5 71.5zM561 621q-24 -22 -58.5 -73.5t-74 -121.5t-81.5 -153t-79 -167q10 -12 18.5 -30.5
t13.5 -44.5q1 -3 1.5 -6.5t1.5 -6.5q22 -2 44 16t41.5 45t36 58.5t28.5 57.5q5 10 12.5 7t2.5 -14q-14 -32 -31 -65t-37.5 -61t-44 -45.5t-50.5 -17.5q4 -53 -7 -114t-34 -113.5t-57 -87t-74 -32.5q-21 1 -36 11.5t-16 40.5q-1 24 7 58.5t22 76.5t33 90t41 100
q-8 12 -10.5 25.5t-1 26t6.5 22.5t12 15q17 14 36 11q27 61 54.5 120.5t54 115t51 104t45.5 87.5q17 32 35 51t50 19q9 0 21 -3.5t23 -1.5zM282 14q-2 25 -9 45q-6 13 -15 24q-6 -14 -11 -25t-11 -25q5 -8 15.5 -13.5t24.5 -5.5h6zM284 -5q-15 -2 -31.5 3t-26.5 13
q-26 -66 -48.5 -131.5t-34.5 -115.5q-10 -44 -8 -63.5t12 -22t24.5 9t29.5 31.5q18 24 33.5 57.5t27 71t17.5 76t5 71.5zM713 493q-35 -78 -83 -155.5t-122 -144.5q-4 -13 -10 -30t-11 -36q-11 -45 -4 -71t24.5 -33.5t40 3t42.5 38.5q12 18 23.5 36t21 35t17 31.5t12.5 24.5
q7 13 14.5 11.5t0.5 -16.5q-9 -20 -24 -52t-36.5 -62t-50.5 -52t-67 -22q-28 0 -43.5 10.5t-22 27.5t-6 38t4.5 43t10 42.5t10 35.5q12 42 29 89t37 93.5t42 90.5t44 80q27 45 57 64.5t50 13t23.5 -39.5t-23.5 -93zM698 508q7 17 12 37t3.5 31.5t-10.5 8.5t-29 -32
q-18 -26 -41 -69t-45 -90.5t-41 -93t-31 -75.5q27 27 53 61.5t50 72t44 76t35 73.5z" />
    <glyph glyph-name="afii10065_afii10077" unicode="&#x430;&#x43b;" horiz-adv-x="749" 
d="M361 271q-8 -8 -21.5 -29.5t-28 -49t-26.5 -56.5t-17 -52q-12 -60 10 -60q11 0 23 9t23 22t21 27.5t16 25.5q8 13 15.5 9.5t-0.5 -17.5q-24 -41 -52 -70.5t-54 -31.5q-12 -1 -26 4.5t-23 20t-10.5 40t9.5 64.5q-12 -20 -31 -46.5t-41 -47.5q-29 -28 -53.5 -33t-41.5 7.5
t-24.5 39.5t-2.5 63.5t24.5 80t57.5 88.5q22 27 53.5 46t64 27t63 2t51.5 -29q11 -11 6.5 -21t-17.5 -8q-8 28 -32.5 34t-52.5 -9q-34 -19 -70 -58.5t-63 -84.5q-3 -5 -9 -16t-12.5 -25.5t-12 -30t-7.5 -29.5q-4 -26 3.5 -38t21 -12t31.5 11.5t36 32.5q26 32 47.5 67.5
t41.5 72.5q17 32 30.5 49t37.5 15q10 -1 20.5 -3.5t21.5 -0.5zM696 323q6 12 15.5 16.5t23.5 4.5h54q-11 -9 -19 -16.5t-15.5 -18t-15.5 -26t-19 -38.5q-11 -21 -21.5 -43.5t-20 -44t-16.5 -40t-9 -31.5q-7 -32 0.5 -45.5t18.5 -14.5q18 0 36.5 16t35.5 40.5t32.5 54
t28.5 56.5q6 13 13.5 9.5t0.5 -18.5q-12 -26 -28 -57.5t-36 -59.5t-44 -47t-51 -19q-17 0 -30 8.5t-19.5 25t-6.5 40.5t10 54q7 22 17 47t21.5 50.5t23 50.5t20.5 46zM481 45q20 17 36.5 41.5t31 52.5t27 57t23.5 54.5t21 45t21 29.5q8 8 16 12t19 5.5t25.5 1.5h36.5
q4 0 1 -2.5t-9 -5.5t-14.5 -5.5t-14.5 -2.5q-29 1 -41 -11.5t-25 -35.5q-16 -29 -34.5 -76t-42 -92.5t-53 -78.5t-68.5 -33q-24 0 -44.5 8.5t-33.5 32.5q-18 33 -10.5 53t21.5 25.5t24 -5t-3 -38.5q-4 -8 -2 -17t7.5 -16.5t14 -12t17.5 -4.5q17 1 29.5 4.5t23.5 13.5z" />
    <glyph glyph-name="afii10065_afii10078" unicode="&#x430;&#x43c;" horiz-adv-x="942" 
d="M361 271q-8 -8 -21.5 -29.5t-28 -49t-26.5 -56.5t-17 -52q-12 -60 10 -60q11 0 23 9t23 22t21 27.5t16 25.5q8 13 15.5 9.5t-0.5 -17.5q-24 -41 -52 -70.5t-54 -31.5q-12 -1 -26 4.5t-23 20t-10.5 40t9.5 64.5q-12 -20 -31 -46.5t-41 -47.5q-29 -28 -53.5 -33t-41.5 7.5
t-24.5 39.5t-2.5 63.5t24.5 80t57.5 88.5q22 27 53.5 46t64 27t63 2t51.5 -29q11 -11 6.5 -21t-17.5 -8q-8 28 -32.5 34t-52.5 -9q-34 -19 -70 -58.5t-63 -84.5q-3 -5 -9 -16t-12.5 -25.5t-12 -30t-7.5 -29.5q-4 -26 3.5 -38t21 -12t31.5 11.5t36 32.5q26 32 47.5 67.5
t41.5 72.5q17 32 30.5 49t37.5 15q10 -1 20.5 -3.5t21.5 -0.5zM642 1q-17 1 -30 9.5t-19.5 25t-6.5 40t10 53.5q7 22 17 47t21.5 50.5t23 50.5t20.5 46q6 12 15.5 16.5t23.5 4.5h54q-11 -9 -19 -16.5t-15.5 -18t-15.5 -26t-19 -38.5q-11 -21 -21.5 -43.5t-20 -44t-16.5 -40
t-9 -31.5q-7 -32 0.5 -45t18.5 -15q20 -3 39.5 15t37.5 47.5t34.5 66t31.5 71t28.5 61.5t25.5 38q8 8 16 12t19 5.5t25.5 1.5h36.5q4 0 1 -2.5t-9 -5.5t-14.5 -5.5t-14.5 -2.5q-29 1 -40.5 -11.5t-25.5 -35.5q-11 -19 -22.5 -47.5t-25 -60t-29.5 -63t-35 -56t-41.5 -39.5
t-49.5 -14zM481 45q20 17 36.5 41.5t31 52.5t27 57t23.5 54.5t21 45t21 29.5q8 8 16 12t19 5.5t25.5 1.5h36.5q4 0 1 -2.5t-9 -5.5t-14.5 -5.5t-14.5 -2.5q-29 1 -41 -11.5t-25 -35.5q-16 -29 -34.5 -76t-42 -92.5t-53 -78.5t-68.5 -33q-24 0 -44.5 8.5t-33.5 32.5
q-18 33 -10.5 53t21.5 25.5t24 -5t-3 -38.5q-4 -8 -2 -17t7.5 -16.5t14 -12t17.5 -4.5q17 1 29.5 4.5t23.5 13.5zM889 323q6 12 15.5 16.5t23.5 4.5h54q-11 -9 -19 -16.5t-15.5 -18t-15.5 -26t-19 -38.5q-11 -21 -21.5 -43.5t-20 -44t-16.5 -40t-9 -31.5q-7 -32 0.5 -45.5
t18.5 -14.5q18 0 36.5 16t35.5 40.5t32.5 54t28.5 56.5q6 13 13.5 9.5t0.5 -18.5q-12 -26 -28 -57.5t-36 -59.5t-44 -47t-51 -19q-17 0 -30 8.5t-19.5 25t-6.5 40.5t10 54q7 22 17 47t21.5 50.5t23 50.5t20.5 46z" />
    <glyph glyph-name="afii10065_afii10097" unicode="&#x430;&#x44f;" horiz-adv-x="717" 
d="M361 271q-8 -8 -21.5 -29.5t-28 -49t-26.5 -56.5t-17 -52q-12 -60 10 -60q11 0 23 9t23 22t21 27.5t16 25.5q8 13 15.5 9.5t-0.5 -17.5q-24 -41 -52 -70.5t-54 -31.5q-12 -1 -26 4.5t-23 20t-10.5 40t9.5 64.5q-12 -20 -31 -46.5t-41 -47.5q-29 -28 -53.5 -33t-41.5 7.5
t-24.5 39.5t-2.5 63.5t24.5 80t57.5 88.5q22 27 53.5 46t64 27t63 2t51.5 -29q11 -11 6.5 -21t-17.5 -8q-8 28 -32.5 34t-52.5 -9q-34 -19 -70 -58.5t-63 -84.5q-3 -5 -9 -16t-12.5 -25.5t-12 -30t-7.5 -29.5q-4 -26 3.5 -38t21 -12t31.5 11.5t36 32.5q26 32 47.5 67.5
t41.5 72.5q17 32 30.5 49t37.5 15q10 -1 20.5 -3.5t21.5 -0.5zM641 144q-7 -14 -14.5 -34.5t-10.5 -40t1.5 -33.5t22.5 -14q19 0 39.5 21t38.5 49t32.5 56.5t22.5 44.5q6 13 13.5 9.5t0.5 -18.5q-11 -23 -27.5 -55t-37.5 -61.5t-46 -50.5t-54 -21q-12 0 -23.5 6.5
t-21.5 20.5q-8 13 -10.5 39t6.5 49q12 25 21.5 44.5t19 37.5t20 37t23.5 43q10 18 16.5 30.5t13 20t14 10.5t19.5 2q10 -1 20.5 -3.5t21.5 -0.5q-11 -6 -26.5 -26t-32 -47t-33 -57.5t-29.5 -57.5zM503 229q4 18 12.5 36.5t20.5 34.5t27.5 28t33.5 17q27 8 47 4t30 -18
t9.5 -38t-15.5 -55q-22 -27 -36 -41q-12 -12 -18 -14t7 22t23 46t13 39t-3 27.5t-25 11.5q-14 1 -27.5 -5.5t-23.5 -20.5q-11 -15 -23.5 -35t-18.5 -37q-4 -10 -5 -24t4 -25.5t19.5 -18t42.5 -2.5q14 2 14 -5.5t-20 -9.5q-33 -4 -52 3.5t-28 20.5t-10 29t2 30zM581 148
q-16 -29 -32.5 -56.5t-35.5 -48.5t-40 -34t-45 -13q-58 0 -80 41q-13 24 -13.5 41.5t6 28t16.5 14t17.5 0t10 -14.5t-6.5 -29q-4 -9 -2 -18.5t7.5 -17.5t14 -13.5t19.5 -5.5q17 -1 29.5 3.5t23.5 14.5q23 20 44.5 49t39.5 61q2 2 14 0q5 -1 13 -2z" />
    <glyph glyph-name="afii10066_afii10077" unicode="&#x431;&#x43b;" horiz-adv-x="732" 
d="M265 315q-16 4 -35 -4.5t-38 -27t-37 -44t-32 -55.5q-15 -31 -23.5 -58.5t-10.5 -49.5t3 -36.5t19 -18.5t32 3t36 22q-8 12 -12 25t-4 24q1 17 8.5 30t26.5 13q13 0 21.5 -9t8.5 -21q0 -3 -0.5 -5.5t-1.5 -5.5q17 25 31 54q15 31 23 59t9 50t-5 36.5t-19 18.5zM181 754
q15 47 52 64t91 14q24 -1 44.5 -6.5t39 -12.5t38 -12.5t42.5 -6.5q31 -2 51 8.5t33 28.5q1 2 6.5 2.5t11.5 0t10.5 -2t3.5 -2.5q-11 -15 -25.5 -30.5t-33.5 -28t-42 -20t-50 -5.5q-24 1 -44 7.5t-39 13.5t-38.5 13t-43.5 7q-27 2 -44.5 -12.5t-26.5 -40.5q-7 -21 -8.5 -40
t2 -42t11.5 -52t22 -68q6 -17 28 -78.5t41 -171.5q2 -11 -2.5 -6t-11.5 15q-8 11 -18 29q-10 54 -27 105t-31 92q-8 23 -19.5 51.5t-20 59t-11 63t8.5 64.5zM190 32q-21 -16 -43 -25.5t-44 -8.5q-29 1 -45.5 17t-22 41.5t-0.5 58t19 65.5q15 34 37 65t47.5 54t52.5 36.5
t53 12.5q28 0 45 -16t22.5 -42t0.5 -58.5t-19 -65.5q-11 -26 -33 -58.5t-51 -59.5q13 -25 47 -25q29 0 52 26t46 62q5 7 13.5 4.5t2.5 -13.5q-8 -15 -20 -31.5t-26.5 -31t-32 -24t-37.5 -9.5q-23 -1 -38.5 7t-25.5 19zM679 323q6 12 15.5 16.5t23.5 4.5h54q-11 -9 -19 -16.5
t-15.5 -18t-15.5 -26t-19 -38.5q-11 -21 -21.5 -43.5t-20 -44t-16.5 -40t-9 -31.5q-7 -32 0.5 -45.5t18.5 -14.5q18 0 36.5 16t35.5 40.5t32.5 54t28.5 56.5q6 13 13.5 9.5t0.5 -18.5q-12 -26 -28 -57.5t-36 -59.5t-44 -47t-51 -19q-17 0 -30 8.5t-19.5 25t-6.5 40.5t10 54
q7 22 17 47t21.5 50.5t23 50.5t20.5 46zM464 45q20 17 36.5 41.5t31 52.5t27 57t23.5 54.5t21 45t21 29.5q8 8 16 12t19 5.5t25.5 1.5h36.5q4 0 1 -2.5t-9 -5.5t-14.5 -5.5t-14.5 -2.5q-29 1 -41 -11.5t-25 -35.5q-16 -29 -34.5 -76t-42 -92.5t-53 -78.5t-68.5 -33
q-24 0 -44.5 8.5t-33.5 32.5q-18 33 -10.5 53t21.5 25.5t24 -5t-3 -38.5q-4 -8 -2 -17t7.5 -16.5t14 -12t17.5 -4.5q17 1 29.5 4.5t23.5 13.5z" />
    <glyph glyph-name="afii10066_afii10078" unicode="&#x431;&#x43c;" horiz-adv-x="925" 
d="M265 315q-16 4 -35 -4.5t-38 -27t-37 -44t-32 -55.5q-15 -31 -23.5 -58.5t-10.5 -49.5t3 -36.5t19 -18.5t32 3t36 22q-8 12 -12 25t-4 24q1 17 8.5 30t26.5 13q13 0 21.5 -9t8.5 -21q0 -3 -0.5 -5.5t-1.5 -5.5q17 25 31 54q15 31 23 59t9 50t-5 36.5t-19 18.5zM181 754
q15 47 52 64t91 14q24 -1 44.5 -6.5t39 -12.5t38 -12.5t42.5 -6.5q31 -2 51 8.5t33 28.5q1 2 6.5 2.5t11.5 0t10.5 -2t3.5 -2.5q-11 -15 -25.5 -30.5t-33.5 -28t-42 -20t-50 -5.5q-24 1 -44 7.5t-39 13.5t-38.5 13t-43.5 7q-27 2 -44.5 -12.5t-26.5 -40.5q-7 -21 -8.5 -40
t2 -42t11.5 -52t22 -68q6 -17 28 -78.5t41 -171.5q2 -11 -2.5 -6t-11.5 15q-8 11 -18 29q-10 54 -27 105t-31 92q-8 23 -19.5 51.5t-20 59t-11 63t8.5 64.5zM190 32q-21 -16 -43 -25.5t-44 -8.5q-29 1 -45.5 17t-22 41.5t-0.5 58t19 65.5q15 34 37 65t47.5 54t52.5 36.5
t53 12.5q28 0 45 -16t22.5 -42t0.5 -58.5t-19 -65.5q-11 -26 -33 -58.5t-51 -59.5q13 -25 47 -25q29 0 52 26t46 62q5 7 13.5 4.5t2.5 -13.5q-8 -15 -20 -31.5t-26.5 -31t-32 -24t-37.5 -9.5q-23 -1 -38.5 7t-25.5 19zM625 1q-17 1 -30 9.5t-19.5 25t-6.5 40t10 53.5
q7 22 17 47t21.5 50.5t23 50.5t20.5 46q6 12 15.5 16.5t23.5 4.5h54q-11 -9 -19 -16.5t-15.5 -18t-15.5 -26t-19 -38.5q-11 -21 -21.5 -43.5t-20 -44t-16.5 -40t-9 -31.5q-7 -32 0.5 -45t18.5 -15q20 -3 39.5 15t37.5 47.5t34.5 66t31.5 71t28.5 61.5t25.5 38q8 8 16 12
t19 5.5t25.5 1.5h36.5q4 0 1 -2.5t-9 -5.5t-14.5 -5.5t-14.5 -2.5q-29 1 -40.5 -11.5t-25.5 -35.5q-11 -19 -22.5 -47.5t-25 -60t-29.5 -63t-35 -56t-41.5 -39.5t-49.5 -14zM464 45q20 17 36.5 41.5t31 52.5t27 57t23.5 54.5t21 45t21 29.5q8 8 16 12t19 5.5t25.5 1.5h36.5
q4 0 1 -2.5t-9 -5.5t-14.5 -5.5t-14.5 -2.5q-29 1 -41 -11.5t-25 -35.5q-16 -29 -34.5 -76t-42 -92.5t-53 -78.5t-68.5 -33q-24 0 -44.5 8.5t-33.5 32.5q-18 33 -10.5 53t21.5 25.5t24 -5t-3 -38.5q-4 -8 -2 -17t7.5 -16.5t14 -12t17.5 -4.5q17 1 29.5 4.5t23.5 13.5z
M872 323q6 12 15.5 16.5t23.5 4.5h54q-11 -9 -19 -16.5t-15.5 -18t-15.5 -26t-19 -38.5q-11 -21 -21.5 -43.5t-20 -44t-16.5 -40t-9 -31.5q-7 -32 0.5 -45.5t18.5 -14.5q18 0 36.5 16t35.5 40.5t32.5 54t28.5 56.5q6 13 13.5 9.5t0.5 -18.5q-12 -26 -28 -57.5t-36 -59.5
t-44 -47t-51 -19q-17 0 -30 8.5t-19.5 25t-6.5 40.5t10 54q7 22 17 47t21.5 50.5t23 50.5t20.5 46z" />
    <glyph glyph-name="afii10066_afii10097" unicode="&#x431;&#x44f;" horiz-adv-x="700" 
d="M265 315q-16 4 -35 -4.5t-38 -27t-37 -44t-32 -55.5q-15 -31 -23.5 -58.5t-10.5 -49.5t3 -36.5t19 -18.5t32 3t36 22q-8 12 -12 25t-4 24q1 17 8.5 30t26.5 13q13 0 21.5 -9t8.5 -21q0 -3 -0.5 -5.5t-1.5 -5.5q17 25 31 54q15 31 23 59t9 50t-5 36.5t-19 18.5zM181 754
q15 47 52 64t91 14q24 -1 44.5 -6.5t39 -12.5t38 -12.5t42.5 -6.5q31 -2 51 8.5t33 28.5q1 2 6.5 2.5t11.5 0t10.5 -2t3.5 -2.5q-11 -15 -25.5 -30.5t-33.5 -28t-42 -20t-50 -5.5q-24 1 -44 7.5t-39 13.5t-38.5 13t-43.5 7q-27 2 -44.5 -12.5t-26.5 -40.5q-7 -21 -8.5 -40
t2 -42t11.5 -52t22 -68q6 -17 28 -78.5t41 -171.5q2 -11 -2.5 -6t-11.5 15q-8 11 -18 29q-10 54 -27 105t-31 92q-8 23 -19.5 51.5t-20 59t-11 63t8.5 64.5zM190 32q-21 -16 -43 -25.5t-44 -8.5q-29 1 -45.5 17t-22 41.5t-0.5 58t19 65.5q15 34 37 65t47.5 54t52.5 36.5
t53 12.5q28 0 45 -16t22.5 -42t0.5 -58.5t-19 -65.5q-11 -26 -33 -58.5t-51 -59.5q13 -25 47 -25q28 0 51 25.5t43 56.5q5 7 12.5 1.5t0.5 -16.5q-6 -10 -16.5 -24.5t-24.5 -27.5t-31 -22.5t-37 -9.5q-23 -1 -38.5 7t-25.5 19zM624 144q-7 -14 -14.5 -34.5t-10.5 -40
t1.5 -33.5t22.5 -14q19 0 39.5 21t38.5 49t32.5 56.5t22.5 44.5q6 13 13.5 9.5t0.5 -18.5q-11 -23 -27.5 -55t-37.5 -61.5t-46 -50.5t-54 -21q-12 0 -23.5 6.5t-21.5 20.5q-8 13 -10.5 39t6.5 49q12 25 21.5 44.5t19 37.5t20 37t23.5 43q10 18 16.5 30.5t13 20t14 10.5
t19.5 2q10 -1 20.5 -3.5t21.5 -0.5q-11 -6 -26.5 -26t-32 -47t-33 -57.5t-29.5 -57.5zM486 229q4 18 12.5 36.5t20.5 34.5t27.5 28t33.5 17q27 8 47 4t30 -18t9.5 -38t-15.5 -55q-22 -27 -36 -41q-12 -12 -18 -14t7 22t23 46t13 39t-3 27.5t-25 11.5q-14 1 -27.5 -5.5
t-23.5 -20.5q-11 -15 -23.5 -35t-18.5 -37q-4 -10 -5 -24t4 -25.5t19.5 -18t42.5 -2.5q14 2 14 -5.5t-20 -9.5q-33 -4 -52 3.5t-28 20.5t-10 29t2 30zM564 148q-16 -29 -32.5 -56.5t-35.5 -48.5t-40 -34t-45 -13q-58 0 -80 41q-13 24 -13.5 41.5t6 28t16.5 14t17.5 0
t10 -14.5t-6.5 -29q-4 -9 -2 -18.5t7.5 -17.5t14 -13.5t19.5 -5.5q17 -1 29.5 3.5t23.5 14.5q23 20 44.5 49t39.5 61q2 2 14 0q5 -1 13 -2z" />
    <glyph glyph-name="afii10068_afii10077" unicode="&#x433;&#x43b;" horiz-adv-x="694" 
d="M126 116q7 19 18.5 38t24 38t24.5 38t20 39q6 14 5 23t-5.5 14.5t-10.5 7.5t-11 2q-20 0 -40.5 -21t-39.5 -49.5t-34 -57.5t-23 -45q-3 -7 -7 -9t-7 -0.5t-3.5 6t3.5 12.5q11 23 27.5 55t37.5 61.5t46 50.5t54 21q10 0 25 -5t25.5 -18t12 -34t-15.5 -53q-9 -17 -22 -35.5
t-25.5 -37.5t-22.5 -39t-13 -41q-2 -13 1.5 -23.5t10.5 -17.5t16 -10.5t18 -2.5q19 2 42 25t48 63q8 12 15.5 6.5t-1.5 -19.5q-12 -19 -25 -37t-28 -31.5t-31.5 -22t-33.5 -8.5q-15 0 -33 5t-31.5 18.5t-18 36.5t7.5 57zM641 323q6 12 15.5 16.5t23.5 4.5h54
q-11 -9 -19 -16.5t-15.5 -18t-15.5 -26t-19 -38.5q-11 -21 -21.5 -43.5t-20 -44t-16.5 -40t-9 -31.5q-7 -32 0.5 -45.5t18.5 -14.5q18 0 36.5 16t35.5 40.5t32.5 54t28.5 56.5q6 13 13.5 9.5t0.5 -18.5q-12 -26 -28 -57.5t-36 -59.5t-44 -47t-51 -19q-17 0 -30 8.5t-19.5 25
t-6.5 40.5t10 54q7 22 17 47t21.5 50.5t23 50.5t20.5 46zM426 45q20 17 36.5 41.5t31 52.5t27 57t23.5 54.5t21 45t21 29.5q8 8 16 12t19 5.5t25.5 1.5h36.5q4 0 1 -2.5t-9 -5.5t-14.5 -5.5t-14.5 -2.5q-29 1 -41 -11.5t-25 -35.5q-16 -29 -34.5 -76t-42 -92.5t-53 -78.5
t-68.5 -33q-24 0 -44.5 8.5t-33.5 32.5q-18 33 -10.5 53t21.5 25.5t24 -5t-3 -38.5q-4 -8 -2 -17t7.5 -16.5t14 -12t17.5 -4.5q17 1 29.5 4.5t23.5 13.5z" />
    <glyph glyph-name="afii10068_afii10078" unicode="&#x433;&#x43c;" horiz-adv-x="887" 
d="M126 116q7 19 18.5 38t24 38t24.5 38t20 39q6 14 5 23t-5.5 14.5t-10.5 7.5t-11 2q-20 0 -40.5 -21t-39.5 -49.5t-34 -57.5t-23 -45q-3 -7 -7 -9t-7 -0.5t-3.5 6t3.5 12.5q11 23 27.5 55t37.5 61.5t46 50.5t54 21q10 0 25 -5t25.5 -18t12 -34t-15.5 -53q-9 -17 -22 -35.5
t-25.5 -37.5t-22.5 -39t-13 -41q-2 -13 1.5 -23.5t10.5 -17.5t16 -10.5t18 -2.5q19 2 42 25t48 63q8 12 15.5 6.5t-1.5 -19.5q-12 -19 -25 -37t-28 -31.5t-31.5 -22t-33.5 -8.5q-15 0 -33 5t-31.5 18.5t-18 36.5t7.5 57zM587 1q-17 1 -30 9.5t-19.5 25t-6.5 40t10 53.5
q7 22 17 47t21.5 50.5t23 50.5t20.5 46q6 12 15.5 16.5t23.5 4.5h54q-11 -9 -19 -16.5t-15.5 -18t-15.5 -26t-19 -38.5q-11 -21 -21.5 -43.5t-20 -44t-16.5 -40t-9 -31.5q-7 -32 0.5 -45t18.5 -15q20 -3 39.5 15t37.5 47.5t34.5 66t31.5 71t28.5 61.5t25.5 38q8 8 16 12
t19 5.5t25.5 1.5h36.5q4 0 1 -2.5t-9 -5.5t-14.5 -5.5t-14.5 -2.5q-29 1 -40.5 -11.5t-25.5 -35.5q-11 -19 -22.5 -47.5t-25 -60t-29.5 -63t-35 -56t-41.5 -39.5t-49.5 -14zM426 45q20 17 36.5 41.5t31 52.5t27 57t23.5 54.5t21 45t21 29.5q8 8 16 12t19 5.5t25.5 1.5h36.5
q4 0 1 -2.5t-9 -5.5t-14.5 -5.5t-14.5 -2.5q-29 1 -41 -11.5t-25 -35.5q-16 -29 -34.5 -76t-42 -92.5t-53 -78.5t-68.5 -33q-24 0 -44.5 8.5t-33.5 32.5q-18 33 -10.5 53t21.5 25.5t24 -5t-3 -38.5q-4 -8 -2 -17t7.5 -16.5t14 -12t17.5 -4.5q17 1 29.5 4.5t23.5 13.5z
M834 323q6 12 15.5 16.5t23.5 4.5h54q-11 -9 -19 -16.5t-15.5 -18t-15.5 -26t-19 -38.5q-11 -21 -21.5 -43.5t-20 -44t-16.5 -40t-9 -31.5q-7 -32 0.5 -45.5t18.5 -14.5q18 0 36.5 16t35.5 40.5t32.5 54t28.5 56.5q6 13 13.5 9.5t0.5 -18.5q-12 -26 -28 -57.5t-36 -59.5
t-44 -47t-51 -19q-17 0 -30 8.5t-19.5 25t-6.5 40.5t10 54q7 22 17 47t21.5 50.5t23 50.5t20.5 46z" />
    <glyph glyph-name="afii10068_afii10097" unicode="&#x433;&#x44f;" horiz-adv-x="662" 
d="M126 116q7 19 18.5 38t24 38t24.5 38t20 39q6 14 5 23t-5.5 14.5t-10.5 7.5t-11 2q-20 0 -40.5 -21t-39.5 -49.5t-34 -57.5t-23 -45q-3 -7 -7 -9t-7 -0.5t-3.5 6t3.5 12.5q11 23 27.5 55t37.5 61.5t46 50.5t54 21q10 0 25 -5t25.5 -18t12 -34t-15.5 -53q-9 -17 -22 -35.5
t-25.5 -37.5t-22.5 -39t-13 -41q-2 -13 1.5 -23.5t10.5 -17.5t16 -10.5t18 -2.5q19 2 42 25t48 63q8 12 15.5 6.5t-1.5 -19.5q-12 -19 -25 -37t-28 -31.5t-31.5 -22t-33.5 -8.5q-15 0 -33 5t-31.5 18.5t-18 36.5t7.5 57zM586 144q-7 -14 -14.5 -34.5t-10.5 -40t1.5 -33.5
t22.5 -14q19 0 39.5 21t38.5 49t32.5 56.5t22.5 44.5q6 13 13.5 9.5t0.5 -18.5q-11 -23 -27.5 -55t-37.5 -61.5t-46 -50.5t-54 -21q-12 0 -23.5 6.5t-21.5 20.5q-8 13 -10.5 39t6.5 49q12 25 21.5 44.5t19 37.5t20 37t23.5 43q10 18 16.5 30.5t13 20t14 10.5t19.5 2
q10 -1 20.5 -3.5t21.5 -0.5q-11 -6 -26.5 -26t-32 -47t-33 -57.5t-29.5 -57.5zM448 229q4 18 12.5 36.5t20.5 34.5t27.5 28t33.5 17q27 8 47 4t30 -18t9.5 -38t-15.5 -55q-22 -27 -36 -41q-12 -12 -18 -14t7 22t23 46t13 39t-3 27.5t-25 11.5q-14 1 -27.5 -5.5t-23.5 -20.5
q-11 -15 -23.5 -35t-18.5 -37q-4 -10 -5 -24t4 -25.5t19.5 -18t42.5 -2.5q14 2 14 -5.5t-20 -9.5q-33 -4 -52 3.5t-28 20.5t-10 29t2 30zM526 148q-16 -29 -32.5 -56.5t-35.5 -48.5t-40 -34t-45 -13q-58 0 -80 41q-13 24 -13.5 41.5t6 28t16.5 14t17.5 0t10 -14.5t-6.5 -29
q-4 -9 -2 -18.5t7.5 -17.5t14 -13.5t19.5 -5.5q17 -1 29.5 3.5t23.5 14.5q23 20 44.5 49t39.5 61q2 2 14 0q5 -1 13 -2z" />
    <glyph glyph-name="afii10069_afii10077" unicode="&#x434;&#x43b;" horiz-adv-x="791" 
d="M237 -45q-8 -3 -17 -6l-18 -6q-55 -19 -113.5 -41.5t-106.5 -54.5q-24 -16 -41.5 -40.5t-23 -47t5 -39t41.5 -16.5q16 0 34.5 5.5t35.5 13.5t32 17t24 16q23 19 46 44.5t44 53.5q37 52 57 101zM333 264q10 -60 6.5 -121.5t-19.5 -121.5q23 16 46 38t41 52q3 6 8 8t8 1
t3.5 -5.5t-4.5 -11.5q-5 -8 -13 -22t-21.5 -30.5t-32.5 -33.5t-46 -29q-17 -47 -48.5 -100.5t-74 -98.5t-93.5 -75t-105 -30q-94 0 -94 77q0 37 25.5 65.5t61.5 49.5q37 22 72 37t68.5 27t65 22t60.5 22q9 26 14.5 53.5t8.5 57.5q3 29 3 51.5t-2 30.5q-12 -23 -32.5 -56.5
t-46 -62.5t-54.5 -46t-59 -8q-38 16 -47.5 48.5t-0.5 72t31.5 80.5t50.5 74q22 27 50.5 45.5t59.5 26t62.5 2t59.5 -27.5q13 -11 14.5 -21t-3 -15.5t-11.5 -4.5t-11 12q-10 27 -27.5 34t-39.5 -0.5t-46.5 -26.5t-47.5 -44q-27 -31 -50 -67t-35.5 -68.5t-12 -57t20.5 -33.5
q22 -9 49.5 10.5t53 52t45.5 68.5t27 60q5 17 13 24t17 9t17.5 2t14.5 5zM738 323q6 12 15.5 16.5t23.5 4.5h54q-11 -9 -19 -16.5t-15.5 -18t-15.5 -26t-19 -38.5q-11 -21 -21.5 -43.5t-20 -44t-16.5 -40t-9 -31.5q-7 -32 0.5 -45.5t18.5 -14.5q18 0 36.5 16t35.5 40.5
t32.5 54t28.5 56.5q6 13 13.5 9.5t0.5 -18.5q-12 -26 -28 -57.5t-36 -59.5t-44 -47t-51 -19q-17 0 -30 8.5t-19.5 25t-6.5 40.5t10 54q7 22 17 47t21.5 50.5t23 50.5t20.5 46zM523 45q20 17 36.5 41.5t31 52.5t27 57t23.5 54.5t21 45t21 29.5q8 8 16 12t19 5.5t25.5 1.5
h36.5q4 0 1 -2.5t-9 -5.5t-14.5 -5.5t-14.5 -2.5q-29 1 -41 -11.5t-25 -35.5q-16 -29 -34.5 -76t-42 -92.5t-53 -78.5t-68.5 -33q-24 0 -44.5 8.5t-33.5 32.5q-18 33 -10.5 53t21.5 25.5t24 -5t-3 -38.5q-4 -8 -2 -17t7.5 -16.5t14 -12t17.5 -4.5q17 1 29.5 4.5t23.5 13.5z
" />
    <glyph glyph-name="afii10069_afii10078" unicode="&#x434;&#x43c;" horiz-adv-x="984" 
d="M237 -45q-8 -3 -17 -6l-18 -6q-55 -19 -113.5 -41.5t-106.5 -54.5q-24 -16 -41.5 -40.5t-23 -47t5 -39t41.5 -16.5q16 0 34.5 5.5t35.5 13.5t32 17t24 16q23 19 46 44.5t44 53.5q37 52 57 101zM333 264q10 -60 6.5 -121.5t-19.5 -121.5q23 16 46 38t41 52q3 6 8 8t8 1
t3.5 -5.5t-4.5 -11.5q-5 -8 -13 -22t-21.5 -30.5t-32.5 -33.5t-46 -29q-17 -47 -48.5 -100.5t-74 -98.5t-93.5 -75t-105 -30q-94 0 -94 77q0 37 25.5 65.5t61.5 49.5q37 22 72 37t68.5 27t65 22t60.5 22q9 26 14.5 53.5t8.5 57.5q3 29 3 51.5t-2 30.5q-12 -23 -32.5 -56.5
t-46 -62.5t-54.5 -46t-59 -8q-38 16 -47.5 48.5t-0.5 72t31.5 80.5t50.5 74q22 27 50.5 45.5t59.5 26t62.5 2t59.5 -27.5q13 -11 14.5 -21t-3 -15.5t-11.5 -4.5t-11 12q-10 27 -27.5 34t-39.5 -0.5t-46.5 -26.5t-47.5 -44q-27 -31 -50 -67t-35.5 -68.5t-12 -57t20.5 -33.5
q22 -9 49.5 10.5t53 52t45.5 68.5t27 60q5 17 13 24t17 9t17.5 2t14.5 5zM684 1q-17 1 -30 9.5t-19.5 25t-6.5 40t10 53.5q7 22 17 47t21.5 50.5t23 50.5t20.5 46q6 12 15.5 16.5t23.5 4.5h54q-11 -9 -19 -16.5t-15.5 -18t-15.5 -26t-19 -38.5q-11 -21 -21.5 -43.5t-20 -44
t-16.5 -40t-9 -31.5q-7 -32 0.5 -45t18.5 -15q20 -3 39.5 15t37.5 47.5t34.5 66t31.5 71t28.5 61.5t25.5 38q8 8 16 12t19 5.5t25.5 1.5h36.5q4 0 1 -2.5t-9 -5.5t-14.5 -5.5t-14.5 -2.5q-29 1 -40.5 -11.5t-25.5 -35.5q-11 -19 -22.5 -47.5t-25 -60t-29.5 -63t-35 -56
t-41.5 -39.5t-49.5 -14zM523 45q20 17 36.5 41.5t31 52.5t27 57t23.5 54.5t21 45t21 29.5q8 8 16 12t19 5.5t25.5 1.5h36.5q4 0 1 -2.5t-9 -5.5t-14.5 -5.5t-14.5 -2.5q-29 1 -41 -11.5t-25 -35.5q-16 -29 -34.5 -76t-42 -92.5t-53 -78.5t-68.5 -33q-24 0 -44.5 8.5
t-33.5 32.5q-18 33 -10.5 53t21.5 25.5t24 -5t-3 -38.5q-4 -8 -2 -17t7.5 -16.5t14 -12t17.5 -4.5q17 1 29.5 4.5t23.5 13.5zM931 323q6 12 15.5 16.5t23.5 4.5h54q-11 -9 -19 -16.5t-15.5 -18t-15.5 -26t-19 -38.5q-11 -21 -21.5 -43.5t-20 -44t-16.5 -40t-9 -31.5
q-7 -32 0.5 -45.5t18.5 -14.5q18 0 36.5 16t35.5 40.5t32.5 54t28.5 56.5q6 13 13.5 9.5t0.5 -18.5q-12 -26 -28 -57.5t-36 -59.5t-44 -47t-51 -19q-17 0 -30 8.5t-19.5 25t-6.5 40.5t10 54q7 22 17 47t21.5 50.5t23 50.5t20.5 46z" />
    <glyph glyph-name="afii10069_afii10097" unicode="&#x434;&#x44f;" horiz-adv-x="759" 
d="M237 -45q-8 -3 -17 -6l-18 -6q-55 -19 -113.5 -41.5t-106.5 -54.5q-24 -16 -41.5 -40.5t-23 -47t5 -39t41.5 -16.5q16 0 34.5 5.5t35.5 13.5t32 17t24 16q23 19 46 44.5t44 53.5q37 52 57 101zM333 264q10 -60 6.5 -121.5t-19.5 -121.5q23 16 46 38t41 52q3 6 8 8t8 1
t3.5 -5.5t-4.5 -11.5q-5 -8 -13 -22t-21.5 -30.5t-32.5 -33.5t-46 -29q-17 -47 -48.5 -100.5t-74 -98.5t-93.5 -75t-105 -30q-94 0 -94 77q0 37 25.5 65.5t61.5 49.5q37 22 72 37t68.5 27t65 22t60.5 22q9 26 14.5 53.5t8.5 57.5q3 29 3 51.5t-2 30.5q-12 -23 -32.5 -56.5
t-46 -62.5t-54.5 -46t-59 -8q-38 16 -47.5 48.5t-0.5 72t31.5 80.5t50.5 74q22 27 50.5 45.5t59.5 26t62.5 2t59.5 -27.5q13 -11 14.5 -21t-3 -15.5t-11.5 -4.5t-11 12q-10 27 -27.5 34t-39.5 -0.5t-46.5 -26.5t-47.5 -44q-27 -31 -50 -67t-35.5 -68.5t-12 -57t20.5 -33.5
q22 -9 49.5 10.5t53 52t45.5 68.5t27 60q5 17 13 24t17 9t17.5 2t14.5 5zM683 144q-7 -14 -14.5 -34.5t-10.5 -40t1.5 -33.5t22.5 -14q19 0 39.5 21t38.5 49t32.5 56.5t22.5 44.5q6 13 13.5 9.5t0.5 -18.5q-11 -23 -27.5 -55t-37.5 -61.5t-46 -50.5t-54 -21q-12 0 -23.5 6.5
t-21.5 20.5q-8 13 -10.5 39t6.5 49q12 25 21.5 44.5t19 37.5t20 37t23.5 43q10 18 16.5 30.5t13 20t14 10.5t19.5 2q10 -1 20.5 -3.5t21.5 -0.5q-11 -6 -26.5 -26t-32 -47t-33 -57.5t-29.5 -57.5zM545 229q4 18 12.5 36.5t20.5 34.5t27.5 28t33.5 17q27 8 47 4t30 -18
t9.5 -38t-15.5 -55q-22 -27 -36 -41q-12 -12 -18 -14t7 22t23 46t13 39t-3 27.5t-25 11.5q-14 1 -27.5 -5.5t-23.5 -20.5q-11 -15 -23.5 -35t-18.5 -37q-4 -10 -5 -24t4 -25.5t19.5 -18t42.5 -2.5q14 2 14 -5.5t-20 -9.5q-33 -4 -52 3.5t-28 20.5t-10 29t2 30zM623 148
q-16 -29 -32.5 -56.5t-35.5 -48.5t-40 -34t-45 -13q-58 0 -80 41q-13 24 -13.5 41.5t6 28t16.5 14t17.5 0t10 -14.5t-6.5 -29q-4 -9 -2 -18.5t7.5 -17.5t14 -13.5t19.5 -5.5q17 -1 29.5 3.5t23.5 14.5q23 20 44.5 49t39.5 61q2 2 14 0q5 -1 13 -2z" />
    <glyph glyph-name="afii10070_afii10077" unicode="&#x435;&#x43b;" horiz-adv-x="645" 
d="M214 215q20 17 33.5 38t18.5 39t2 30t-15 11.5t-33 -16t-52 -52.5q-20 -24 -36.5 -52t-23.5 -42q7 0 19 2.5t27 8t30.5 14t29.5 19.5zM224 198q-12 -9 -28.5 -17t-34.5 -14t-34 -9.5t-26 -3.5q-6 -14 -10.5 -37t-3 -45t12 -38.5t35.5 -16.5q33 0 63.5 21.5t60.5 69.5
q8 12 18 12.5t2 -14.5q-35 -63 -72.5 -86.5t-79.5 -23.5q-38 0 -66.5 24t-29.5 72q0 22 5.5 47t16 49.5t24.5 47.5t31 43q19 22 42 40t46 27.5t44.5 9.5t38.5 -12q14 -11 16.5 -28t-5.5 -37.5t-25 -41.5t-41 -39zM592 323q6 12 15.5 16.5t23.5 4.5h54q-11 -9 -19 -16.5
t-15.5 -18t-15.5 -26t-19 -38.5q-11 -21 -21.5 -43.5t-20 -44t-16.5 -40t-9 -31.5q-7 -32 0.5 -45.5t18.5 -14.5q18 0 36.5 16t35.5 40.5t32.5 54t28.5 56.5q6 13 13.5 9.5t0.5 -18.5q-12 -26 -28 -57.5t-36 -59.5t-44 -47t-51 -19q-17 0 -30 8.5t-19.5 25t-6.5 40.5t10 54
q7 22 17 47t21.5 50.5t23 50.5t20.5 46zM377 45q20 17 36.5 41.5t31 52.5t27 57t23.5 54.5t21 45t21 29.5q8 8 16 12t19 5.5t25.5 1.5h36.5q4 0 1 -2.5t-9 -5.5t-14.5 -5.5t-14.5 -2.5q-29 1 -41 -11.5t-25 -35.5q-16 -29 -34.5 -76t-42 -92.5t-53 -78.5t-68.5 -33
q-24 0 -44.5 8.5t-33.5 32.5q-18 33 -10.5 53t21.5 25.5t24 -5t-3 -38.5q-4 -8 -2 -17t7.5 -16.5t14 -12t17.5 -4.5q17 1 29.5 4.5t23.5 13.5z" />
    <glyph glyph-name="afii10070_afii10078" unicode="&#x435;&#x43c;" horiz-adv-x="838" 
d="M214 215q20 17 33.5 38t18.5 39t2 30t-15 11.5t-33 -16t-52 -52.5q-20 -24 -36.5 -52t-23.5 -42q7 0 19 2.5t27 8t30.5 14t29.5 19.5zM224 198q-12 -9 -28.5 -17t-34.5 -14t-34 -9.5t-26 -3.5q-6 -14 -10.5 -37t-3 -45t12 -38.5t35.5 -16.5q33 0 63.5 21.5t60.5 69.5
q8 12 18 12.5t2 -14.5q-35 -63 -72.5 -86.5t-79.5 -23.5q-38 0 -66.5 24t-29.5 72q0 22 5.5 47t16 49.5t24.5 47.5t31 43q19 22 42 40t46 27.5t44.5 9.5t38.5 -12q14 -11 16.5 -28t-5.5 -37.5t-25 -41.5t-41 -39zM538 1q-17 1 -30 9.5t-19.5 25t-6.5 40t10 53.5q7 22 17 47
t21.5 50.5t23 50.5t20.5 46q6 12 15.5 16.5t23.5 4.5h54q-11 -9 -19 -16.5t-15.5 -18t-15.5 -26t-19 -38.5q-11 -21 -21.5 -43.5t-20 -44t-16.5 -40t-9 -31.5q-7 -32 0.5 -45t18.5 -15q20 -3 39.5 15t37.5 47.5t34.5 66t31.5 71t28.5 61.5t25.5 38q8 8 16 12t19 5.5
t25.5 1.5h36.5q4 0 1 -2.5t-9 -5.5t-14.5 -5.5t-14.5 -2.5q-29 1 -40.5 -11.5t-25.5 -35.5q-11 -19 -22.5 -47.5t-25 -60t-29.5 -63t-35 -56t-41.5 -39.5t-49.5 -14zM377 45q20 17 36.5 41.5t31 52.5t27 57t23.5 54.5t21 45t21 29.5q8 8 16 12t19 5.5t25.5 1.5h36.5
q4 0 1 -2.5t-9 -5.5t-14.5 -5.5t-14.5 -2.5q-29 1 -41 -11.5t-25 -35.5q-16 -29 -34.5 -76t-42 -92.5t-53 -78.5t-68.5 -33q-24 0 -44.5 8.5t-33.5 32.5q-18 33 -10.5 53t21.5 25.5t24 -5t-3 -38.5q-4 -8 -2 -17t7.5 -16.5t14 -12t17.5 -4.5q17 1 29.5 4.5t23.5 13.5z
M785 323q6 12 15.5 16.5t23.5 4.5h54q-11 -9 -19 -16.5t-15.5 -18t-15.5 -26t-19 -38.5q-11 -21 -21.5 -43.5t-20 -44t-16.5 -40t-9 -31.5q-7 -32 0.5 -45.5t18.5 -14.5q18 0 36.5 16t35.5 40.5t32.5 54t28.5 56.5q6 13 13.5 9.5t0.5 -18.5q-12 -26 -28 -57.5t-36 -59.5
t-44 -47t-51 -19q-17 0 -30 8.5t-19.5 25t-6.5 40.5t10 54q7 22 17 47t21.5 50.5t23 50.5t20.5 46z" />
    <glyph glyph-name="afii10070_afii10097" unicode="&#x435;&#x44f;" horiz-adv-x="613" 
d="M214 215q20 17 33.5 38t18.5 39t2 30t-15 11.5t-33 -16t-52 -52.5q-20 -24 -36.5 -52t-23.5 -42q7 0 19 2.5t27 8t30.5 14t29.5 19.5zM224 198q-12 -9 -28.5 -17t-34.5 -14t-34 -9.5t-26 -3.5q-6 -14 -10.5 -37t-3 -45t12 -38.5t35.5 -16.5q33 0 62 20.5t57 62.5q4 6 9 9
t9 3t5 -4t-3 -11q-33 -57 -69 -79t-78 -22q-38 0 -66.5 24t-29.5 72q0 22 5.5 47t16 49.5t24.5 47.5t31 43q19 22 42 40t46 27.5t44.5 9.5t38.5 -12q14 -11 16.5 -28t-5.5 -37.5t-25 -41.5t-41 -39zM537 144q-7 -14 -14.5 -34.5t-10.5 -40t1.5 -33.5t22.5 -14q19 0 39.5 21
t38.5 49t32.5 56.5t22.5 44.5q6 13 13.5 9.5t0.5 -18.5q-11 -23 -27.5 -55t-37.5 -61.5t-46 -50.5t-54 -21q-12 0 -23.5 6.5t-21.5 20.5q-8 13 -10.5 39t6.5 49q12 25 21.5 44.5t19 37.5t20 37t23.5 43q10 18 16.5 30.5t13 20t14 10.5t19.5 2q10 -1 20.5 -3.5t21.5 -0.5
q-11 -6 -26.5 -26t-32 -47t-33 -57.5t-29.5 -57.5zM399 229q4 18 12.5 36.5t20.5 34.5t27.5 28t33.5 17q27 8 47 4t30 -18t9.5 -38t-15.5 -55q-22 -27 -36 -41q-12 -12 -18 -14t7 22t23 46t13 39t-3 27.5t-25 11.5q-14 1 -27.5 -5.5t-23.5 -20.5q-11 -15 -23.5 -35
t-18.5 -37q-4 -10 -5 -24t4 -25.5t19.5 -18t42.5 -2.5q14 2 14 -5.5t-20 -9.5q-33 -4 -52 3.5t-28 20.5t-10 29t2 30zM477 148q-16 -29 -32.5 -56.5t-35.5 -48.5t-40 -34t-45 -13q-58 0 -80 41q-13 24 -13.5 41.5t6 28t16.5 14t17.5 0t10 -14.5t-6.5 -29q-4 -9 -2 -18.5
t7.5 -17.5t14 -13.5t19.5 -5.5q17 -1 29.5 3.5t23.5 14.5q23 20 44.5 49t39.5 61q2 2 14 0q5 -1 13 -2z" />
    <glyph glyph-name="afii10072_afii10077" unicode="&#x436;&#x43b;" horiz-adv-x="1130" 
d="M771 283q-2 -12 -9.5 -25t-17.5 -22t-21 -11.5t-19 5.5q8 10 17.5 23.5t13.5 27.5q7 26 0.5 37.5t-20.5 11.5t-28 -8t-28.5 -20t-27.5 -27.5t-23 -30.5q-7 -10 -16.5 -27t-18 -37.5t-14.5 -43.5t-6 -45q0 -30 13.5 -53.5t45.5 -23.5q24 0 43 8.5t34.5 21.5t28.5 29.5
t25 33.5q9 13 16.5 10t-0.5 -17q-12 -21 -26.5 -40t-32.5 -33t-42 -22.5t-56 -8.5q-39 0 -62 14t-33 36.5t-8.5 51.5t11 60t25 61t33.5 54q28 38 63 58.5t71 20.5q38 0 55.5 -19t13.5 -50zM44 165q18 39 36 73t40.5 59.5t52 40t70.5 14.5q39 0 62 -14t33 -36.5t8.5 -51.5
t-11 -60t-25 -61t-33.5 -54q-28 -38 -63 -58.5t-71 -20.5q-38 0 -55.5 19t-13.5 50q1 12 9 25t18 22t21 11.5t19 -5.5q-8 -10 -17.5 -23.5t-13.5 -27.5q-7 -26 -0.5 -37.5t20.5 -11.5q13 0 27.5 8t29 20t27 27.5t23.5 30.5q7 10 16.5 27t18 37.5t14.5 43.5t6 45
q0 30 -13.5 53.5t-45.5 23.5q-33 0 -58.5 -16.5t-46.5 -42t-38 -56.5t-32 -61q-7 -14 -14 -11t0 18zM299 109q-5 5 -5 11t2 11q3 6 7 13l25 32q3 4 14.5 18t27.5 32.5t35 38.5t36.5 36.5t32.5 26t24 6.5q14 -5 18 -17t-3 -27q-14 -32 -34.5 -67.5t-38.5 -72.5
q15 19 37.5 44.5t45.5 45.5q6 5 16 14t21.5 18.5t23 18t20.5 14.5l-10 -18q-5 -7 -9 -14t-9 -9q-9 -5 -25 -21.5t-30 -28.5q-16 -15 -38.5 -41t-43.5 -55.5t-37.5 -59.5t-21.5 -52q-17 0 -26.5 16.5t-5.5 38.5q5 33 16.5 59.5t25.5 54.5q12 26 18 38.5t2.5 12.5t-18.5 -13.5
t-43 -39.5q-19 -17 -28 -29t-22 -35zM1077 323q6 12 15.5 16.5t23.5 4.5h54q-11 -9 -19 -16.5t-15.5 -18t-15.5 -26t-19 -38.5q-11 -21 -21.5 -43.5t-20 -44t-16.5 -40t-9 -31.5q-7 -32 0.5 -45.5t18.5 -14.5q18 0 36.5 16t35.5 40.5t32.5 54t28.5 56.5q6 13 13.5 9.5
t0.5 -18.5q-12 -26 -28 -57.5t-36 -59.5t-44 -47t-51 -19q-17 0 -30 8.5t-19.5 25t-6.5 40.5t10 54q7 22 17 47t21.5 50.5t23 50.5t20.5 46zM862 45q20 17 36.5 41.5t31 52.5t27 57t23.5 54.5t21 45t21 29.5q8 8 16 12t19 5.5t25.5 1.5h36.5q4 0 1 -2.5t-9 -5.5t-14.5 -5.5
t-14.5 -2.5q-29 1 -41 -11.5t-25 -35.5q-16 -29 -34.5 -76t-42 -92.5t-53 -78.5t-68.5 -33q-24 0 -44.5 8.5t-33.5 32.5q-18 33 -10.5 53t21.5 25.5t24 -5t-3 -38.5q-4 -8 -2 -17t7.5 -16.5t14 -12t17.5 -4.5q17 1 29.5 4.5t23.5 13.5z" />
    <glyph glyph-name="afii10072_afii10078" unicode="&#x436;&#x43c;" horiz-adv-x="1323" 
d="M771 283q-2 -12 -9.5 -25t-17.5 -22t-21 -11.5t-19 5.5q8 10 17.5 23.5t13.5 27.5q7 26 0.5 37.5t-20.5 11.5t-28 -8t-28.5 -20t-27.5 -27.5t-23 -30.5q-7 -10 -16.5 -27t-18 -37.5t-14.5 -43.5t-6 -45q0 -30 13.5 -53.5t45.5 -23.5q24 0 43 8.5t34.5 21.5t28.5 29.5
t25 33.5q9 13 16.5 10t-0.5 -17q-12 -21 -26.5 -40t-32.5 -33t-42 -22.5t-56 -8.5q-39 0 -62 14t-33 36.5t-8.5 51.5t11 60t25 61t33.5 54q28 38 63 58.5t71 20.5q38 0 55.5 -19t13.5 -50zM44 165q18 39 36 73t40.5 59.5t52 40t70.5 14.5q39 0 62 -14t33 -36.5t8.5 -51.5
t-11 -60t-25 -61t-33.5 -54q-28 -38 -63 -58.5t-71 -20.5q-38 0 -55.5 19t-13.5 50q1 12 9 25t18 22t21 11.5t19 -5.5q-8 -10 -17.5 -23.5t-13.5 -27.5q-7 -26 -0.5 -37.5t20.5 -11.5q13 0 27.5 8t29 20t27 27.5t23.5 30.5q7 10 16.5 27t18 37.5t14.5 43.5t6 45
q0 30 -13.5 53.5t-45.5 23.5q-33 0 -58.5 -16.5t-46.5 -42t-38 -56.5t-32 -61q-7 -14 -14 -11t0 18zM299 109q-5 5 -5 11t2 11q3 6 7 13l25 32q3 4 14.5 18t27.5 32.5t35 38.5t36.5 36.5t32.5 26t24 6.5q14 -5 18 -17t-3 -27q-14 -32 -34.5 -67.5t-38.5 -72.5
q15 19 37.5 44.5t45.5 45.5q6 5 16 14t21.5 18.5t23 18t20.5 14.5l-10 -18q-5 -7 -9 -14t-9 -9q-9 -5 -25 -21.5t-30 -28.5q-16 -15 -38.5 -41t-43.5 -55.5t-37.5 -59.5t-21.5 -52q-17 0 -26.5 16.5t-5.5 38.5q5 33 16.5 59.5t25.5 54.5q12 26 18 38.5t2.5 12.5t-18.5 -13.5
t-43 -39.5q-19 -17 -28 -29t-22 -35zM1023 1q-17 1 -30 9.5t-19.5 25t-6.5 40t10 53.5q7 22 17 47t21.5 50.5t23 50.5t20.5 46q6 12 15.5 16.5t23.5 4.5h54q-11 -9 -19 -16.5t-15.5 -18t-15.5 -26t-19 -38.5q-11 -21 -21.5 -43.5t-20 -44t-16.5 -40t-9 -31.5q-7 -32 0.5 -45
t18.5 -15q21 -3 40 15t37 47.5t34.5 66t31.5 71t28.5 61.5t25.5 38q8 8 16 12t19 5.5t25.5 1.5h36.5q4 0 1 -2.5t-9 -5.5t-14.5 -5.5t-14.5 -2.5q-29 1 -40.5 -11.5t-25.5 -35.5q-11 -19 -22.5 -47.5t-25 -60t-29.5 -63t-35 -56t-41.5 -39.5t-49.5 -14zM862 45
q20 17 36.5 41.5t31 52.5t27 57t23.5 54.5t21 45t21 29.5q8 8 16 12t19 5.5t25.5 1.5h36.5q4 0 1 -2.5t-9 -5.5t-14.5 -5.5t-14.5 -2.5q-29 1 -41 -11.5t-25 -35.5q-16 -29 -34.5 -76t-42 -92.5t-53 -78.5t-68.5 -33q-24 0 -44.5 8.5t-33.5 32.5q-18 33 -10.5 53t21.5 25.5
t24 -5t-3 -38.5q-4 -8 -2 -17t7.5 -16.5t14 -12t17.5 -4.5q17 1 29.5 4.5t23.5 13.5zM1270 323q6 12 15.5 16.5t23.5 4.5h54q-11 -9 -19 -16.5t-15.5 -18t-15.5 -26t-19 -38.5q-11 -21 -21.5 -43.5t-20 -44t-16.5 -40t-9 -31.5q-7 -32 0.5 -45.5t18.5 -14.5q18 0 36.5 16
t35.5 40.5t32.5 54t28.5 56.5q6 13 13.5 9.5t0.5 -18.5q-12 -26 -28 -57.5t-36 -59.5t-44 -47t-51 -19q-17 0 -30 8.5t-19.5 25t-6.5 40.5t10 54q7 22 17 47t21.5 50.5t23 50.5t20.5 46z" />
    <glyph glyph-name="afii10072_afii10097" unicode="&#x436;&#x44f;" horiz-adv-x="1098" 
d="M771 283q-2 -12 -9.5 -25t-17.5 -22t-21 -11.5t-19 5.5q8 10 17.5 23.5t13.5 27.5q7 26 0.5 37.5t-20.5 11.5t-28 -8t-28.5 -20t-27.5 -27.5t-23 -30.5q-7 -10 -16.5 -27t-18 -37.5t-14.5 -43.5t-6 -45q0 -30 13.5 -53.5t45.5 -23.5q24 0 43 8.5t34.5 21.5t28.5 29.5
t25 33.5q9 13 16.5 10t-0.5 -17q-12 -21 -26.5 -40t-32.5 -33t-42 -22.5t-56 -8.5q-39 0 -62 14t-33 36.5t-8.5 51.5t11 60t25 61t33.5 54q28 38 63 58.5t71 20.5q38 0 55.5 -19t13.5 -50zM44 165q18 39 36 73t40.5 59.5t52 40t70.5 14.5q39 0 62 -14t33 -36.5t8.5 -51.5
t-11 -60t-25 -61t-33.5 -54q-28 -38 -63 -58.5t-71 -20.5q-38 0 -55.5 19t-13.5 50q1 12 9 25t18 22t21 11.5t19 -5.5q-8 -10 -17.5 -23.5t-13.5 -27.5q-7 -26 -0.5 -37.5t20.5 -11.5q13 0 27.5 8t29 20t27 27.5t23.5 30.5q7 10 16.5 27t18 37.5t14.5 43.5t6 45
q0 30 -13.5 53.5t-45.5 23.5q-33 0 -58.5 -16.5t-46.5 -42t-38 -56.5t-32 -61q-7 -14 -14 -11t0 18zM299 109q-5 5 -5 11t2 11q3 6 7 13l25 32q3 4 14.5 18t27.5 32.5t35 38.5t36.5 36.5t32.5 26t24 6.5q14 -5 18 -17t-3 -27q-14 -32 -34.5 -67.5t-38.5 -72.5
q15 19 37.5 44.5t45.5 45.5q6 5 16 14t21.5 18.5t23 18t20.5 14.5l-10 -18q-5 -7 -9 -14t-9 -9q-9 -5 -25 -21.5t-30 -28.5q-16 -15 -38.5 -41t-43.5 -55.5t-37.5 -59.5t-21.5 -52q-17 0 -26.5 16.5t-5.5 38.5q5 33 16.5 59.5t25.5 54.5q12 26 18 38.5t2.5 12.5t-18.5 -13.5
t-43 -39.5q-19 -17 -28 -29t-22 -35zM1022 144q-7 -14 -14.5 -34.5t-10.5 -40t1.5 -33.5t22.5 -14q19 0 39.5 21t38.5 49t32.5 56.5t22.5 44.5q6 13 13.5 9.5t0.5 -18.5q-11 -23 -27.5 -55t-37.5 -61.5t-46 -50.5t-54 -21q-12 0 -23.5 6.5t-21.5 20.5q-8 13 -10.5 39t6.5 49
q12 25 21.5 44.5t19 37.5t20 37t23.5 43q10 18 16.5 30.5t13 20t14 10.5t19.5 2q10 -1 20.5 -3.5t21.5 -0.5q-11 -6 -26.5 -26t-32 -47t-33 -57.5t-29.5 -57.5zM884 229q4 18 12.5 36.5t20.5 34.5t27.5 28t33.5 17q27 8 47 4t30 -18t9.5 -38t-15.5 -55q-22 -27 -36 -41
q-12 -12 -18 -14t7 22t23 46t13 39t-3 27.5t-25 11.5q-14 1 -27.5 -5.5t-23.5 -20.5q-11 -15 -23.5 -35t-18.5 -37q-4 -10 -5 -24t4 -25.5t19.5 -18t42.5 -2.5q14 2 14 -5.5t-20 -9.5q-33 -4 -52 3.5t-28 20.5t-10 29t2 30zM962 148q-16 -29 -32.5 -56.5t-35.5 -48.5
t-40 -34t-45 -13q-58 0 -80 41q-13 24 -13.5 41.5t6 28t16.5 14t17.5 0t10 -14.5t-6.5 -29q-4 -9 -2 -18.5t7.5 -17.5t14 -13.5t19.5 -5.5q17 -1 29.5 3.5t23.5 14.5q23 20 44.5 49t39.5 61q2 2 14 0q5 -1 13 -2z" />
    <glyph glyph-name="afii10073_afii10077" unicode="&#x437;&#x43b;" horiz-adv-x="740" 
d="M168 -36q-33 -11 -68 -20.5t-67.5 -20t-61.5 -22t-51 -24.5q-33 -19 -53.5 -50t-24.5 -59t12 -45t55 -9q29 6 65.5 26t73 52t68.5 75.5t52 96.5zM284 289q-2 -33 -26 -71t-72 -67q38 1 53 -18t16 -47q0 -5 -1 -15t-2.5 -21t-3.5 -21t-4 -16q28 5 55.5 29t55.5 69
q8 13 15 9t-1 -18q-18 -30 -34.5 -50.5t-33 -33.5t-32 -20t-31.5 -10q-38 -106 -113.5 -182.5t-184.5 -108.5q-38 -11 -68 -4t-47 26.5t-18 48t19 59.5q20 30 59.5 53.5t88.5 42.5t102 35t101 31q6 18 11.5 43.5t6 48t-7 37t-29.5 10.5q-10 -5 -21 -9.5t-23 -9.5
q-6 -2 -10.5 0t-6 5.5t0.5 7.5t8 6q25 7 43.5 19t32 25t22.5 24.5t14 19.5q18 27 11 49.5t-27.5 31t-47.5 -2t-50 -49.5q-5 -8 -11.5 -20t-14 -25.5t-14.5 -28t-13 -26.5q-6 -13 -13 -9.5t1 20.5q14 26 28 55t31 59q23 42 55.5 61.5t62 20t49.5 -16t19 -46.5zM687 323
q6 12 15.5 16.5t23.5 4.5h54q-11 -9 -19 -16.5t-15.5 -18t-15.5 -26t-19 -38.5q-11 -21 -21.5 -43.5t-20 -44t-16.5 -40t-9 -31.5q-7 -32 0.5 -45.5t18.5 -14.5q18 0 36.5 16t35.5 40.5t32.5 54t28.5 56.5q6 13 13.5 9.5t0.5 -18.5q-12 -26 -28 -57.5t-36 -59.5t-44 -47
t-51 -19q-17 0 -30 8.5t-19.5 25t-6.5 40.5t10 54q7 22 17 47t21.5 50.5t23 50.5t20.5 46zM472 45q20 17 36.5 41.5t31 52.5t27 57t23.5 54.5t21 45t21 29.5q8 8 16 12t19 5.5t25.5 1.5h36.5q4 0 1 -2.5t-9 -5.5t-14.5 -5.5t-14.5 -2.5q-29 1 -41 -11.5t-25 -35.5
q-16 -29 -34.5 -76t-42 -92.5t-53 -78.5t-68.5 -33q-24 0 -44.5 8.5t-33.5 32.5q-18 33 -10.5 53t21.5 25.5t24 -5t-3 -38.5q-4 -8 -2 -17t7.5 -16.5t14 -12t17.5 -4.5q17 1 29.5 4.5t23.5 13.5z" />
    <glyph glyph-name="afii10073_afii10078" unicode="&#x437;&#x43c;" horiz-adv-x="933" 
d="M168 -36q-33 -11 -68 -20.5t-67.5 -20t-61.5 -22t-51 -24.5q-33 -19 -53.5 -50t-24.5 -59t12 -45t55 -9q29 6 65.5 26t73 52t68.5 75.5t52 96.5zM158 128q-10 -5 -21 -9.5t-23 -9.5q-6 -2 -10.5 0t-6 5.5t0.5 7.5t8 6q25 7 43.5 19t32 25t22.5 24.5t14 19.5
q18 27 11 49.5t-27.5 31t-47.5 -2t-50 -49.5q-5 -8 -11.5 -20t-14 -25.5t-14.5 -28t-13 -26.5q-6 -13 -13 -9.5t1 20.5q14 26 28 55t31 59q23 42 55.5 61.5t62 20t49.5 -16t19 -46.5q-2 -33 -26 -71t-72 -67q38 1 53 -18t16 -47q0 -5 -1 -15t-2.5 -21t-3.5 -21t-4 -16
q29 5 56.5 30t53.5 67q8 14 15 9.5t-1 -19.5q-31 -52 -61.5 -78t-68.5 -34q-38 -106 -113.5 -182.5t-184.5 -108.5q-38 -11 -68 -4t-47 26.5t-18 48t19 59.5q20 30 59.5 53.5t88.5 42.5t102 35t101 31q6 18 11.5 43.5t6 48t-7 37t-29.5 10.5zM633 1q-17 1 -30 9.5t-19.5 25
t-6.5 40t10 53.5q7 22 17 47t21.5 50.5t23 50.5t20.5 46q6 12 15.5 16.5t23.5 4.5h54q-11 -9 -19 -16.5t-15.5 -18t-15.5 -26t-19 -38.5q-11 -21 -21.5 -43.5t-20 -44t-16.5 -40t-9 -31.5q-7 -32 0.5 -45t18.5 -15q20 -3 39.5 15t37.5 47.5t34.5 66t31.5 71t28.5 61.5
t25.5 38q8 8 16 12t19 5.5t25.5 1.5h36.5q4 0 1 -2.5t-9 -5.5t-14.5 -5.5t-14.5 -2.5q-29 1 -40.5 -11.5t-25.5 -35.5q-11 -19 -22.5 -47.5t-25 -60t-29.5 -63t-35 -56t-41.5 -39.5t-49.5 -14zM472 45q20 17 36.5 41.5t31 52.5t27 57t23.5 54.5t21 45t21 29.5q8 8 16 12
t19 5.5t25.5 1.5h36.5q4 0 1 -2.5t-9 -5.5t-14.5 -5.5t-14.5 -2.5q-29 1 -41 -11.5t-25 -35.5q-16 -29 -34.5 -76t-42 -92.5t-53 -78.5t-68.5 -33q-24 0 -44.5 8.5t-33.5 32.5q-18 33 -10.5 53t21.5 25.5t24 -5t-3 -38.5q-4 -8 -2 -17t7.5 -16.5t14 -12t17.5 -4.5
q17 1 29.5 4.5t23.5 13.5zM880 323q6 12 15.5 16.5t23.5 4.5h54q-11 -9 -19 -16.5t-15.5 -18t-15.5 -26t-19 -38.5q-11 -21 -21.5 -43.5t-20 -44t-16.5 -40t-9 -31.5q-7 -32 0.5 -45.5t18.5 -14.5q18 0 36.5 16t35.5 40.5t32.5 54t28.5 56.5q6 13 13.5 9.5t0.5 -18.5
q-12 -26 -28 -57.5t-36 -59.5t-44 -47t-51 -19q-17 0 -30 8.5t-19.5 25t-6.5 40.5t10 54q7 22 17 47t21.5 50.5t23 50.5t20.5 46z" />
    <glyph glyph-name="afii10073_afii10097" unicode="&#x437;&#x44f;" horiz-adv-x="722" 
d="M168 -36q-33 -11 -68 -20.5t-67.5 -20t-61.5 -22t-51 -24.5q-33 -19 -53.5 -50t-24.5 -59t12 -45t55 -9q29 6 65.5 26t73 52t68.5 75.5t52 96.5zM284 289q-2 -33 -26 -71t-72 -67q38 1 53 -18t16 -47q0 -5 -1 -15t-2.5 -21t-3.5 -21t-4 -16q28 5 55.5 29t55.5 69
q8 13 15 9t-1 -18q-18 -30 -34.5 -50.5t-33 -33.5t-32 -20t-31.5 -10q-38 -106 -113.5 -182.5t-184.5 -108.5q-38 -11 -68 -4t-47 26.5t-18 48t19 59.5q20 30 59.5 53.5t88.5 42.5t102 35t101 31q6 18 11.5 43.5t6 48t-7 37t-29.5 10.5q-10 -5 -21 -9.5t-23 -9.5
q-6 -2 -10.5 0t-6 5.5t0.5 7.5t8 6q25 7 43.5 19t32 25t22.5 24.5t14 19.5q18 27 11 49.5t-27.5 31t-47.5 -2t-50 -49.5q-5 -8 -11.5 -20t-14 -25.5t-14.5 -28t-13 -26.5q-6 -13 -13 -9.5t1 20.5q14 26 28 55t31 59q23 42 55.5 61.5t62 20t49.5 -16t19 -46.5zM646 144
q-7 -14 -14.5 -34.5t-10.5 -40t1.5 -33.5t22.5 -14q19 0 39.5 21t38.5 49t32.5 56.5t22.5 44.5q6 13 13.5 9.5t0.5 -18.5q-11 -23 -27.5 -55t-37.5 -61.5t-46 -50.5t-54 -21q-12 0 -23.5 6.5t-21.5 20.5q-8 13 -10.5 39t6.5 49q12 25 21.5 44.5t19 37.5t20 37t23.5 43
q10 18 16.5 30.5t13 20t14 10.5t19.5 2q10 -1 20.5 -3.5t21.5 -0.5q-11 -6 -26.5 -26t-32 -47t-33 -57.5t-29.5 -57.5zM508 229q4 18 12.5 36.5t20.5 34.5t27.5 28t33.5 17q27 8 47 4t30 -18t9.5 -38t-15.5 -55q-22 -27 -36 -41q-12 -12 -18 -14t7 22t23 46t13 39t-3 27.5
t-25 11.5q-14 1 -27.5 -5.5t-23.5 -20.5q-11 -15 -23.5 -35t-18.5 -37q-4 -10 -5 -24t4 -25.5t19.5 -18t42.5 -2.5q14 2 14 -5.5t-20 -9.5q-33 -4 -52 3.5t-28 20.5t-10 29t2 30zM586 148q-16 -29 -32.5 -56.5t-35.5 -48.5t-40 -34t-45 -13q-58 0 -80 41q-13 24 -13.5 41.5
t6 28t16.5 14t17.5 0t10 -14.5t-6.5 -29q-4 -9 -2 -18.5t7.5 -17.5t14 -13.5t19.5 -5.5q17 -1 29.5 3.5t23.5 14.5q23 20 44.5 49t39.5 61q2 2 14 0q5 -1 13 -2z" />
    <glyph glyph-name="afii10074_afii10077" unicode="&#x438;&#x43b;" horiz-adv-x="756" 
d="M398 344q-11 -9 -19 -16.5t-15.5 -18t-15.5 -26t-19 -38.5q-11 -21 -21.5 -43.5t-20 -44t-16.5 -40t-9 -31.5q-7 -32 0.5 -45.5t18.5 -14.5q23 0 45.5 23.5t45.5 62.5q8 12 15.5 8.5t-0.5 -17.5q-11 -19 -24 -37t-27.5 -32.5t-31.5 -23.5t-35 -9q-17 0 -30 8.5t-19.5 25
t-6.5 40.5t10 54q-13 -23 -28.5 -45.5t-33 -41t-36.5 -30t-37 -11.5q-8 0 -17.5 1.5t-18.5 6.5t-16.5 14t-10.5 23q-3 16 -1 31t7.5 29.5t13 28t14.5 27.5q-5 0 -9.5 3t0.5 13q5 8 9 17t9 18l30 58t26 52q6 12 15.5 16.5t23.5 4.5h61q-9 -6 -16 -12.5t-14.5 -15.5t-15.5 -22
t-18 -34q-14 -26 -25 -50q-11 -21 -21 -43t-17 -36q-18 -39 -20 -65t7.5 -36.5t28.5 -3t43 35.5q21 24 41.5 57t39.5 68.5t36.5 70.5t31.5 65q6 12 15.5 16.5t23.5 4.5h54zM703 323q6 12 15.5 16.5t23.5 4.5h54q-11 -9 -19 -16.5t-15.5 -18t-15.5 -26t-19 -38.5
q-11 -21 -21.5 -43.5t-20 -44t-16.5 -40t-9 -31.5q-7 -32 0.5 -45.5t18.5 -14.5q18 0 36.5 16t35.5 40.5t32.5 54t28.5 56.5q6 13 13.5 9.5t0.5 -18.5q-12 -26 -28 -57.5t-36 -59.5t-44 -47t-51 -19q-17 0 -30 8.5t-19.5 25t-6.5 40.5t10 54q7 22 17 47t21.5 50.5t23 50.5
t20.5 46zM488 45q20 17 36.5 41.5t31 52.5t27 57t23.5 54.5t21 45t21 29.5q8 8 16 12t19 5.5t25.5 1.5h36.5q4 0 1 -2.5t-9 -5.5t-14.5 -5.5t-14.5 -2.5q-29 1 -41 -11.5t-25 -35.5q-16 -29 -34.5 -76t-42 -92.5t-53 -78.5t-68.5 -33q-24 0 -44.5 8.5t-33.5 32.5
q-18 33 -10.5 53t21.5 25.5t24 -5t-3 -38.5q-4 -8 -2 -17t7.5 -16.5t14 -12t17.5 -4.5q17 1 29.5 4.5t23.5 13.5z" />
    <glyph glyph-name="afii10074_afii10078" unicode="&#x438;&#x43c;" horiz-adv-x="949" 
d="M398 344q-11 -9 -19 -16.5t-15.5 -18t-15.5 -26t-19 -38.5q-11 -21 -21.5 -43.5t-20 -44t-16.5 -40t-9 -31.5q-7 -32 0.5 -45.5t18.5 -14.5q23 0 45.5 23.5t45.5 62.5q8 12 15.5 8.5t-0.5 -17.5q-11 -19 -24 -37t-27.5 -32.5t-31.5 -23.5t-35 -9q-17 0 -30 8.5t-19.5 25
t-6.5 40.5t10 54q-13 -23 -28.5 -45.5t-33 -41t-36.5 -30t-37 -11.5q-8 0 -17.5 1.5t-18.5 6.5t-16.5 14t-10.5 23q-3 16 -1 31t7.5 29.5t13 28t14.5 27.5q-5 0 -9.5 3t0.5 13q5 8 9 17t9 18l30 58t26 52q6 12 15.5 16.5t23.5 4.5h61q-9 -6 -16 -12.5t-14.5 -15.5t-15.5 -22
t-18 -34q-14 -26 -25 -50q-11 -21 -21 -43t-17 -36q-18 -39 -20 -65t7.5 -36.5t28.5 -3t43 35.5q21 24 41.5 57t39.5 68.5t36.5 70.5t31.5 65q6 12 15.5 16.5t23.5 4.5h54zM649 1q-17 1 -30 9.5t-19.5 25t-6.5 40t10 53.5q7 22 17 47t21.5 50.5t23 50.5t20.5 46
q6 12 15.5 16.5t23.5 4.5h54q-11 -9 -19 -16.5t-15.5 -18t-15.5 -26t-19 -38.5q-11 -21 -21.5 -43.5t-20 -44t-16.5 -40t-9 -31.5q-7 -32 0.5 -45t18.5 -15q20 -3 39.5 15t37.5 47.5t34.5 66t31.5 71t28.5 61.5t25.5 38q8 8 16 12t19 5.5t25.5 1.5h36.5q4 0 1 -2.5t-9 -5.5
t-14.5 -5.5t-14.5 -2.5q-29 1 -40.5 -11.5t-25.5 -35.5q-11 -19 -22.5 -47.5t-25 -60t-29.5 -63t-35 -56t-41.5 -39.5t-49.5 -14zM488 45q20 17 36.5 41.5t31 52.5t27 57t23.5 54.5t21 45t21 29.5q8 8 16 12t19 5.5t25.5 1.5h36.5q4 0 1 -2.5t-9 -5.5t-14.5 -5.5t-14.5 -2.5
q-29 1 -41 -11.5t-25 -35.5q-16 -29 -34.5 -76t-42 -92.5t-53 -78.5t-68.5 -33q-24 0 -44.5 8.5t-33.5 32.5q-18 33 -10.5 53t21.5 25.5t24 -5t-3 -38.5q-4 -8 -2 -17t7.5 -16.5t14 -12t17.5 -4.5q17 1 29.5 4.5t23.5 13.5zM896 323q6 12 15.5 16.5t23.5 4.5h54
q-11 -9 -19 -16.5t-15.5 -18t-15.5 -26t-19 -38.5q-11 -21 -21.5 -43.5t-20 -44t-16.5 -40t-9 -31.5q-7 -32 0.5 -45.5t18.5 -14.5q18 0 36.5 16t35.5 40.5t32.5 54t28.5 56.5q6 13 13.5 9.5t0.5 -18.5q-12 -26 -28 -57.5t-36 -59.5t-44 -47t-51 -19q-17 0 -30 8.5t-19.5 25
t-6.5 40.5t10 54q7 22 17 47t21.5 50.5t23 50.5t20.5 46z" />
    <glyph glyph-name="afii10074_afii10097" unicode="&#x438;&#x44f;" horiz-adv-x="738" 
d="M398 344q-11 -9 -19 -16.5t-15.5 -18t-15.5 -26t-19 -38.5q-11 -21 -21.5 -43.5t-20 -44t-16.5 -40t-9 -31.5q-7 -32 0.5 -45.5t18.5 -14.5q23 0 45.5 23.5t45.5 62.5q8 12 15.5 8.5t-0.5 -17.5q-11 -19 -24 -37t-27.5 -32.5t-31.5 -23.5t-35 -9q-17 0 -30 8.5t-19.5 25
t-6.5 40.5t10 54q-13 -23 -28.5 -45.5t-33 -41t-36.5 -30t-37 -11.5q-8 0 -17.5 1.5t-18.5 6.5t-16.5 14t-10.5 23q-3 16 -1 31t7.5 29.5t13 28t14.5 27.5q-5 0 -9.5 3t0.5 13q5 8 9 17t9 18l30 58t26 52q6 12 15.5 16.5t23.5 4.5h61q-9 -6 -16 -12.5t-14.5 -15.5t-15.5 -22
t-18 -34q-14 -26 -25 -50q-11 -21 -21 -43t-17 -36q-18 -39 -20 -65t7.5 -36.5t28.5 -3t43 35.5q21 24 41.5 57t39.5 68.5t36.5 70.5t31.5 65q6 12 15.5 16.5t23.5 4.5h54zM662 144q-7 -14 -14.5 -34.5t-10.5 -40t1.5 -33.5t22.5 -14q19 0 39.5 21t38.5 49t32.5 56.5
t22.5 44.5q6 13 13.5 9.5t0.5 -18.5q-11 -23 -27.5 -55t-37.5 -61.5t-46 -50.5t-54 -21q-12 0 -23.5 6.5t-21.5 20.5q-8 13 -10.5 39t6.5 49q12 25 21.5 44.5t19 37.5t20 37t23.5 43q10 18 16.5 30.5t13 20t14 10.5t19.5 2q10 -1 20.5 -3.5t21.5 -0.5q-11 -6 -26.5 -26
t-32 -47t-33 -57.5t-29.5 -57.5zM524 229q4 18 12.5 36.5t20.5 34.5t27.5 28t33.5 17q27 8 47 4t30 -18t9.5 -38t-15.5 -55q-22 -27 -36 -41q-12 -12 -18 -14t7 22t23 46t13 39t-3 27.5t-25 11.5q-14 1 -27.5 -5.5t-23.5 -20.5q-11 -15 -23.5 -35t-18.5 -37q-4 -10 -5 -24
t4 -25.5t19.5 -18t42.5 -2.5q14 2 14 -5.5t-20 -9.5q-33 -4 -52 3.5t-28 20.5t-10 29t2 30zM602 148q-16 -29 -32.5 -56.5t-35.5 -48.5t-40 -34t-45 -13q-58 0 -80 41q-13 24 -13.5 41.5t6 28t16.5 14t17.5 0t10 -14.5t-6.5 -29q-4 -9 -2 -18.5t7.5 -17.5t14 -13.5
t19.5 -5.5q17 -1 29.5 3.5t23.5 14.5q23 20 44.5 49t39.5 61q2 2 14 0q5 -1 13 -2z" />
    <glyph glyph-name="afii10075_afii10077" unicode="&#x439;&#x43b;" horiz-adv-x="756" 
d="M391 527q7 8 15.5 7.5t6.5 -8.5q-18 -40 -54.5 -63t-84.5 -23q-13 0 -27.5 3t-27.5 9.5t-22.5 16.5t-11.5 24q-5 26 1 35.5t14 9.5q4 0 6 -4t4.5 -10t5.5 -12.5t9 -12.5q16 -15 31.5 -20t37.5 -5q21 0 35.5 4t25 11t19 16.5t17.5 21.5zM398 344q-11 -9 -19 -16.5
t-15.5 -18t-15.5 -26t-19 -38.5q-11 -21 -21.5 -43.5t-20 -44t-16.5 -40t-9 -31.5q-7 -32 0.5 -45.5t18.5 -14.5q23 0 45.5 23.5t45.5 62.5q8 12 15.5 8.5t-0.5 -17.5q-11 -19 -24 -37t-27.5 -32.5t-31.5 -23.5t-35 -9q-17 0 -30 8.5t-19.5 25t-6.5 40.5t10 54
q-13 -23 -28.5 -45.5t-33 -41t-36.5 -30t-37 -11.5q-8 0 -17.5 1.5t-18.5 6.5t-16.5 14t-10.5 23q-3 16 -1 31t7.5 29.5t13 28t14.5 27.5q-5 0 -9.5 3t0.5 13q5 8 9 17t9 18l30 58t26 52q6 12 15.5 16.5t23.5 4.5h61q-9 -6 -16 -12.5t-14.5 -15.5t-15.5 -22t-18 -34
q-14 -26 -25 -50q-11 -21 -21 -43t-17 -36q-18 -39 -20 -65t7.5 -36.5t28.5 -3t43 35.5q21 24 41.5 57t39.5 68.5t36.5 70.5t31.5 65q6 12 15.5 16.5t23.5 4.5h54zM703 323q6 12 15.5 16.5t23.5 4.5h54q-11 -9 -19 -16.5t-15.5 -18t-15.5 -26t-19 -38.5q-11 -21 -21.5 -43.5
t-20 -44t-16.5 -40t-9 -31.5q-7 -32 0.5 -45.5t18.5 -14.5q18 0 36.5 16t35.5 40.5t32.5 54t28.5 56.5q6 13 13.5 9.5t0.5 -18.5q-12 -26 -28 -57.5t-36 -59.5t-44 -47t-51 -19q-17 0 -30 8.5t-19.5 25t-6.5 40.5t10 54q7 22 17 47t21.5 50.5t23 50.5t20.5 46zM488 45
q20 17 36.5 41.5t31 52.5t27 57t23.5 54.5t21 45t21 29.5q8 8 16 12t19 5.5t25.5 1.5h36.5q4 0 1 -2.5t-9 -5.5t-14.5 -5.5t-14.5 -2.5q-29 1 -41 -11.5t-25 -35.5q-16 -29 -34.5 -76t-42 -92.5t-53 -78.5t-68.5 -33q-24 0 -44.5 8.5t-33.5 32.5q-18 33 -10.5 53t21.5 25.5
t24 -5t-3 -38.5q-4 -8 -2 -17t7.5 -16.5t14 -12t17.5 -4.5q17 1 29.5 4.5t23.5 13.5z" />
    <glyph glyph-name="afii10075_afii10078" unicode="&#x439;&#x43c;" horiz-adv-x="949" 
d="M398 344q-11 -9 -19 -16.5t-15.5 -18t-15.5 -26t-19 -38.5q-11 -21 -21.5 -43.5t-20 -44t-16.5 -40t-9 -31.5q-7 -32 0.5 -45.5t18.5 -14.5q23 0 45.5 23.5t45.5 62.5q8 12 15.5 8.5t-0.5 -17.5q-11 -19 -24 -37t-27.5 -32.5t-31.5 -23.5t-35 -9q-17 0 -30 8.5t-19.5 25
t-6.5 40.5t10 54q-13 -23 -28.5 -45.5t-33 -41t-36.5 -30t-37 -11.5q-8 0 -17.5 1.5t-18.5 6.5t-16.5 14t-10.5 23q-3 16 -1 31t7.5 29.5t13 28t14.5 27.5q-5 0 -9.5 3t0.5 13q5 8 9 17t9 18l30 58t26 52q6 12 15.5 16.5t23.5 4.5h61q-9 -6 -16 -12.5t-14.5 -15.5t-15.5 -22
t-18 -34q-14 -26 -25 -50q-11 -21 -21 -43t-17 -36q-18 -39 -20 -65t7.5 -36.5t28.5 -3t43 35.5q21 24 41.5 57t39.5 68.5t36.5 70.5t31.5 65q6 12 15.5 16.5t23.5 4.5h54zM391 527q7 8 15.5 7.5t6.5 -8.5q-18 -40 -54.5 -63t-84.5 -23q-13 0 -27.5 3t-27.5 9.5t-22.5 16.5
t-11.5 24q-5 26 1 35.5t14 9.5q4 0 6 -4t4.5 -10t5.5 -12.5t9 -12.5q16 -15 31.5 -20t37.5 -5q21 0 35.5 4t25 11t19 16.5t17.5 21.5zM649 1q-17 1 -30 9.5t-19.5 25t-6.5 40t10 53.5q7 22 17 47t21.5 50.5t23 50.5t20.5 46q6 12 15.5 16.5t23.5 4.5h54q-11 -9 -19 -16.5
t-15.5 -18t-15.5 -26t-19 -38.5q-11 -21 -21.5 -43.5t-20 -44t-16.5 -40t-9 -31.5q-7 -32 0.5 -45t18.5 -15q20 -3 39.5 15t37.5 47.5t34.5 66t31.5 71t28.5 61.5t25.5 38q8 8 16 12t19 5.5t25.5 1.5h36.5q4 0 1 -2.5t-9 -5.5t-14.5 -5.5t-14.5 -2.5q-29 1 -40.5 -11.5
t-25.5 -35.5q-11 -19 -22.5 -47.5t-25 -60t-29.5 -63t-35 -56t-41.5 -39.5t-49.5 -14zM488 45q20 17 36.5 41.5t31 52.5t27 57t23.5 54.5t21 45t21 29.5q8 8 16 12t19 5.5t25.5 1.5h36.5q4 0 1 -2.5t-9 -5.5t-14.5 -5.5t-14.5 -2.5q-29 1 -41 -11.5t-25 -35.5
q-16 -29 -34.5 -76t-42 -92.5t-53 -78.5t-68.5 -33q-24 0 -44.5 8.5t-33.5 32.5q-18 33 -10.5 53t21.5 25.5t24 -5t-3 -38.5q-4 -8 -2 -17t7.5 -16.5t14 -12t17.5 -4.5q17 1 29.5 4.5t23.5 13.5zM896 323q6 12 15.5 16.5t23.5 4.5h54q-11 -9 -19 -16.5t-15.5 -18t-15.5 -26
t-19 -38.5q-11 -21 -21.5 -43.5t-20 -44t-16.5 -40t-9 -31.5q-7 -32 0.5 -45.5t18.5 -14.5q18 0 36.5 16t35.5 40.5t32.5 54t28.5 56.5q6 13 13.5 9.5t0.5 -18.5q-12 -26 -28 -57.5t-36 -59.5t-44 -47t-51 -19q-17 0 -30 8.5t-19.5 25t-6.5 40.5t10 54q7 22 17 47t21.5 50.5
t23 50.5t20.5 46z" />
    <glyph glyph-name="afii10075_afii10097" unicode="&#x439;&#x44f;" horiz-adv-x="738" 
d="M398 344q-11 -9 -19 -16.5t-15.5 -18t-15.5 -26t-19 -38.5q-11 -21 -21.5 -43.5t-20 -44t-16.5 -40t-9 -31.5q-7 -32 0.5 -45.5t18.5 -14.5q23 0 45.5 23.5t45.5 62.5q8 12 15.5 8.5t-0.5 -17.5q-11 -19 -24 -37t-27.5 -32.5t-31.5 -23.5t-35 -9q-17 0 -30 8.5t-19.5 25
t-6.5 40.5t10 54q-13 -23 -28.5 -45.5t-33 -41t-36.5 -30t-37 -11.5q-8 0 -17.5 1.5t-18.5 6.5t-16.5 14t-10.5 23q-3 16 -1 31t7.5 29.5t13 28t14.5 27.5q-5 0 -9.5 3t0.5 13q5 8 9 17t9 18l30 58t26 52q6 12 15.5 16.5t23.5 4.5h61q-9 -6 -16 -12.5t-14.5 -15.5t-15.5 -22
t-18 -34q-14 -26 -25 -50q-11 -21 -21 -43t-17 -36q-18 -39 -20 -65t7.5 -36.5t28.5 -3t43 35.5q21 24 41.5 57t39.5 68.5t36.5 70.5t31.5 65q6 12 15.5 16.5t23.5 4.5h54zM391 527q7 8 15.5 7.5t6.5 -8.5q-18 -40 -54.5 -63t-84.5 -23q-13 0 -27.5 3t-27.5 9.5t-22.5 16.5
t-11.5 24q-5 26 1 35.5t14 9.5q4 0 6 -4t4.5 -10t5.5 -12.5t9 -12.5q16 -15 31.5 -20t37.5 -5q21 0 35.5 4t25 11t19 16.5t17.5 21.5zM662 144q-7 -14 -14.5 -34.5t-10.5 -40t1.5 -33.5t22.5 -14q19 0 39.5 21t38.5 49t32.5 56.5t22.5 44.5q6 13 13.5 9.5t0.5 -18.5
q-11 -23 -27.5 -55t-37.5 -61.5t-46 -50.5t-54 -21q-12 0 -23.5 6.5t-21.5 20.5q-8 13 -10.5 39t6.5 49q12 25 21.5 44.5t19 37.5t20 37t23.5 43q10 18 16.5 30.5t13 20t14 10.5t19.5 2q10 -1 20.5 -3.5t21.5 -0.5q-11 -6 -26.5 -26t-32 -47t-33 -57.5t-29.5 -57.5zM524 229
q4 18 12.5 36.5t20.5 34.5t27.5 28t33.5 17q27 8 47 4t30 -18t9.5 -38t-15.5 -55q-22 -27 -36 -41q-12 -12 -18 -14t7 22t23 46t13 39t-3 27.5t-25 11.5q-14 1 -27.5 -5.5t-23.5 -20.5q-11 -15 -23.5 -35t-18.5 -37q-4 -10 -5 -24t4 -25.5t19.5 -18t42.5 -2.5q14 2 14 -5.5
t-20 -9.5q-33 -4 -52 3.5t-28 20.5t-10 29t2 30zM602 148q-16 -29 -32.5 -56.5t-35.5 -48.5t-40 -34t-45 -13q-58 0 -80 41q-13 24 -13.5 41.5t6 28t16.5 14t17.5 0t10 -14.5t-6.5 -29q-4 -9 -2 -18.5t7.5 -17.5t14 -13.5t19.5 -5.5q17 -1 29.5 3.5t23.5 14.5q23 20 44.5 49
t39.5 61q2 2 14 0q5 -1 13 -2z" />
    <glyph glyph-name="afii10076_afii10077" unicode="&#x43a;&#x43b;" horiz-adv-x="744" 
d="M115 194q16 20 35.5 42t41.5 42t45 36.5t46 25.5q39 14 62 11t31 -17q4 -12 2 -23t-8.5 -19t-16.5 -11.5t-21 -0.5q-1 10 -11.5 16.5t-28.5 5.5t-42.5 -11t-51.5 -31q-23 -67 -19.5 -119.5t24.5 -81.5t53 -30.5t66 34.5q11 12 18.5 23.5t14.5 22.5t14 5.5t0 -16.5
q-22 -38 -43 -58.5t-40.5 -30t-37 -11t-31.5 0.5q-14 1 -28.5 6.5t-27.5 17t-23.5 28.5t-14.5 43q-5 32 -4.5 53t3.5 35q-13 -17 -26.5 -36t-23.5 -39q-6 -12 -14.5 -32t-24.5 -57q-6 -11 -14 -13t-24 -2q-11 -1 -18.5 -1t-15.5 -5q36 72 68.5 142t69.5 138q19 36 33 50
t38 13q10 -1 20.5 -3.5t21.5 -0.5q-9 -5 -20.5 -19t-24.5 -33.5t-26.5 -42.5t-25.5 -47zM691 323q6 12 15.5 16.5t23.5 4.5h54q-11 -9 -19 -16.5t-15.5 -18t-15.5 -26t-19 -38.5q-11 -21 -21.5 -43.5t-20 -44t-16.5 -40t-9 -31.5q-7 -32 0.5 -45.5t18.5 -14.5q18 0 36.5 16
t35.5 40.5t32.5 54t28.5 56.5q6 13 13.5 9.5t0.5 -18.5q-12 -26 -28 -57.5t-36 -59.5t-44 -47t-51 -19q-17 0 -30 8.5t-19.5 25t-6.5 40.5t10 54q7 22 17 47t21.5 50.5t23 50.5t20.5 46zM476 45q20 17 36.5 41.5t31 52.5t27 57t23.5 54.5t21 45t21 29.5q8 8 16 12t19 5.5
t25.5 1.5h36.5q4 0 1 -2.5t-9 -5.5t-14.5 -5.5t-14.5 -2.5q-29 1 -41 -11.5t-25 -35.5q-16 -29 -34.5 -76t-42 -92.5t-53 -78.5t-68.5 -33q-24 0 -44.5 8.5t-33.5 32.5q-18 33 -10.5 53t21.5 25.5t24 -5t-3 -38.5q-4 -8 -2 -17t7.5 -16.5t14 -12t17.5 -4.5q17 1 29.5 4.5
t23.5 13.5z" />
    <glyph glyph-name="afii10076_afii10078" unicode="&#x43a;&#x43c;" horiz-adv-x="937" 
d="M115 194q16 20 35.5 42t41.5 42t45 36.5t46 25.5q39 14 62 11t31 -17q4 -12 2 -23t-8.5 -19t-16.5 -11.5t-21 -0.5q-1 10 -11.5 16.5t-28.5 5.5t-42.5 -11t-51.5 -31q-23 -67 -19.5 -119.5t24.5 -81.5t53 -30.5t66 34.5q11 12 18.5 23.5t14.5 22.5t14 5.5t0 -16.5
q-22 -38 -43 -58.5t-40.5 -30t-37 -11t-31.5 0.5q-14 1 -28.5 6.5t-27.5 17t-23.5 28.5t-14.5 43q-5 32 -4.5 53t3.5 35q-13 -17 -26.5 -36t-23.5 -39q-6 -12 -14.5 -32t-24.5 -57q-6 -11 -14 -13t-24 -2q-11 -1 -18.5 -1t-15.5 -5q36 72 68.5 142t69.5 138q19 36 33 50
t38 13q10 -1 20.5 -3.5t21.5 -0.5q-9 -5 -20.5 -19t-24.5 -33.5t-26.5 -42.5t-25.5 -47zM637 1q-17 1 -30 9.5t-19.5 25t-6.5 40t10 53.5q7 22 17 47t21.5 50.5t23 50.5t20.5 46q6 12 15.5 16.5t23.5 4.5h54q-11 -9 -19 -16.5t-15.5 -18t-15.5 -26t-19 -38.5
q-11 -21 -21.5 -43.5t-20 -44t-16.5 -40t-9 -31.5q-7 -32 0.5 -45t18.5 -15q20 -3 39.5 15t37.5 47.5t34.5 66t31.5 71t28.5 61.5t25.5 38q8 8 16 12t19 5.5t25.5 1.5h36.5q4 0 1 -2.5t-9 -5.5t-14.5 -5.5t-14.5 -2.5q-29 1 -40.5 -11.5t-25.5 -35.5q-11 -19 -22.5 -47.5
t-25 -60t-29.5 -63t-35 -56t-41.5 -39.5t-49.5 -14zM476 45q20 17 36.5 41.5t31 52.5t27 57t23.5 54.5t21 45t21 29.5q8 8 16 12t19 5.5t25.5 1.5h36.5q4 0 1 -2.5t-9 -5.5t-14.5 -5.5t-14.5 -2.5q-29 1 -41 -11.5t-25 -35.5q-16 -29 -34.5 -76t-42 -92.5t-53 -78.5
t-68.5 -33q-24 0 -44.5 8.5t-33.5 32.5q-18 33 -10.5 53t21.5 25.5t24 -5t-3 -38.5q-4 -8 -2 -17t7.5 -16.5t14 -12t17.5 -4.5q17 1 29.5 4.5t23.5 13.5zM884 323q6 12 15.5 16.5t23.5 4.5h54q-11 -9 -19 -16.5t-15.5 -18t-15.5 -26t-19 -38.5q-11 -21 -21.5 -43.5t-20 -44
t-16.5 -40t-9 -31.5q-7 -32 0.5 -45.5t18.5 -14.5q18 0 36.5 16t35.5 40.5t32.5 54t28.5 56.5q6 13 13.5 9.5t0.5 -18.5q-12 -26 -28 -57.5t-36 -59.5t-44 -47t-51 -19q-17 0 -30 8.5t-19.5 25t-6.5 40.5t10 54q7 22 17 47t21.5 50.5t23 50.5t20.5 46z" />
    <glyph glyph-name="afii10076_afii10097" unicode="&#x43a;&#x44f;" horiz-adv-x="712" 
d="M115 194q16 20 35.5 42t41.5 42t45 36.5t46 25.5q39 14 62 11t31 -17q4 -12 2 -23t-8.5 -19t-16.5 -11.5t-21 -0.5q-1 10 -11.5 16.5t-28.5 5.5t-42.5 -11t-51.5 -31q-23 -67 -19.5 -119.5t24.5 -81.5t53 -30.5t66 34.5q11 12 18.5 23.5t14.5 22.5t14 5.5t0 -16.5
q-22 -38 -43 -58.5t-40.5 -30t-37 -11t-31.5 0.5q-14 1 -28.5 6.5t-27.5 17t-23.5 28.5t-14.5 43q-5 32 -4.5 53t3.5 35q-13 -17 -26.5 -36t-23.5 -39q-6 -12 -14.5 -32t-24.5 -57q-6 -11 -14 -13t-24 -2q-11 -1 -18.5 -1t-15.5 -5q36 72 68.5 142t69.5 138q19 36 33 50
t38 13q10 -1 20.5 -3.5t21.5 -0.5q-9 -5 -20.5 -19t-24.5 -33.5t-26.5 -42.5t-25.5 -47zM636 144q-7 -14 -14.5 -34.5t-10.5 -40t1.5 -33.5t22.5 -14q19 0 39.5 21t38.5 49t32.5 56.5t22.5 44.5q6 13 13.5 9.5t0.5 -18.5q-11 -23 -27.5 -55t-37.5 -61.5t-46 -50.5t-54 -21
q-12 0 -23.5 6.5t-21.5 20.5q-8 13 -10.5 39t6.5 49q12 25 21.5 44.5t19 37.5t20 37t23.5 43q10 18 16.5 30.5t13 20t14 10.5t19.5 2q10 -1 20.5 -3.5t21.5 -0.5q-11 -6 -26.5 -26t-32 -47t-33 -57.5t-29.5 -57.5zM498 229q4 18 12.5 36.5t20.5 34.5t27.5 28t33.5 17
q27 8 47 4t30 -18t9.5 -38t-15.5 -55q-22 -27 -36 -41q-12 -12 -18 -14t7 22t23 46t13 39t-3 27.5t-25 11.5q-14 1 -27.5 -5.5t-23.5 -20.5q-11 -15 -23.5 -35t-18.5 -37q-4 -10 -5 -24t4 -25.5t19.5 -18t42.5 -2.5q14 2 14 -5.5t-20 -9.5q-33 -4 -52 3.5t-28 20.5t-10 29
t2 30zM576 148q-16 -29 -32.5 -56.5t-35.5 -48.5t-40 -34t-45 -13q-58 0 -80 41q-13 24 -13.5 41.5t6 28t16.5 14t17.5 0t10 -14.5t-6.5 -29q-4 -9 -2 -18.5t7.5 -17.5t14 -13.5t19.5 -5.5q17 -1 29.5 3.5t23.5 14.5q23 20 44.5 49t39.5 61q2 2 14 0q5 -1 13 -2z" />
    <glyph glyph-name="afii10077_afii10077" unicode="&#x43b;&#x43b;" horiz-adv-x="798" 
d="M131 45q20 17 36.5 41.5t31 52.5t27 57t23.5 54.5t21 45t21 29.5q8 8 16 12t19 5.5t25.5 1.5h36.5q4 0 1 -2.5t-9 -5.5t-14.5 -5.5t-14.5 -2.5q-29 1 -41 -11.5t-25 -35.5q-16 -29 -34.5 -76t-42 -92.5t-53 -78.5t-68.5 -33q-24 0 -44.5 8.5t-33.5 32.5q-18 33 -10.5 53
t21.5 25.5t24 -5t-3 -38.5q-4 -8 -2 -17t7.5 -16.5t14 -12t17.5 -4.5q17 1 29.5 4.5t23.5 13.5zM346 323q6 12 15.5 16.5t23.5 4.5h54q-11 -9 -19 -16.5t-15.5 -18t-15.5 -26t-19 -38.5q-11 -21 -21.5 -43.5t-20 -44t-16.5 -40t-9 -31.5q-7 -32 0.5 -45.5t18.5 -14.5
q38 0 90 84q8 13 15.5 9t-0.5 -18q-28 -48 -57 -74t-60 -26q-17 0 -30 8.5t-19.5 25t-6.5 40.5t10 54q7 22 17 47t21.5 50.5t23 50.5t20.5 46zM745 323q6 12 15.5 16.5t23.5 4.5h54q-11 -9 -19 -16.5t-15.5 -18t-15.5 -26t-19 -38.5q-11 -21 -21.5 -43.5t-20 -44t-16.5 -40
t-9 -31.5q-7 -32 0.5 -45.5t18.5 -14.5q18 0 36.5 16t35.5 40.5t32.5 54t28.5 56.5q6 13 13.5 9.5t0.5 -18.5q-12 -26 -28 -57.5t-36 -59.5t-44 -47t-51 -19q-17 0 -30 8.5t-19.5 25t-6.5 40.5t10 54q7 22 17 47t21.5 50.5t23 50.5t20.5 46zM530 45q20 17 36.5 41.5t31 52.5
t27 57t23.5 54.5t21 45t21 29.5q8 8 16 12t19 5.5t25.5 1.5h36.5q4 0 1 -2.5t-9 -5.5t-14.5 -5.5t-14.5 -2.5q-29 1 -41 -11.5t-25 -35.5q-16 -29 -34.5 -76t-42 -92.5t-53 -78.5t-68.5 -33q-24 0 -44.5 8.5t-33.5 32.5q-18 33 -10.5 53t21.5 25.5t24 -5t-3 -38.5
q-4 -8 -2 -17t7.5 -16.5t14 -12t17.5 -4.5q17 1 29.5 4.5t23.5 13.5z" />
    <glyph glyph-name="afii10077_afii10078" unicode="&#x43b;&#x43c;" horiz-adv-x="991" 
d="M131 45q20 17 36.5 41.5t31 52.5t27 57t23.5 54.5t21 45t21 29.5q8 8 16 12t19 5.5t25.5 1.5h36.5q4 0 1 -2.5t-9 -5.5t-14.5 -5.5t-14.5 -2.5q-29 1 -41 -11.5t-25 -35.5q-16 -29 -34.5 -76t-42 -92.5t-53 -78.5t-68.5 -33q-24 0 -44.5 8.5t-33.5 32.5q-18 33 -10.5 53
t21.5 25.5t24 -5t-3 -38.5q-4 -8 -2 -17t7.5 -16.5t14 -12t17.5 -4.5q17 1 29.5 4.5t23.5 13.5zM346 323q6 12 15.5 16.5t23.5 4.5h54q-11 -9 -19 -16.5t-15.5 -18t-15.5 -26t-19 -38.5q-11 -21 -21.5 -43.5t-20 -44t-16.5 -40t-9 -31.5q-7 -32 0.5 -45.5t18.5 -14.5
q38 0 90 84q8 13 15.5 9t-0.5 -18q-28 -48 -57 -74t-60 -26q-17 0 -30 8.5t-19.5 25t-6.5 40.5t10 54q7 22 17 47t21.5 50.5t23 50.5t20.5 46zM691 1q-17 1 -30 9.5t-19.5 25t-6.5 40t10 53.5q7 22 17 47t21.5 50.5t23 50.5t20.5 46q6 12 15.5 16.5t23.5 4.5h54
q-11 -9 -19 -16.5t-15.5 -18t-15.5 -26t-19 -38.5q-11 -21 -21.5 -43.5t-20 -44t-16.5 -40t-9 -31.5q-7 -32 0.5 -45t18.5 -15q20 -3 39.5 15t37.5 47.5t34.5 66t31.5 71t28.5 61.5t25.5 38q8 8 16 12t19 5.5t25.5 1.5h36.5q4 0 1 -2.5t-9 -5.5t-14.5 -5.5t-14.5 -2.5
q-29 1 -40.5 -11.5t-25.5 -35.5q-11 -19 -22.5 -47.5t-25 -60t-29.5 -63t-35 -56t-41.5 -39.5t-49.5 -14zM530 45q20 17 36.5 41.5t31 52.5t27 57t23.5 54.5t21 45t21 29.5q8 8 16 12t19 5.5t25.5 1.5h36.5q4 0 1 -2.5t-9 -5.5t-14.5 -5.5t-14.5 -2.5q-29 1 -41 -11.5
t-25 -35.5q-16 -29 -34.5 -76t-42 -92.5t-53 -78.5t-68.5 -33q-24 0 -44.5 8.5t-33.5 32.5q-18 33 -10.5 53t21.5 25.5t24 -5t-3 -38.5q-4 -8 -2 -17t7.5 -16.5t14 -12t17.5 -4.5q17 1 29.5 4.5t23.5 13.5zM938 323q6 12 15.5 16.5t23.5 4.5h54q-11 -9 -19 -16.5t-15.5 -18
t-15.5 -26t-19 -38.5q-11 -21 -21.5 -43.5t-20 -44t-16.5 -40t-9 -31.5q-7 -32 0.5 -45.5t18.5 -14.5q18 0 36.5 16t35.5 40.5t32.5 54t28.5 56.5q6 13 13.5 9.5t0.5 -18.5q-12 -26 -28 -57.5t-36 -59.5t-44 -47t-51 -19q-17 0 -30 8.5t-19.5 25t-6.5 40.5t10 54q7 22 17 47
t21.5 50.5t23 50.5t20.5 46z" />
    <glyph glyph-name="afii10077_afii10097" unicode="&#x43b;&#x44f;" horiz-adv-x="779" 
d="M131 45q20 17 36.5 41.5t31 52.5t27 57t23.5 54.5t21 45t21 29.5q8 8 16 12t19 5.5t25.5 1.5h36.5q4 0 1 -2.5t-9 -5.5t-14.5 -5.5t-14.5 -2.5q-29 1 -41 -11.5t-25 -35.5q-16 -29 -34.5 -76t-42 -92.5t-53 -78.5t-68.5 -33q-24 0 -44.5 8.5t-33.5 32.5q-18 33 -10.5 53
t21.5 25.5t24 -5t-3 -38.5q-4 -8 -2 -17t7.5 -16.5t14 -12t17.5 -4.5q17 1 29.5 4.5t23.5 13.5zM346 323q6 12 15.5 16.5t23.5 4.5h54q-11 -9 -19 -16.5t-15.5 -18t-15.5 -26t-19 -38.5q-11 -21 -21.5 -43.5t-20 -44t-16.5 -40t-9 -31.5q-7 -32 0.5 -45.5t18.5 -14.5
q38 0 90 84q8 13 15.5 9t-0.5 -18q-28 -48 -57 -74t-60 -26q-17 0 -30 8.5t-19.5 25t-6.5 40.5t10 54q7 22 17 47t21.5 50.5t23 50.5t20.5 46zM703 144q-7 -14 -14.5 -34.5t-10.5 -40t1.5 -33.5t22.5 -14q19 0 39.5 21t38.5 49t32.5 56.5t22.5 44.5q6 13 13.5 9.5t0.5 -18.5
q-11 -23 -27.5 -55t-37.5 -61.5t-46 -50.5t-54 -21q-12 0 -23.5 6.5t-21.5 20.5q-8 13 -10.5 39t6.5 49q12 25 21.5 44.5t19 37.5t20 37t23.5 43q10 18 16.5 30.5t13 20t14 10.5t19.5 2q10 -1 20.5 -3.5t21.5 -0.5q-11 -6 -26.5 -26t-32 -47t-33 -57.5t-29.5 -57.5zM565 229
q4 18 12.5 36.5t20.5 34.5t27.5 28t33.5 17q27 8 47 4t30 -18t9.5 -38t-15.5 -55q-22 -27 -36 -41q-12 -12 -18 -14t7 22t23 46t13 39t-3 27.5t-25 11.5q-14 1 -27.5 -5.5t-23.5 -20.5q-11 -15 -23.5 -35t-18.5 -37q-4 -10 -5 -24t4 -25.5t19.5 -18t42.5 -2.5q14 2 14 -5.5
t-20 -9.5q-33 -4 -52 3.5t-28 20.5t-10 29t2 30zM643 148q-16 -29 -32.5 -56.5t-35.5 -48.5t-40 -34t-45 -13q-58 0 -80 41q-13 24 -13.5 41.5t6 28t16.5 14t17.5 0t10 -14.5t-6.5 -29q-4 -9 -2 -18.5t7.5 -17.5t14 -13.5t19.5 -5.5q17 -1 29.5 3.5t23.5 14.5q23 20 44.5 49
t39.5 61q2 2 14 0q5 -1 13 -2z" />
    <glyph glyph-name="afii10078_afii10077" unicode="&#x43c;&#x43b;" horiz-adv-x="991" 
d="M292 1q-17 1 -30 9.5t-19.5 25t-6.5 40t10 53.5q7 22 17 47t21.5 50.5t23 50.5t20.5 46q6 12 15.5 16.5t23.5 4.5h54q-11 -9 -19 -16.5t-15.5 -18t-15.5 -26t-19 -38.5q-11 -21 -21.5 -43.5t-20 -44t-16.5 -40t-9 -31.5q-7 -32 0.5 -45t18.5 -15q20 -3 39.5 15t37.5 47.5
t34.5 66t31.5 71t28.5 61.5t25.5 38q8 8 16 12t19 5.5t25.5 1.5h36.5q4 0 1 -2.5t-9 -5.5t-14.5 -5.5t-14.5 -2.5q-29 1 -40.5 -11.5t-25.5 -35.5q-11 -19 -22.5 -47.5t-25 -60t-29.5 -63t-35 -56t-41.5 -39.5t-49.5 -14zM131 45q20 17 36.5 41.5t31 52.5t27 57t23.5 54.5
t21 45t21 29.5q8 8 16 12t19 5.5t25.5 1.5h36.5q4 0 1 -2.5t-9 -5.5t-14.5 -5.5t-14.5 -2.5q-29 1 -41 -11.5t-25 -35.5q-16 -29 -34.5 -76t-42 -92.5t-53 -78.5t-68.5 -33q-24 0 -44.5 8.5t-33.5 32.5q-18 33 -10.5 53t21.5 25.5t24 -5t-3 -38.5q-4 -8 -2 -17t7.5 -16.5
t14 -12t17.5 -4.5q17 1 29.5 4.5t23.5 13.5zM539 323q6 12 15.5 16.5t23.5 4.5h54q-11 -9 -19 -16.5t-15.5 -18t-15.5 -26t-19 -38.5q-11 -21 -21.5 -43.5t-20 -44t-16.5 -40t-9 -31.5q-7 -32 0.5 -45.5t18.5 -14.5q18 -1 40.5 19.5t48.5 63.5q8 13 15.5 9.5t-0.5 -18.5
q-57 -99 -116 -99q-17 0 -30 8.5t-19.5 25t-6.5 40.5t10 54q7 22 17 47t21.5 50.5t23 50.5t20.5 46zM938 323q6 12 15.5 16.5t23.5 4.5h54q-11 -9 -19 -16.5t-15.5 -18t-15.5 -26t-19 -38.5q-11 -21 -21.5 -43.5t-20 -44t-16.5 -40t-9 -31.5q-7 -32 0.5 -45.5t18.5 -14.5
q18 0 36.5 16t35.5 40.5t32.5 54t28.5 56.5q6 13 13.5 9.5t0.5 -18.5q-12 -26 -28 -57.5t-36 -59.5t-44 -47t-51 -19q-17 0 -30 8.5t-19.5 25t-6.5 40.5t10 54q7 22 17 47t21.5 50.5t23 50.5t20.5 46zM723 45q20 17 36.5 41.5t31 52.5t27 57t23.5 54.5t21 45t21 29.5
q8 8 16 12t19 5.5t25.5 1.5h36.5q4 0 1 -2.5t-9 -5.5t-14.5 -5.5t-14.5 -2.5q-29 1 -41 -11.5t-25 -35.5q-16 -29 -34.5 -76t-42 -92.5t-53 -78.5t-68.5 -33q-24 0 -44.5 8.5t-33.5 32.5q-18 33 -10.5 53t21.5 25.5t24 -5t-3 -38.5q-4 -8 -2 -17t7.5 -16.5t14 -12t17.5 -4.5
q17 1 29.5 4.5t23.5 13.5z" />
    <glyph glyph-name="afii10078_afii10078" unicode="&#x43c;&#x43c;" horiz-adv-x="1184" 
d="M292 1q-17 1 -30 9.5t-19.5 25t-6.5 40t10 53.5q7 22 17 47t21.5 50.5t23 50.5t20.5 46q6 12 15.5 16.5t23.5 4.5h54q-11 -9 -19 -16.5t-15.5 -18t-15.5 -26t-19 -38.5q-11 -21 -21.5 -43.5t-20 -44t-16.5 -40t-9 -31.5q-7 -32 0.5 -45t18.5 -15q20 -3 39.5 15t37.5 47.5
t34.5 66t31.5 71t28.5 61.5t25.5 38q8 8 16 12t19 5.5t25.5 1.5h36.5q4 0 1 -2.5t-9 -5.5t-14.5 -5.5t-14.5 -2.5q-29 1 -40.5 -11.5t-25.5 -35.5q-11 -19 -22.5 -47.5t-25 -60t-29.5 -63t-35 -56t-41.5 -39.5t-49.5 -14zM131 45q20 17 36.5 41.5t31 52.5t27 57t23.5 54.5
t21 45t21 29.5q8 8 16 12t19 5.5t25.5 1.5h36.5q4 0 1 -2.5t-9 -5.5t-14.5 -5.5t-14.5 -2.5q-29 1 -41 -11.5t-25 -35.5q-16 -29 -34.5 -76t-42 -92.5t-53 -78.5t-68.5 -33q-24 0 -44.5 8.5t-33.5 32.5q-18 33 -10.5 53t21.5 25.5t24 -5t-3 -38.5q-4 -8 -2 -17t7.5 -16.5
t14 -12t17.5 -4.5q17 1 29.5 4.5t23.5 13.5zM539 323q6 12 15.5 16.5t23.5 4.5h54q-11 -9 -19 -16.5t-15.5 -18t-15.5 -26t-19 -38.5q-11 -21 -21.5 -43.5t-20 -44t-16.5 -40t-9 -31.5q-7 -32 0.5 -45.5t18.5 -14.5q18 -1 40.5 19.5t48.5 63.5q8 13 15.5 9.5t-0.5 -18.5
q-57 -99 -116 -99q-17 0 -30 8.5t-19.5 25t-6.5 40.5t10 54q7 22 17 47t21.5 50.5t23 50.5t20.5 46zM884 1q-17 1 -30 9.5t-19.5 25t-6.5 40t10 53.5q7 22 17 47t21.5 50.5t23 50.5t20.5 46q6 12 15.5 16.5t23.5 4.5h54q-11 -9 -19 -16.5t-15.5 -18t-15.5 -26t-19 -38.5
q-11 -21 -21.5 -43.5t-20 -44t-16.5 -40t-9 -31.5q-7 -32 0.5 -45t18.5 -15q20 -3 39.5 15t37.5 47.5t34.5 66t31.5 71t28.5 61.5t25.5 38q8 8 16 12t19 5.5t25.5 1.5h36.5q4 0 1 -2.5t-9 -5.5t-14.5 -5.5t-14.5 -2.5q-29 1 -40.5 -11.5t-25.5 -35.5q-11 -19 -22.5 -47.5
t-25 -60t-29.5 -63t-35 -56t-41.5 -39.5t-49.5 -14zM723 45q20 17 36.5 41.5t31 52.5t27 57t23.5 54.5t21 45t21 29.5q8 8 16 12t19 5.5t25.5 1.5h36.5q4 0 1 -2.5t-9 -5.5t-14.5 -5.5t-14.5 -2.5q-29 1 -41 -11.5t-25 -35.5q-16 -29 -34.5 -76t-42 -92.5t-53 -78.5
t-68.5 -33q-24 0 -44.5 8.5t-33.5 32.5q-18 33 -10.5 53t21.5 25.5t24 -5t-3 -38.5q-4 -8 -2 -17t7.5 -16.5t14 -12t17.5 -4.5q17 1 29.5 4.5t23.5 13.5zM1131 323q6 12 15.5 16.5t23.5 4.5h54q-11 -9 -19 -16.5t-15.5 -18t-15.5 -26t-19 -38.5q-11 -21 -21.5 -43.5t-20 -44
t-16.5 -40t-9 -31.5q-7 -32 0.5 -45.5t18.5 -14.5q18 0 36.5 16t35.5 40.5t32.5 54t28.5 56.5q6 13 13.5 9.5t0.5 -18.5q-12 -26 -28 -57.5t-36 -59.5t-44 -47t-51 -19q-17 0 -30 8.5t-19.5 25t-6.5 40.5t10 54q7 22 17 47t21.5 50.5t23 50.5t20.5 46z" />
    <glyph glyph-name="afii10078_afii10097" unicode="&#x43c;&#x44f;" horiz-adv-x="971" 
d="M292 1q-17 1 -30 9.5t-19.5 25t-6.5 40t10 53.5q7 22 17 47t21.5 50.5t23 50.5t20.5 46q6 12 15.5 16.5t23.5 4.5h54q-11 -9 -19 -16.5t-15.5 -18t-15.5 -26t-19 -38.5q-11 -21 -21.5 -43.5t-20 -44t-16.5 -40t-9 -31.5q-7 -32 0.5 -45t18.5 -15q20 -3 39.5 15t37.5 47.5
t34.5 66t31.5 71t28.5 61.5t25.5 38q8 8 16 12t19 5.5t25.5 1.5h36.5q4 0 1 -2.5t-9 -5.5t-14.5 -5.5t-14.5 -2.5q-29 1 -40.5 -11.5t-25.5 -35.5q-11 -19 -22.5 -47.5t-25 -60t-29.5 -63t-35 -56t-41.5 -39.5t-49.5 -14zM131 45q20 17 36.5 41.5t31 52.5t27 57t23.5 54.5
t21 45t21 29.5q8 8 16 12t19 5.5t25.5 1.5h36.5q4 0 1 -2.5t-9 -5.5t-14.5 -5.5t-14.5 -2.5q-29 1 -41 -11.5t-25 -35.5q-16 -29 -34.5 -76t-42 -92.5t-53 -78.5t-68.5 -33q-24 0 -44.5 8.5t-33.5 32.5q-18 33 -10.5 53t21.5 25.5t24 -5t-3 -38.5q-4 -8 -2 -17t7.5 -16.5
t14 -12t17.5 -4.5q17 1 29.5 4.5t23.5 13.5zM539 323q6 12 15.5 16.5t23.5 4.5h54q-11 -9 -19 -16.5t-15.5 -18t-15.5 -26t-19 -38.5q-11 -21 -21.5 -43.5t-20 -44t-16.5 -40t-9 -31.5q-7 -32 0.5 -45.5t18.5 -14.5q18 -1 40.5 19.5t48.5 63.5q8 13 15.5 9.5t-0.5 -18.5
q-57 -99 -116 -99q-17 0 -30 8.5t-19.5 25t-6.5 40.5t10 54q7 22 17 47t21.5 50.5t23 50.5t20.5 46zM895 144q-7 -14 -14.5 -34.5t-10.5 -40t1.5 -33.5t22.5 -14q19 0 39.5 21t38.5 49t32.5 56.5t22.5 44.5q6 13 13.5 9.5t0.5 -18.5q-11 -23 -27.5 -55t-37.5 -61.5
t-46 -50.5t-54 -21q-12 0 -23.5 6.5t-21.5 20.5q-8 13 -10.5 39t6.5 49q12 25 21.5 44.5t19 37.5t20 37t23.5 43q10 18 16.5 30.5t13 20t14 10.5t19.5 2q10 -1 20.5 -3.5t21.5 -0.5q-11 -6 -26.5 -26t-32 -47t-33 -57.5t-29.5 -57.5zM757 229q4 18 12.5 36.5t20.5 34.5
t27.5 28t33.5 17q27 8 47 4t30 -18t9.5 -38t-15.5 -55q-22 -27 -36 -41q-12 -12 -18 -14t7 22t23 46t13 39t-3 27.5t-25 11.5q-14 1 -27.5 -5.5t-23.5 -20.5q-11 -15 -23.5 -35t-18.5 -37q-4 -10 -5 -24t4 -25.5t19.5 -18t42.5 -2.5q14 2 14 -5.5t-20 -9.5q-33 -4 -52 3.5
t-28 20.5t-10 29t2 30zM835 148q-16 -29 -32.5 -56.5t-35.5 -48.5t-40 -34t-45 -13q-58 0 -80 41q-13 24 -13.5 41.5t6 28t16.5 14t17.5 0t10 -14.5t-6.5 -29q-4 -9 -2 -18.5t7.5 -17.5t14 -13.5t19.5 -5.5q17 -1 29.5 3.5t23.5 14.5q23 20 44.5 49t39.5 61q2 2 14 0
q5 -1 13 -2z" />
    <glyph glyph-name="afii10079_afii10077" unicode="&#x43d;&#x43b;" horiz-adv-x="739" 
d="M91 144q-6 -13 -10 -21t-9 -20t-14 -32t-25 -57q-6 -11 -14 -13t-24 -2q-11 -1 -18.5 -1t-15.5 -5q36 72 68.5 142t69.5 138q19 36 33 50t38 13q10 -1 20.5 -3.5t21.5 -0.5q-11 -6 -26.5 -26t-32 -47t-33 -57.5t-29.5 -57.5zM251 199q-6 -17 -21 -32.5t-35 -13.5
q-18 1 -35.5 10.5t-34.5 10.5q-10 1 -18 -4.5t-12 -13.5q-1 -2 -8 -2t-5 3q8 15 22.5 30t34.5 13q19 -1 35.5 -9.5t33.5 -10.5q12 -2 19 4t12 15q2 2 8 2t4 -2zM268 144q-7 -14 -14.5 -34.5t-10.5 -40t1.5 -33.5t22.5 -14q14 0 28 11t26 25.5t21.5 29.5t14.5 23q8 13 15 8.5
t-1 -18.5q-9 -16 -22 -34.5t-28.5 -34t-33.5 -26t-38 -10.5q-12 0 -23.5 6.5t-21.5 20.5q-8 13 -13 39t4 49q12 25 21 44.5t18 37.5t19 37t23 43q19 36 33 50t38 13q10 -1 20.5 -3.5t21.5 -0.5q-11 -6 -26.5 -26t-32 -47t-33 -57.5t-29.5 -57.5zM686 323q6 12 15.5 16.5
t23.5 4.5h54q-11 -9 -19 -16.5t-15.5 -18t-15.5 -26t-19 -38.5q-11 -21 -21.5 -43.5t-20 -44t-16.5 -40t-9 -31.5q-7 -32 0.5 -45.5t18.5 -14.5q18 0 36.5 16t35.5 40.5t32.5 54t28.5 56.5q6 13 13.5 9.5t0.5 -18.5q-12 -26 -28 -57.5t-36 -59.5t-44 -47t-51 -19
q-17 0 -30 8.5t-19.5 25t-6.5 40.5t10 54q7 22 17 47t21.5 50.5t23 50.5t20.5 46zM471 45q20 17 36.5 41.5t31 52.5t27 57t23.5 54.5t21 45t21 29.5q8 8 16 12t19 5.5t25.5 1.5h36.5q4 0 1 -2.5t-9 -5.5t-14.5 -5.5t-14.5 -2.5q-29 1 -41 -11.5t-25 -35.5q-16 -29 -34.5 -76
t-42 -92.5t-53 -78.5t-68.5 -33q-24 0 -44.5 8.5t-33.5 32.5q-18 33 -10.5 53t21.5 25.5t24 -5t-3 -38.5q-4 -8 -2 -17t7.5 -16.5t14 -12t17.5 -4.5q17 1 29.5 4.5t23.5 13.5z" />
    <glyph glyph-name="afii10079_afii10078" unicode="&#x43d;&#x43c;" horiz-adv-x="932" 
d="M91 144q-6 -13 -10 -21t-9 -20t-14 -32t-25 -57q-6 -11 -14 -13t-24 -2q-11 -1 -18.5 -1t-15.5 -5q36 72 68.5 142t69.5 138q19 36 33 50t38 13q10 -1 20.5 -3.5t21.5 -0.5q-11 -6 -26.5 -26t-32 -47t-33 -57.5t-29.5 -57.5zM251 199q-6 -17 -21 -32.5t-35 -13.5
q-18 1 -35.5 10.5t-34.5 10.5q-10 1 -18 -4.5t-12 -13.5q-1 -2 -8 -2t-5 3q8 15 22.5 30t34.5 13q19 -1 35.5 -9.5t33.5 -10.5q12 -2 19 4t12 15q2 2 8 2t4 -2zM268 144q-7 -14 -14.5 -34.5t-10.5 -40t1.5 -33.5t22.5 -14q14 0 28 11t26 25.5t21.5 29.5t14.5 23q8 13 15 8.5
t-1 -18.5q-9 -16 -22 -34.5t-28.5 -34t-33.5 -26t-38 -10.5q-12 0 -23.5 6.5t-21.5 20.5q-8 13 -13 39t4 49q12 25 21 44.5t18 37.5t19 37t23 43q19 36 33 50t38 13q10 -1 20.5 -3.5t21.5 -0.5q-11 -6 -26.5 -26t-32 -47t-33 -57.5t-29.5 -57.5zM632 1q-17 1 -30 9.5
t-19.5 25t-6.5 40t10 53.5q7 22 17 47t21.5 50.5t23 50.5t20.5 46q6 12 15.5 16.5t23.5 4.5h54q-11 -9 -19 -16.5t-15.5 -18t-15.5 -26t-19 -38.5q-11 -21 -21.5 -43.5t-20 -44t-16.5 -40t-9 -31.5q-7 -32 0.5 -45t18.5 -15q20 -3 39.5 15t37.5 47.5t34.5 66t31.5 71
t28.5 61.5t25.5 38q8 8 16 12t19 5.5t25.5 1.5h36.5q4 0 1 -2.5t-9 -5.5t-14.5 -5.5t-14.5 -2.5q-29 1 -40.5 -11.5t-25.5 -35.5q-11 -19 -22.5 -47.5t-25 -60t-29.5 -63t-35 -56t-41.5 -39.5t-49.5 -14zM471 45q20 17 36.5 41.5t31 52.5t27 57t23.5 54.5t21 45t21 29.5
q8 8 16 12t19 5.5t25.5 1.5h36.5q4 0 1 -2.5t-9 -5.5t-14.5 -5.5t-14.5 -2.5q-29 1 -41 -11.5t-25 -35.5q-16 -29 -34.5 -76t-42 -92.5t-53 -78.5t-68.5 -33q-24 0 -44.5 8.5t-33.5 32.5q-18 33 -10.5 53t21.5 25.5t24 -5t-3 -38.5q-4 -8 -2 -17t7.5 -16.5t14 -12t17.5 -4.5
q17 1 29.5 4.5t23.5 13.5zM879 323q6 12 15.5 16.5t23.5 4.5h54q-11 -9 -19 -16.5t-15.5 -18t-15.5 -26t-19 -38.5q-11 -21 -21.5 -43.5t-20 -44t-16.5 -40t-9 -31.5q-7 -32 0.5 -45.5t18.5 -14.5q18 0 36.5 16t35.5 40.5t32.5 54t28.5 56.5q6 13 13.5 9.5t0.5 -18.5
q-12 -26 -28 -57.5t-36 -59.5t-44 -47t-51 -19q-17 0 -30 8.5t-19.5 25t-6.5 40.5t10 54q7 22 17 47t21.5 50.5t23 50.5t20.5 46z" />
    <glyph glyph-name="afii10079_afii10097" unicode="&#x43d;&#x44f;" horiz-adv-x="723" 
d="M91 144q-6 -13 -10 -21t-9 -20t-14 -32t-25 -57q-6 -11 -14 -13t-24 -2q-11 -1 -18.5 -1t-15.5 -5q36 72 68.5 142t69.5 138q19 36 33 50t38 13q10 -1 20.5 -3.5t21.5 -0.5q-11 -6 -26.5 -26t-32 -47t-33 -57.5t-29.5 -57.5zM251 199q-6 -17 -21 -32.5t-35 -13.5
q-18 1 -35.5 10.5t-34.5 10.5q-10 1 -18 -4.5t-12 -13.5q-1 -2 -8 -2t-5 3q8 15 22.5 30t34.5 13q19 -1 35.5 -9.5t33.5 -10.5q12 -2 19 4t12 15q2 2 8 2t4 -2zM268 144q-7 -14 -14.5 -34.5t-10.5 -40t1.5 -33.5t22.5 -14q14 0 28 11t26 25.5t21.5 29.5t14.5 23q8 13 15 8.5
t-1 -18.5q-9 -16 -22 -34.5t-28.5 -34t-33.5 -26t-38 -10.5q-12 0 -23.5 6.5t-21.5 20.5q-8 13 -13 39t4 49q12 25 21 44.5t18 37.5t19 37t23 43q19 36 33 50t38 13q10 -1 20.5 -3.5t21.5 -0.5q-11 -6 -26.5 -26t-32 -47t-33 -57.5t-29.5 -57.5zM647 144q-7 -14 -14.5 -34.5
t-10.5 -40t1.5 -33.5t22.5 -14q19 0 39.5 21t38.5 49t32.5 56.5t22.5 44.5q6 13 13.5 9.5t0.5 -18.5q-11 -23 -27.5 -55t-37.5 -61.5t-46 -50.5t-54 -21q-12 0 -23.5 6.5t-21.5 20.5q-8 13 -10.5 39t6.5 49q12 25 21.5 44.5t19 37.5t20 37t23.5 43q10 18 16.5 30.5t13 20
t14 10.5t19.5 2q10 -1 20.5 -3.5t21.5 -0.5q-11 -6 -26.5 -26t-32 -47t-33 -57.5t-29.5 -57.5zM509 229q4 18 12.5 36.5t20.5 34.5t27.5 28t33.5 17q27 8 47 4t30 -18t9.5 -38t-15.5 -55q-22 -27 -36 -41q-12 -12 -18 -14t7 22t23 46t13 39t-3 27.5t-25 11.5
q-14 1 -27.5 -5.5t-23.5 -20.5q-11 -15 -23.5 -35t-18.5 -37q-4 -10 -5 -24t4 -25.5t19.5 -18t42.5 -2.5q14 2 14 -5.5t-20 -9.5q-33 -4 -52 3.5t-28 20.5t-10 29t2 30zM587 148q-16 -29 -32.5 -56.5t-35.5 -48.5t-40 -34t-45 -13q-58 0 -80 41q-13 24 -13.5 41.5t6 28
t16.5 14t17.5 0t10 -14.5t-6.5 -29q-4 -9 -2 -18.5t7.5 -17.5t14 -13.5t19.5 -5.5q17 -1 29.5 3.5t23.5 14.5q23 20 44.5 49t39.5 61q2 2 14 0q5 -1 13 -2z" />
    <glyph glyph-name="afii10080_afii10077" unicode="&#x43e;&#x43b;" horiz-adv-x="734" 
d="M262 317q-16 4 -35 -4.5t-38 -27t-37 -44t-32 -55.5q-15 -31 -23.5 -58.5t-10.5 -49.5t3 -36.5t19 -18.5t32 3t36 22q-8 12 -12 25t-4 24q1 17 8.5 30t26.5 13q13 0 21.5 -9t8.5 -21q0 -3 -0.5 -5.5t-1.5 -5.5q17 25 31 54q15 31 23 59t9 50t-5 36.5t-19 18.5zM187 34
q-21 -16 -43 -25.5t-44 -8.5q-29 1 -45.5 17t-22 41.5t-0.5 58t19 65.5q15 34 37 65t47.5 54t52.5 36.5t53 12.5q28 0 45 -16t22.5 -42t0.5 -58.5t-19 -65.5q-11 -26 -33 -58.5t-51 -59.5q13 -25 47 -25q29 0 52 26t46 62q5 7 13.5 4.5t2.5 -13.5q-8 -15 -20 -31.5
t-26.5 -31t-32 -24t-37.5 -9.5q-23 -1 -38.5 7t-25.5 19zM681 323q6 12 15.5 16.5t23.5 4.5h54q-11 -9 -19 -16.5t-15.5 -18t-15.5 -26t-19 -38.5q-11 -21 -21.5 -43.5t-20 -44t-16.5 -40t-9 -31.5q-7 -32 0.5 -45.5t18.5 -14.5q18 0 36.5 16t35.5 40.5t32.5 54t28.5 56.5
q6 13 13.5 9.5t0.5 -18.5q-12 -26 -28 -57.5t-36 -59.5t-44 -47t-51 -19q-17 0 -30 8.5t-19.5 25t-6.5 40.5t10 54q7 22 17 47t21.5 50.5t23 50.5t20.5 46zM466 45q20 17 36.5 41.5t31 52.5t27 57t23.5 54.5t21 45t21 29.5q8 8 16 12t19 5.5t25.5 1.5h36.5q4 0 1 -2.5
t-9 -5.5t-14.5 -5.5t-14.5 -2.5q-29 1 -41 -11.5t-25 -35.5q-16 -29 -34.5 -76t-42 -92.5t-53 -78.5t-68.5 -33q-24 0 -44.5 8.5t-33.5 32.5q-18 33 -10.5 53t21.5 25.5t24 -5t-3 -38.5q-4 -8 -2 -17t7.5 -16.5t14 -12t17.5 -4.5q17 1 29.5 4.5t23.5 13.5z" />
    <glyph glyph-name="afii10080_afii10078" unicode="&#x43e;&#x43c;" horiz-adv-x="927" 
d="M187 34q-21 -16 -43 -25.5t-44 -8.5q-29 1 -45.5 17t-22 41.5t-0.5 58t19 65.5q15 34 37 65t47.5 54t52.5 36.5t53 12.5q28 0 45 -16t22.5 -42t0.5 -58.5t-19 -65.5q-11 -26 -33 -58.5t-51 -59.5q13 -25 47 -25q29 0 52 26t46 62q5 7 13.5 4.5t2.5 -13.5
q-8 -15 -20 -31.5t-26.5 -31t-32 -24t-37.5 -9.5q-23 -1 -38.5 7t-25.5 19zM262 317q-16 4 -35 -4.5t-38 -27t-37 -44t-32 -55.5q-15 -31 -23.5 -58.5t-10.5 -49.5t3 -36.5t19 -18.5t32 3t36 22q-8 12 -12 25t-4 24q1 17 8.5 30t26.5 13q13 0 21.5 -9t8.5 -21
q0 -3 -0.5 -5.5t-1.5 -5.5q17 25 31 54q15 31 23 59t9 50t-5 36.5t-19 18.5zM627 1q-17 1 -30 9.5t-19.5 25t-6.5 40t10 53.5q7 22 17 47t21.5 50.5t23 50.5t20.5 46q6 12 15.5 16.5t23.5 4.5h54q-11 -9 -19 -16.5t-15.5 -18t-15.5 -26t-19 -38.5q-11 -21 -21.5 -43.5
t-20 -44t-16.5 -40t-9 -31.5q-7 -32 0.5 -45t18.5 -15q21 -3 40 15t37 47.5t34.5 66t31.5 71t28.5 61.5t25.5 38q8 8 16 12t19 5.5t25.5 1.5h36.5q4 0 1 -2.5t-9 -5.5t-14.5 -5.5t-14.5 -2.5q-29 1 -40.5 -11.5t-25.5 -35.5q-11 -19 -22.5 -47.5t-25 -60t-29.5 -63t-35 -56
t-41.5 -39.5t-49.5 -14zM466 45q20 17 36.5 41.5t31 52.5t27 57t23.5 54.5t21 45t21 29.5q8 8 16 12t19 5.5t25.5 1.5h36.5q4 0 1 -2.5t-9 -5.5t-14.5 -5.5t-14.5 -2.5q-29 1 -41 -11.5t-25 -35.5q-16 -29 -34.5 -76t-42 -92.5t-53 -78.5t-68.5 -33q-24 0 -44.5 8.5
t-33.5 32.5q-18 33 -10.5 53t21.5 25.5t24 -5t-3 -38.5q-4 -8 -2 -17t7.5 -16.5t14 -12t17.5 -4.5q17 1 29.5 4.5t23.5 13.5zM874 323q6 12 15.5 16.5t23.5 4.5h54q-11 -9 -19 -16.5t-15.5 -18t-15.5 -26t-19 -38.5q-11 -21 -21.5 -43.5t-20 -44t-16.5 -40t-9 -31.5
q-7 -32 0.5 -45.5t18.5 -14.5q18 0 36.5 16t35.5 40.5t32.5 54t28.5 56.5q6 13 13.5 9.5t0.5 -18.5q-12 -26 -28 -57.5t-36 -59.5t-44 -47t-51 -19q-17 0 -30 8.5t-19.5 25t-6.5 40.5t10 54q7 22 17 47t21.5 50.5t23 50.5t20.5 46z" />
    <glyph glyph-name="afii10080_afii10097" unicode="&#x43e;&#x44f;" horiz-adv-x="715" 
d="M262 317q-16 4 -35 -4.5t-38 -27t-37 -44t-32 -55.5q-15 -31 -23.5 -58.5t-10.5 -49.5t3 -36.5t19 -18.5t32 3t36 22q-8 12 -12 25t-4 24q1 17 8.5 30t26.5 13q13 0 21.5 -9t8.5 -21q0 -3 -0.5 -5.5t-1.5 -5.5q17 25 31 54q15 31 23 59t9 50t-5 36.5t-19 18.5zM187 34
q-21 -16 -43 -25.5t-44 -8.5q-29 1 -45.5 17t-22 41.5t-0.5 58t19 65.5q15 34 37 65t47.5 54t52.5 36.5t53 12.5q28 0 45 -16t22.5 -42t0.5 -58.5t-19 -65.5q-11 -26 -33 -58.5t-51 -59.5q13 -25 47 -25q29 0 52 26t46 62q5 7 13.5 4.5t2.5 -13.5q-8 -15 -20 -31.5
t-26.5 -31t-32 -24t-37.5 -9.5q-23 -1 -38.5 7t-25.5 19zM639 144q-7 -14 -14.5 -34.5t-10.5 -40t1.5 -33.5t22.5 -14q19 0 39.5 21t38.5 49t32.5 56.5t22.5 44.5q6 13 13.5 9.5t0.5 -18.5q-11 -23 -27.5 -55t-37.5 -61.5t-46 -50.5t-54 -21q-12 0 -23.5 6.5t-21.5 20.5
q-8 13 -10.5 39t6.5 49q12 25 21.5 44.5t19 37.5t20 37t23.5 43q10 18 16.5 30.5t13 20t14 10.5t19.5 2q10 -1 20.5 -3.5t21.5 -0.5q-11 -6 -26.5 -26t-32 -47t-33 -57.5t-29.5 -57.5zM501 229q4 18 12.5 36.5t20.5 34.5t27.5 28t33.5 17q27 8 47 4t30 -18t9.5 -38
t-15.5 -55q-22 -27 -36 -41q-12 -12 -18 -14t7 22t23 46t13 39t-3 27.5t-25 11.5q-14 1 -27.5 -5.5t-23.5 -20.5q-11 -15 -23.5 -35t-18.5 -37q-4 -10 -5 -24t4 -25.5t19.5 -18t42.5 -2.5q14 2 14 -5.5t-20 -9.5q-33 -4 -52 3.5t-28 20.5t-10 29t2 30zM579 148
q-16 -29 -32.5 -56.5t-35.5 -48.5t-40 -34t-45 -13q-58 0 -80 41q-13 24 -13.5 41.5t6 28t16.5 14t17.5 0t10 -14.5t-6.5 -29q-4 -9 -2 -18.5t7.5 -17.5t14 -13.5t19.5 -5.5q17 -1 29.5 3.5t23.5 14.5q23 20 44.5 49t39.5 61q2 2 14 0q5 -1 13 -2z" />
    <glyph glyph-name="afii10081_afii10077" unicode="&#x43f;&#x43b;" horiz-adv-x="734" 
d="M359 328q-30 -54 -55 -103q-11 -21 -21.5 -43t-19.5 -42.5t-15.5 -38.5t-8.5 -31q-6 -31 0 -40.5t16 -9.5q12 0 24.5 8.5t24.5 21.5t23.5 29t20.5 32q8 13 16 10t0 -18q-26 -45 -57 -76t-66 -31q-13 0 -27 5t-23.5 18.5t-11.5 36t9 57.5q6 20 20 45.5t35 59.5q9 15 10 26
t-7.5 13t-26.5 -8t-47 -37q-26 -23 -61.5 -69t-77.5 -129q-6 -11 -14 -13t-24 -2q-11 -1 -18.5 -1t-15.5 -5q36 72 68.5 142t69.5 138q19 36 33 50t38 13q10 -1 20.5 -3.5t21.5 -0.5q-11 -6 -26.5 -26t-32 -47t-33 -57.5t-29.5 -57.5q15 19 37.5 44.5t45.5 45.5
q18 16 44.5 34.5t53.5 33t50.5 22.5t36.5 4zM681 323q6 12 15.5 16.5t23.5 4.5h54q-11 -9 -19 -16.5t-15.5 -18t-15.5 -26t-19 -38.5q-11 -21 -21.5 -43.5t-20 -44t-16.5 -40t-9 -31.5q-7 -32 0.5 -45.5t18.5 -14.5q18 0 36.5 16t35.5 40.5t32.5 54t28.5 56.5q6 13 13.5 9.5
t0.5 -18.5q-12 -26 -28 -57.5t-36 -59.5t-44 -47t-51 -19q-17 0 -30 8.5t-19.5 25t-6.5 40.5t10 54q7 22 17 47t21.5 50.5t23 50.5t20.5 46zM466 45q20 17 36.5 41.5t31 52.5t27 57t23.5 54.5t21 45t21 29.5q8 8 16 12t19 5.5t25.5 1.5h36.5q4 0 1 -2.5t-9 -5.5t-14.5 -5.5
t-14.5 -2.5q-29 1 -41 -11.5t-25 -35.5q-16 -29 -34.5 -76t-42 -92.5t-53 -78.5t-68.5 -33q-24 0 -44.5 8.5t-33.5 32.5q-18 33 -10.5 53t21.5 25.5t24 -5t-3 -38.5q-4 -8 -2 -17t7.5 -16.5t14 -12t17.5 -4.5q17 1 29.5 4.5t23.5 13.5z" />
    <glyph glyph-name="afii10081_afii10078" unicode="&#x43f;&#x43c;" horiz-adv-x="927" 
d="M359 328q-30 -54 -55 -103q-11 -21 -21.5 -43t-19.5 -42.5t-15.5 -38.5t-8.5 -31q-6 -31 0 -40.5t16 -9.5q12 0 24.5 8.5t24.5 21.5t23.5 29t20.5 32q8 13 16 10t0 -18q-26 -45 -57 -76t-66 -31q-13 0 -27 5t-23.5 18.5t-11.5 36t9 57.5q6 20 20 45.5t35 59.5q9 15 10 26
t-7.5 13t-26.5 -8t-47 -37q-26 -23 -61.5 -69t-77.5 -129q-6 -11 -14 -13t-24 -2q-11 -1 -18.5 -1t-15.5 -5q36 72 68.5 142t69.5 138q19 36 33 50t38 13q10 -1 20.5 -3.5t21.5 -0.5q-11 -6 -26.5 -26t-32 -47t-33 -57.5t-29.5 -57.5q15 19 37.5 44.5t45.5 45.5
q18 16 44.5 34.5t53.5 33t50.5 22.5t36.5 4zM627 1q-17 1 -30 9.5t-19.5 25t-6.5 40t10 53.5q7 22 17 47t21.5 50.5t23 50.5t20.5 46q6 12 15.5 16.5t23.5 4.5h54q-11 -9 -19 -16.5t-15.5 -18t-15.5 -26t-19 -38.5q-11 -21 -21.5 -43.5t-20 -44t-16.5 -40t-9 -31.5
q-7 -32 0.5 -45t18.5 -15q21 -3 40 15t37 47.5t34.5 66t31.5 71t28.5 61.5t25.5 38q8 8 16 12t19 5.5t25.5 1.5h36.5q4 0 1 -2.5t-9 -5.5t-14.5 -5.5t-14.5 -2.5q-29 1 -40.5 -11.5t-25.5 -35.5q-11 -19 -22.5 -47.5t-25 -60t-29.5 -63t-35 -56t-41.5 -39.5t-49.5 -14z
M466 45q20 17 36.5 41.5t31 52.5t27 57t23.5 54.5t21 45t21 29.5q8 8 16 12t19 5.5t25.5 1.5h36.5q4 0 1 -2.5t-9 -5.5t-14.5 -5.5t-14.5 -2.5q-29 1 -41 -11.5t-25 -35.5q-16 -29 -34.5 -76t-42 -92.5t-53 -78.5t-68.5 -33q-24 0 -44.5 8.5t-33.5 32.5q-18 33 -10.5 53
t21.5 25.5t24 -5t-3 -38.5q-4 -8 -2 -17t7.5 -16.5t14 -12t17.5 -4.5q17 1 29.5 4.5t23.5 13.5zM874 323q6 12 15.5 16.5t23.5 4.5h54q-11 -9 -19 -16.5t-15.5 -18t-15.5 -26t-19 -38.5q-11 -21 -21.5 -43.5t-20 -44t-16.5 -40t-9 -31.5q-7 -32 0.5 -45.5t18.5 -14.5
q18 0 36.5 16t35.5 40.5t32.5 54t28.5 56.5q6 13 13.5 9.5t0.5 -18.5q-12 -26 -28 -57.5t-36 -59.5t-44 -47t-51 -19q-17 0 -30 8.5t-19.5 25t-6.5 40.5t10 54q7 22 17 47t21.5 50.5t23 50.5t20.5 46z" />
    <glyph glyph-name="afii10081_afii10097" unicode="&#x43f;&#x44f;" horiz-adv-x="715" 
d="M359 328q-30 -54 -55 -103q-11 -21 -21.5 -43t-19.5 -42.5t-15.5 -38.5t-8.5 -31q-6 -31 0 -40.5t16 -9.5q12 0 24.5 8.5t24.5 21.5t23.5 29t20.5 32q8 13 16 10t0 -18q-26 -45 -57 -76t-66 -31q-13 0 -27 5t-23.5 18.5t-11.5 36t9 57.5q6 20 20 45.5t35 59.5q9 15 10 26
t-7.5 13t-26.5 -8t-47 -37q-26 -23 -61.5 -69t-77.5 -129q-6 -11 -14 -13t-24 -2q-11 -1 -18.5 -1t-15.5 -5q36 72 68.5 142t69.5 138q19 36 33 50t38 13q10 -1 20.5 -3.5t21.5 -0.5q-11 -6 -26.5 -26t-32 -47t-33 -57.5t-29.5 -57.5q15 19 37.5 44.5t45.5 45.5
q18 16 44.5 34.5t53.5 33t50.5 22.5t36.5 4zM639 144q-7 -14 -14.5 -34.5t-10.5 -40t1.5 -33.5t22.5 -14q19 0 39.5 21t38.5 49t32.5 56.5t22.5 44.5q6 13 13.5 9.5t0.5 -18.5q-11 -23 -27.5 -55t-37.5 -61.5t-46 -50.5t-54 -21q-12 0 -23.5 6.5t-21.5 20.5q-8 13 -10.5 39
t6.5 49q12 25 21.5 44.5t19 37.5t20 37t23.5 43q10 18 16.5 30.5t13 20t14 10.5t19.5 2q10 -1 20.5 -3.5t21.5 -0.5q-11 -6 -26.5 -26t-32 -47t-33 -57.5t-29.5 -57.5zM501 229q4 18 12.5 36.5t20.5 34.5t27.5 28t33.5 17q27 8 47 4t30 -18t9.5 -38t-15.5 -55
q-22 -27 -36 -41q-12 -12 -18 -14t7 22t23 46t13 39t-3 27.5t-25 11.5q-14 1 -27.5 -5.5t-23.5 -20.5q-11 -15 -23.5 -35t-18.5 -37q-4 -10 -5 -24t4 -25.5t19.5 -18t42.5 -2.5q14 2 14 -5.5t-20 -9.5q-33 -4 -52 3.5t-28 20.5t-10 29t2 30zM579 148q-16 -29 -32.5 -56.5
t-35.5 -48.5t-40 -34t-45 -13q-58 0 -80 41q-13 24 -13.5 41.5t6 28t16.5 14t17.5 0t10 -14.5t-6.5 -29q-4 -9 -2 -18.5t7.5 -17.5t14 -13.5t19.5 -5.5q17 -1 29.5 3.5t23.5 14.5q23 20 44.5 49t39.5 61q2 2 14 0q5 -1 13 -2z" />
    <glyph glyph-name="afii10082_afii10077" unicode="&#x440;&#x43b;" horiz-adv-x="744" 
d="M-36 -219q-15 -32 -28.5 -43t-38.5 -9q-10 1 -20.5 4t-21.5 1q6 6 23 34.5t39 70t47 90.5t46.5 96t37 86.5t20.5 62.5q-8 -13 -18 -16.5t-5 7.5q4 8 10 22t10 23q7 16 12.5 37t7 40t-1.5 32.5t-12 15.5q11 2 21 4q8 2 16.5 2.5t11.5 1.5q11 1 18 1.5t11 -2.5t5.5 -12.5
t1.5 -27.5q0 -15 -4.5 -35.5t-10.5 -42.5t-13 -43t-13 -37q15 19 38 44.5t46 45.5q18 16 44.5 34.5t53.5 33t50.5 22.5t36.5 4q-30 -54 -55 -103q-11 -21 -21.5 -43t-19.5 -42.5t-15.5 -38.5t-8.5 -31q-6 -31 0 -40.5t16 -9.5q11 0 23 7.5t24 20.5t23.5 28.5t20.5 31.5
q8 13 15.5 7.5t-1.5 -19.5q-26 -44 -55.5 -72t-63.5 -28q-13 0 -27 5t-23.5 18.5t-11.5 36t9 57.5q6 20 20 45.5t35 59.5q9 15 10 26t-7.5 13t-26.5 -8t-47 -37q-13 -12 -29.5 -28t-35 -39.5t-37.5 -55.5t-37 -75zM691 323q6 12 15.5 16.5t23.5 4.5h54q-11 -9 -19 -16.5
t-15.5 -18t-15.5 -26t-19 -38.5q-11 -21 -21.5 -43.5t-20 -44t-16.5 -40t-9 -31.5q-7 -32 0.5 -45.5t18.5 -14.5q18 0 36.5 16t35.5 40.5t32.5 54t28.5 56.5q6 13 13.5 9.5t0.5 -18.5q-12 -26 -28 -57.5t-36 -59.5t-44 -47t-51 -19q-17 0 -30 8.5t-19.5 25t-6.5 40.5t10 54
q7 22 17 47t21.5 50.5t23 50.5t20.5 46zM476 45q20 17 36.5 41.5t31 52.5t27 57t23.5 54.5t21 45t21 29.5q8 8 16 12t19 5.5t25.5 1.5h36.5q4 0 1 -2.5t-9 -5.5t-14.5 -5.5t-14.5 -2.5q-29 1 -41 -11.5t-25 -35.5q-16 -29 -34.5 -76t-42 -92.5t-53 -78.5t-68.5 -33
q-24 0 -44.5 8.5t-33.5 32.5q-18 33 -10.5 53t21.5 25.5t24 -5t-3 -38.5q-4 -8 -2 -17t7.5 -16.5t14 -12t17.5 -4.5q17 1 29.5 4.5t23.5 13.5z" />
    <glyph glyph-name="afii10082_afii10078" unicode="&#x440;&#x43c;" horiz-adv-x="937" 
d="M-36 -219q-15 -32 -28.5 -43t-38.5 -9q-10 1 -20.5 4t-21.5 1q6 6 23 34.5t39 70t47 90.5t46.5 96t37 86.5t20.5 62.5q-8 -13 -18 -16.5t-5 7.5q4 8 10 22t10 23q7 16 12.5 37t7 40t-1.5 32.5t-12 15.5q11 2 21 4q8 2 16.5 2.5t11.5 1.5q11 1 18 1.5t11 -2.5t5.5 -12.5
t1.5 -27.5q0 -15 -4.5 -35.5t-10.5 -42.5t-13 -43t-13 -37q15 19 38 44.5t46 45.5q18 16 44.5 34.5t53.5 33t50.5 22.5t36.5 4q-30 -54 -55 -103q-11 -21 -21.5 -43t-19.5 -42.5t-15.5 -38.5t-8.5 -31q-6 -31 0 -40.5t16 -9.5q11 0 23 7.5t24 20.5t23.5 28.5t20.5 31.5
q8 13 15.5 7.5t-1.5 -19.5q-26 -44 -55.5 -72t-63.5 -28q-13 0 -27 5t-23.5 18.5t-11.5 36t9 57.5q6 20 20 45.5t35 59.5q9 15 10 26t-7.5 13t-26.5 -8t-47 -37q-13 -12 -29.5 -28t-35 -39.5t-37.5 -55.5t-37 -75zM637 1q-17 1 -30 9.5t-19.5 25t-6.5 40t10 53.5q7 22 17 47
t21.5 50.5t23 50.5t20.5 46q6 12 15.5 16.5t23.5 4.5h54q-11 -9 -19 -16.5t-15.5 -18t-15.5 -26t-19 -38.5q-11 -21 -21.5 -43.5t-20 -44t-16.5 -40t-9 -31.5q-7 -32 0.5 -45t18.5 -15q20 -3 39.5 15t37.5 47.5t34.5 66t31.5 71t28.5 61.5t25.5 38q8 8 16 12t19 5.5
t25.5 1.5h36.5q4 0 1 -2.5t-9 -5.5t-14.5 -5.5t-14.5 -2.5q-29 1 -40.5 -11.5t-25.5 -35.5q-11 -19 -22.5 -47.5t-25 -60t-29.5 -63t-35 -56t-41.5 -39.5t-49.5 -14zM476 45q20 17 36.5 41.5t31 52.5t27 57t23.5 54.5t21 45t21 29.5q8 8 16 12t19 5.5t25.5 1.5h36.5
q4 0 1 -2.5t-9 -5.5t-14.5 -5.5t-14.5 -2.5q-29 1 -41 -11.5t-25 -35.5q-16 -29 -34.5 -76t-42 -92.5t-53 -78.5t-68.5 -33q-24 0 -44.5 8.5t-33.5 32.5q-18 33 -10.5 53t21.5 25.5t24 -5t-3 -38.5q-4 -8 -2 -17t7.5 -16.5t14 -12t17.5 -4.5q17 1 29.5 4.5t23.5 13.5z
M884 323q6 12 15.5 16.5t23.5 4.5h54q-11 -9 -19 -16.5t-15.5 -18t-15.5 -26t-19 -38.5q-11 -21 -21.5 -43.5t-20 -44t-16.5 -40t-9 -31.5q-7 -32 0.5 -45.5t18.5 -14.5q18 0 36.5 16t35.5 40.5t32.5 54t28.5 56.5q6 13 13.5 9.5t0.5 -18.5q-12 -26 -28 -57.5t-36 -59.5
t-44 -47t-51 -19q-17 0 -30 8.5t-19.5 25t-6.5 40.5t10 54q7 22 17 47t21.5 50.5t23 50.5t20.5 46z" />
    <glyph glyph-name="afii10082_afii10097" unicode="&#x440;&#x44f;" horiz-adv-x="725" 
d="M-36 -219q-15 -32 -28.5 -43t-38.5 -9q-10 1 -20.5 4t-21.5 1q6 6 23 34.5t39 70t47 90.5t46.5 96t37 86.5t20.5 62.5q-8 -13 -18 -16.5t-5 7.5q4 8 10 22t10 23q7 16 12.5 37t7 40t-1.5 32.5t-12 15.5q11 2 21 4q8 2 16.5 2.5t11.5 1.5q11 1 18 1.5t11 -2.5t5.5 -12.5
t1.5 -27.5q0 -15 -4.5 -35.5t-10.5 -42.5t-13 -43t-13 -37q15 19 38 44.5t46 45.5q18 16 44.5 34.5t53.5 33t50.5 22.5t36.5 4q-30 -54 -55 -103q-11 -21 -21.5 -43t-19.5 -42.5t-15.5 -38.5t-8.5 -31q-6 -31 0 -40.5t16 -9.5q11 0 23 7.5t24 20.5t23.5 28.5t20.5 31.5
q8 13 15.5 7.5t-1.5 -19.5q-26 -44 -55.5 -72t-63.5 -28q-13 0 -27 5t-23.5 18.5t-11.5 36t9 57.5q6 20 20 45.5t35 59.5q9 15 10 26t-7.5 13t-26.5 -8t-47 -37q-13 -12 -29.5 -28t-35 -39.5t-37.5 -55.5t-37 -75zM649 144q-7 -14 -14.5 -34.5t-10.5 -40t1.5 -33.5t22.5 -14
q19 0 39.5 21t38.5 49t32.5 56.5t22.5 44.5q6 13 13.5 9.5t0.5 -18.5q-11 -23 -27.5 -55t-37.5 -61.5t-46 -50.5t-54 -21q-12 0 -23.5 6.5t-21.5 20.5q-8 13 -10.5 39t6.5 49q12 25 21.5 44.5t19 37.5t20 37t23.5 43q10 18 16.5 30.5t13 20t14 10.5t19.5 2q10 -1 20.5 -3.5
t21.5 -0.5q-11 -6 -26.5 -26t-32 -47t-33 -57.5t-29.5 -57.5zM511 229q4 18 12.5 36.5t20.5 34.5t27.5 28t33.5 17q27 8 47 4t30 -18t9.5 -38t-15.5 -55q-22 -27 -36 -41q-12 -12 -18 -14t7 22t23 46t13 39t-3 27.5t-25 11.5q-14 1 -27.5 -5.5t-23.5 -20.5
q-11 -15 -23.5 -35t-18.5 -37q-4 -10 -5 -24t4 -25.5t19.5 -18t42.5 -2.5q14 2 14 -5.5t-20 -9.5q-33 -4 -52 3.5t-28 20.5t-10 29t2 30zM589 148q-16 -29 -32.5 -56.5t-35.5 -48.5t-40 -34t-45 -13q-58 0 -80 41q-13 24 -13.5 41.5t6 28t16.5 14t17.5 0t10 -14.5t-6.5 -29
q-4 -9 -2 -18.5t7.5 -17.5t14 -13.5t19.5 -5.5q17 -1 29.5 3.5t23.5 14.5q23 20 44.5 49t39.5 61q2 2 14 0q5 -1 13 -2z" />
    <glyph glyph-name="afii10083_afii10077" unicode="&#x441;&#x43b;" horiz-adv-x="659" 
d="M308 283q-2 -12 -9.5 -25t-17.5 -22t-21 -11.5t-19 5.5q8 10 17.5 23.5t13.5 27.5q7 26 0.5 37.5t-20.5 11.5t-28 -8t-28.5 -20t-27.5 -27.5t-23 -30.5q-7 -10 -16.5 -27t-18 -37.5t-14.5 -43.5t-6 -45q0 -30 13.5 -53.5t45.5 -23.5q24 0 43 8.5t34.5 21.5t28.5 29.5
t25 33.5q9 13 16.5 10t-0.5 -17q-12 -21 -26.5 -40t-32.5 -33t-42 -22.5t-56 -8.5q-39 0 -62 14t-33 36.5t-8.5 51.5t11 60t25 61t33.5 54q28 38 63 58.5t71 20.5q38 0 55.5 -19t13.5 -50zM606 323q6 12 15.5 16.5t23.5 4.5h54q-11 -9 -19 -16.5t-15.5 -18t-15.5 -26
t-19 -38.5q-11 -21 -21.5 -43.5t-20 -44t-16.5 -40t-9 -31.5q-7 -32 0.5 -45.5t18.5 -14.5q18 0 36.5 16t35.5 40.5t32.5 54t28.5 56.5q6 13 13.5 9.5t0.5 -18.5q-12 -26 -28 -57.5t-36 -59.5t-44 -47t-51 -19q-17 0 -30 8.5t-19.5 25t-6.5 40.5t10 54q7 22 17 47t21.5 50.5
t23 50.5t20.5 46zM391 45q20 17 36.5 41.5t31 52.5t27 57t23.5 54.5t21 45t21 29.5q8 8 16 12t19 5.5t25.5 1.5h36.5q4 0 1 -2.5t-9 -5.5t-14.5 -5.5t-14.5 -2.5q-29 1 -41 -11.5t-25 -35.5q-16 -29 -34.5 -76t-42 -92.5t-53 -78.5t-68.5 -33q-24 0 -44.5 8.5t-33.5 32.5
q-18 33 -10.5 53t21.5 25.5t24 -5t-3 -38.5q-4 -8 -2 -17t7.5 -16.5t14 -12t17.5 -4.5q17 1 29.5 4.5t23.5 13.5z" />
    <glyph glyph-name="afii10083_afii10078" unicode="&#x441;&#x43c;" horiz-adv-x="852" 
d="M308 283q-2 -12 -9.5 -25t-17.5 -22t-21 -11.5t-19 5.5q8 10 17.5 23.5t13.5 27.5q7 26 0.5 37.5t-20.5 11.5t-28 -8t-28.5 -20t-27.5 -27.5t-23 -30.5q-7 -10 -16.5 -27t-18 -37.5t-14.5 -43.5t-6 -45q0 -30 13.5 -53.5t45.5 -23.5q24 0 43 8.5t34.5 21.5t28.5 29.5
t25 33.5q9 13 16.5 10t-0.5 -17q-12 -21 -26.5 -40t-32.5 -33t-42 -22.5t-56 -8.5q-39 0 -62 14t-33 36.5t-8.5 51.5t11 60t25 61t33.5 54q28 38 63 58.5t71 20.5q38 0 55.5 -19t13.5 -50zM552 1q-17 1 -30 9.5t-19.5 25t-6.5 40t10 53.5q7 22 17 47t21.5 50.5t23 50.5
t20.5 46q6 12 15.5 16.5t23.5 4.5h54q-11 -9 -19 -16.5t-15.5 -18t-15.5 -26t-19 -38.5q-11 -21 -21.5 -43.5t-20 -44t-16.5 -40t-9 -31.5q-7 -32 0.5 -45t18.5 -15q20 -3 39.5 15t37.5 47.5t34.5 66t31.5 71t28.5 61.5t25.5 38q8 8 16 12t19 5.5t25.5 1.5h36.5q4 0 1 -2.5
t-9 -5.5t-14.5 -5.5t-14.5 -2.5q-29 1 -40.5 -11.5t-25.5 -35.5q-11 -19 -22.5 -47.5t-25 -60t-29.5 -63t-35 -56t-41.5 -39.5t-49.5 -14zM391 45q20 17 36.5 41.5t31 52.5t27 57t23.5 54.5t21 45t21 29.5q8 8 16 12t19 5.5t25.5 1.5h36.5q4 0 1 -2.5t-9 -5.5t-14.5 -5.5
t-14.5 -2.5q-29 1 -41 -11.5t-25 -35.5q-16 -29 -34.5 -76t-42 -92.5t-53 -78.5t-68.5 -33q-24 0 -44.5 8.5t-33.5 32.5q-18 33 -10.5 53t21.5 25.5t24 -5t-3 -38.5q-4 -8 -2 -17t7.5 -16.5t14 -12t17.5 -4.5q17 1 29.5 4.5t23.5 13.5zM799 323q6 12 15.5 16.5t23.5 4.5h54
q-11 -9 -19 -16.5t-15.5 -18t-15.5 -26t-19 -38.5q-11 -21 -21.5 -43.5t-20 -44t-16.5 -40t-9 -31.5q-7 -32 0.5 -45.5t18.5 -14.5q18 0 36.5 16t35.5 40.5t32.5 54t28.5 56.5q6 13 13.5 9.5t0.5 -18.5q-12 -26 -28 -57.5t-36 -59.5t-44 -47t-51 -19q-17 0 -30 8.5t-19.5 25
t-6.5 40.5t10 54q7 22 17 47t21.5 50.5t23 50.5t20.5 46z" />
    <glyph glyph-name="afii10083_afii10097" unicode="&#x441;&#x44f;" horiz-adv-x="640" 
d="M308 283q-2 -12 -9.5 -25t-17.5 -22t-21 -11.5t-19 5.5q8 10 17.5 23.5t13.5 27.5q7 26 0.5 37.5t-20.5 11.5t-28 -8t-28.5 -20t-27.5 -27.5t-23 -30.5q-7 -10 -16.5 -27t-18 -37.5t-14.5 -43.5t-6 -45q0 -30 13.5 -53.5t45.5 -23.5q24 0 43 8.5t34.5 21.5t28.5 29.5
t25 33.5q9 13 16.5 10t-0.5 -17q-12 -21 -26.5 -40t-32.5 -33t-42 -22.5t-56 -8.5q-39 0 -62 14t-33 36.5t-8.5 51.5t11 60t25 61t33.5 54q28 38 63 58.5t71 20.5q38 0 55.5 -19t13.5 -50zM564 144q-7 -14 -14.5 -34.5t-10.5 -40t1.5 -33.5t22.5 -14q19 0 39.5 21t38.5 49
t32.5 56.5t22.5 44.5q6 13 13.5 9.5t0.5 -18.5q-11 -23 -27.5 -55t-37.5 -61.5t-46 -50.5t-54 -21q-12 0 -23.5 6.5t-21.5 20.5q-8 13 -10.5 39t6.5 49q12 25 21.5 44.5t19 37.5t20 37t23.5 43q10 18 16.5 30.5t13 20t14 10.5t19.5 2q10 -1 20.5 -3.5t21.5 -0.5
q-11 -6 -26.5 -26t-32 -47t-33 -57.5t-29.5 -57.5zM426 229q4 18 12.5 36.5t20.5 34.5t27.5 28t33.5 17q27 8 47 4t30 -18t9.5 -38t-15.5 -55q-22 -27 -36 -41q-12 -12 -18 -14t7 22t23 46t13 39t-3 27.5t-25 11.5q-14 1 -27.5 -5.5t-23.5 -20.5q-11 -15 -23.5 -35
t-18.5 -37q-4 -10 -5 -24t4 -25.5t19.5 -18t42.5 -2.5q14 2 14 -5.5t-20 -9.5q-33 -4 -52 3.5t-28 20.5t-10 29t2 30zM504 148q-16 -29 -32.5 -56.5t-35.5 -48.5t-40 -34t-45 -13q-58 0 -80 41q-13 24 -13.5 41.5t6 28t16.5 14t17.5 0t10 -14.5t-6.5 -29q-4 -9 -2 -18.5
t7.5 -17.5t14 -13.5t19.5 -5.5q17 -1 29.5 3.5t23.5 14.5q23 20 44.5 49t39.5 61q2 2 14 0q5 -1 13 -2z" />
    <glyph glyph-name="afii10084_afii10077" unicode="&#x442;&#x43b;" horiz-adv-x="906" 
d="M543 444q-8 -12 -19.5 -24.5t-26.5 -22.5t-33.5 -16t-39.5 -5q-20 1 -38.5 6t-36.5 10.5t-36 10t-36 5.5q-23 2 -38.5 -6.5t-24.5 -20.5q-1 -2 -6 -2.5t-10 0t-9 1.5t-4 3q17 22 47.5 43.5t72.5 19.5q19 -1 37.5 -5t37 -9.5t36 -10t35.5 -5.5q25 -2 41 6.5t27 22.5
q0 1 4.5 1.5t9 0.5t8 -1t2.5 -2zM530 328q-30 -54 -55 -103q-11 -21 -21 -43t-19 -42.5t-15.5 -38.5t-9.5 -31q-5 -31 1 -40.5t16 -9.5q21 0 46 26t48 65q8 13 14.5 8t-1.5 -19q-26 -46 -57.5 -75t-63.5 -29q-14 0 -28 5t-23.5 18.5t-11.5 36t9 57.5q6 20 20 45.5t35 59.5
q9 15 10 26t-7.5 13t-26.5 -8t-47 -37q-16 -15 -38.5 -41.5t-43.5 -57t-37.5 -61t-21.5 -52.5q-17 0 -26.5 16.5t-5.5 38.5q5 33 17 59.5t25 54.5q12 25 22 49t9.5 35t-16.5 3.5t-55 -44.5q-26 -23 -60.5 -68t-77.5 -127q-5 -11 -13 -13.5t-25 -2.5q-11 -1 -18 -1t-15 -5
q36 72 67.5 141t68.5 137q19 36 33 50t38 13q10 -1 20.5 -3.5t21.5 -0.5q-11 -6 -26.5 -26t-32 -47t-33 -57.5t-29.5 -57.5q15 19 37.5 44.5t45.5 45.5q18 16 38.5 34.5t40 33t37 22.5t30.5 4q14 -5 18 -17t-3 -27q-14 -32 -34.5 -67.5t-38.5 -72.5q15 19 37.5 44.5
t45.5 45.5q18 16 44.5 34.5t53.5 33t51 22.5t36 4zM853 323q6 12 15.5 16.5t23.5 4.5h54q-11 -9 -19 -16.5t-15.5 -18t-15.5 -26t-19 -38.5q-11 -21 -21.5 -43.5t-20 -44t-16.5 -40t-9 -31.5q-7 -32 0.5 -45.5t18.5 -14.5q18 0 36.5 16t35.5 40.5t32.5 54t28.5 56.5
q6 13 13.5 9.5t0.5 -18.5q-12 -26 -28 -57.5t-36 -59.5t-44 -47t-51 -19q-17 0 -30 8.5t-19.5 25t-6.5 40.5t10 54q7 22 17 47t21.5 50.5t23 50.5t20.5 46zM638 45q20 17 36.5 41.5t31 52.5t27 57t23.5 54.5t21 45t21 29.5q8 8 16 12t19 5.5t25.5 1.5h36.5q4 0 1 -2.5
t-9 -5.5t-14.5 -5.5t-14.5 -2.5q-29 1 -41 -11.5t-25 -35.5q-16 -29 -34.5 -76t-42 -92.5t-53 -78.5t-68.5 -33q-24 0 -44.5 8.5t-33.5 32.5q-18 33 -10.5 53t21.5 25.5t24 -5t-3 -38.5q-4 -8 -2 -17t7.5 -16.5t14 -12t17.5 -4.5q17 1 29.5 4.5t23.5 13.5z" />
    <glyph glyph-name="afii10084_afii10078" unicode="&#x442;&#x43c;" horiz-adv-x="1099" 
d="M543 444q-8 -12 -19.5 -24.5t-26.5 -22.5t-33.5 -16t-39.5 -5q-20 1 -38.5 6t-36.5 10.5t-36 10t-36 5.5q-23 2 -38.5 -6.5t-24.5 -20.5q-1 -2 -6 -2.5t-10 0t-9 1.5t-4 3q17 22 47.5 43.5t72.5 19.5q19 -1 37.5 -5t37 -9.5t36 -10t35.5 -5.5q25 -2 41 6.5t27 22.5
q0 1 4.5 1.5t9 0.5t8 -1t2.5 -2zM530 328q-30 -54 -55 -103q-11 -21 -21 -43t-19 -42.5t-15.5 -38.5t-9.5 -31q-5 -31 1 -40.5t16 -9.5q21 0 46 26t48 65q8 13 14.5 8t-1.5 -19q-26 -46 -57.5 -75t-63.5 -29q-14 0 -28 5t-23.5 18.5t-11.5 36t9 57.5q6 20 20 45.5t35 59.5
q9 15 10 26t-7.5 13t-26.5 -8t-47 -37q-16 -15 -38.5 -41.5t-43.5 -57t-37.5 -61t-21.5 -52.5q-17 0 -26.5 16.5t-5.5 38.5q5 33 17 59.5t25 54.5q12 25 22 49t9.5 35t-16.5 3.5t-55 -44.5q-26 -23 -60.5 -68t-77.5 -127q-5 -11 -13 -13.5t-25 -2.5q-11 -1 -18 -1t-15 -5
q36 72 67.5 141t68.5 137q19 36 33 50t38 13q10 -1 20.5 -3.5t21.5 -0.5q-11 -6 -26.5 -26t-32 -47t-33 -57.5t-29.5 -57.5q15 19 37.5 44.5t45.5 45.5q18 16 38.5 34.5t40 33t37 22.5t30.5 4q14 -5 18 -17t-3 -27q-14 -32 -34.5 -67.5t-38.5 -72.5q15 19 37.5 44.5
t45.5 45.5q18 16 44.5 34.5t53.5 33t51 22.5t36 4zM799 1q-17 1 -30 9.5t-19.5 25t-6.5 40t10 53.5q7 22 17 47t21.5 50.5t23 50.5t20.5 46q6 12 15.5 16.5t23.5 4.5h54q-11 -9 -19 -16.5t-15.5 -18t-15.5 -26t-19 -38.5q-11 -21 -21.5 -43.5t-20 -44t-16.5 -40t-9 -31.5
q-7 -32 0.5 -45t18.5 -15q20 -3 39.5 15t37.5 47.5t34.5 66t31.5 71t28.5 61.5t25.5 38q8 8 16 12t19 5.5t25.5 1.5h36.5q4 0 1 -2.5t-9 -5.5t-14.5 -5.5t-14.5 -2.5q-29 1 -40.5 -11.5t-25.5 -35.5q-11 -19 -22.5 -47.5t-25 -60t-29.5 -63t-35 -56t-41.5 -39.5t-49.5 -14z
M638 45q20 17 36.5 41.5t31 52.5t27 57t23.5 54.5t21 45t21 29.5q8 8 16 12t19 5.5t25.5 1.5h36.5q4 0 1 -2.5t-9 -5.5t-14.5 -5.5t-14.5 -2.5q-29 1 -41 -11.5t-25 -35.5q-16 -29 -34.5 -76t-42 -92.5t-53 -78.5t-68.5 -33q-24 0 -44.5 8.5t-33.5 32.5q-18 33 -10.5 53
t21.5 25.5t24 -5t-3 -38.5q-4 -8 -2 -17t7.5 -16.5t14 -12t17.5 -4.5q17 1 29.5 4.5t23.5 13.5zM1046 323q6 12 15.5 16.5t23.5 4.5h54q-11 -9 -19 -16.5t-15.5 -18t-15.5 -26t-19 -38.5q-11 -21 -21.5 -43.5t-20 -44t-16.5 -40t-9 -31.5q-7 -32 0.5 -45.5t18.5 -14.5
q18 0 36.5 16t35.5 40.5t32.5 54t28.5 56.5q6 13 13.5 9.5t0.5 -18.5q-12 -26 -28 -57.5t-36 -59.5t-44 -47t-51 -19q-17 0 -30 8.5t-19.5 25t-6.5 40.5t10 54q7 22 17 47t21.5 50.5t23 50.5t20.5 46z" />
    <glyph glyph-name="afii10084_afii10097" unicode="&#x442;&#x44f;" horiz-adv-x="888" 
d="M530 328q-30 -54 -55 -103q-11 -21 -21 -43t-19 -42.5t-15.5 -38.5t-9.5 -31q-5 -31 1 -40.5t16 -9.5q21 0 46 26t48 65q8 13 14.5 8t-1.5 -19q-26 -46 -57.5 -75t-63.5 -29q-14 0 -28 5t-23.5 18.5t-11.5 36t9 57.5q6 20 20 45.5t35 59.5q9 15 10 26t-7.5 13t-26.5 -8
t-47 -37q-16 -15 -38.5 -41.5t-43.5 -57t-37.5 -61t-21.5 -52.5q-17 0 -26.5 16.5t-5.5 38.5q5 33 17 59.5t25 54.5q12 25 22 49t9.5 35t-16.5 3.5t-55 -44.5q-26 -23 -60.5 -68t-77.5 -127q-5 -11 -13 -13.5t-25 -2.5q-11 -1 -18 -1t-15 -5q36 72 67.5 141t68.5 137
q19 36 33 50t38 13q10 -1 20.5 -3.5t21.5 -0.5q-11 -6 -26.5 -26t-32 -47t-33 -57.5t-29.5 -57.5q15 19 37.5 44.5t45.5 45.5q18 16 38.5 34.5t40 33t37 22.5t30.5 4q14 -5 18 -17t-3 -27q-14 -32 -34.5 -67.5t-38.5 -72.5q15 19 37.5 44.5t45.5 45.5q18 16 44.5 34.5
t53.5 33t51 22.5t36 4zM812 144q-7 -14 -14.5 -34.5t-10.5 -40t1.5 -33.5t22.5 -14q19 0 39.5 21t38.5 49t32.5 56.5t22.5 44.5q6 13 13.5 9.5t0.5 -18.5q-11 -23 -27.5 -55t-37.5 -61.5t-46 -50.5t-54 -21q-12 0 -23.5 6.5t-21.5 20.5q-8 13 -10.5 39t6.5 49
q12 25 21.5 44.5t19 37.5t20 37t23.5 43q10 18 16.5 30.5t13 20t14 10.5t19.5 2q10 -1 20.5 -3.5t21.5 -0.5q-11 -6 -26.5 -26t-32 -47t-33 -57.5t-29.5 -57.5zM674 229q4 18 12.5 36.5t20.5 34.5t27.5 28t33.5 17q27 8 47 4t30 -18t9.5 -38t-15.5 -55q-22 -27 -36 -41
q-12 -12 -18 -14t7 22t23 46t13 39t-3 27.5t-25 11.5q-14 1 -27.5 -5.5t-23.5 -20.5q-11 -15 -23.5 -35t-18.5 -37q-4 -10 -5 -24t4 -25.5t19.5 -18t42.5 -2.5q14 2 14 -5.5t-20 -9.5q-33 -4 -52 3.5t-28 20.5t-10 29t2 30zM752 148q-16 -29 -32.5 -56.5t-35.5 -48.5
t-40 -34t-45 -13q-58 0 -80 41q-13 24 -13.5 41.5t6 28t16.5 14t17.5 0t10 -14.5t-6.5 -29q-4 -9 -2 -18.5t7.5 -17.5t14 -13.5t19.5 -5.5q17 -1 29.5 3.5t23.5 14.5q23 20 44.5 49t39.5 61q2 2 14 0q5 -1 13 -2z" />
    <glyph glyph-name="afii10085_afii10077" unicode="&#x443;&#x43b;" horiz-adv-x="798" 
d="M160 -72q-24 -6 -51.5 -13t-55.5 -15t-54 -16.5t-47 -17.5q-38 -17 -63.5 -44t-34 -53.5t1.5 -45.5t42 -19q33 0 68 20.5t67.5 49.5t60 61t44.5 56q5 8 10.5 17.5t11.5 19.5zM328 211q-19 -51 -38.5 -110t-41.5 -119q60 19 99 51t63 76q8 13 16.5 9.5t0.5 -17.5
q-21 -38 -44 -62.5t-47.5 -40.5t-50.5 -26.5t-54 -21.5q-24 -42 -54.5 -89t-68.5 -86.5t-85 -65t-102 -25.5q-38 0 -59 11t-29.5 29t-5.5 39.5t14 42.5q14 28 39.5 48t54.5 34q51 24 116.5 39.5t126.5 32.5q14 25 27 56t24 62t20 59t15 48q-13 -23 -31 -54.5t-40.5 -60
t-49 -49t-55.5 -20.5q-8 0 -17.5 1.5t-18.5 6.5t-16.5 14t-10.5 23q-3 16 -1 31t7.5 29.5t13 28t14.5 27.5q-5 0 -9.5 3t0.5 13q5 8 9 17t9 18l30 58t26 52q6 12 15.5 16.5t23.5 4.5h61q-7 -6 -17.5 -13t-19.5 -23q-26 -44 -47.5 -88t-42.5 -89q-18 -39 -20 -65t7.5 -36.5
t28.5 -3t43 35.5q21 24 43 57t42.5 68.5t39 70.5t32.5 65q6 12 15.5 16.5t23.5 4.5h54q-14 -10 -24.5 -22.5t-19.5 -28.5t-17 -36.5t-17 -45.5zM745 323q6 12 15.5 16.5t23.5 4.5h54q-11 -9 -19 -16.5t-15.5 -18t-15.5 -26t-19 -38.5q-11 -21 -21.5 -43.5t-20 -44t-16.5 -40
t-9 -31.5q-7 -32 0.5 -45.5t18.5 -14.5q18 0 36.5 16t35.5 40.5t32.5 54t28.5 56.5q6 13 13.5 9.5t0.5 -18.5q-12 -26 -28 -57.5t-36 -59.5t-44 -47t-51 -19q-17 0 -30 8.5t-19.5 25t-6.5 40.5t10 54q7 22 17 47t21.5 50.5t23 50.5t20.5 46zM530 45q20 17 36.5 41.5t31 52.5
t27 57t23.5 54.5t21 45t21 29.5q8 8 16 12t19 5.5t25.5 1.5h36.5q4 0 1 -2.5t-9 -5.5t-14.5 -5.5t-14.5 -2.5q-29 1 -41 -11.5t-25 -35.5q-16 -29 -34.5 -76t-42 -92.5t-53 -78.5t-68.5 -33q-24 0 -44.5 8.5t-33.5 32.5q-18 33 -10.5 53t21.5 25.5t24 -5t-3 -38.5
q-4 -8 -2 -17t7.5 -16.5t14 -12t17.5 -4.5q17 1 29.5 4.5t23.5 13.5z" />
    <glyph glyph-name="afii10085_afii10078" unicode="&#x443;&#x43c;" horiz-adv-x="991" 
d="M160 -72q-24 -6 -51.5 -13t-55.5 -15t-54 -16.5t-47 -17.5q-38 -17 -63.5 -44t-34 -53.5t1.5 -45.5t42 -19q33 0 68 20.5t67.5 49.5t60 61t44.5 56q5 8 10.5 17.5t11.5 19.5zM328 211q-19 -51 -38.5 -110t-41.5 -119q60 19 99 51t63 76q8 13 16.5 9.5t0.5 -17.5
q-21 -38 -44 -62.5t-47.5 -40.5t-50.5 -26.5t-54 -21.5q-24 -42 -54.5 -89t-68.5 -86.5t-85 -65t-102 -25.5q-38 0 -59 11t-29.5 29t-5.5 39.5t14 42.5q14 28 39.5 48t54.5 34q51 24 116.5 39.5t126.5 32.5q14 25 27 56t24 62t20 59t15 48q-13 -23 -31 -54.5t-40.5 -60
t-49 -49t-55.5 -20.5q-8 0 -17.5 1.5t-18.5 6.5t-16.5 14t-10.5 23q-3 16 -1 31t7.5 29.5t13 28t14.5 27.5q-5 0 -9.5 3t0.5 13q5 8 9 17t9 18l30 58t26 52q6 12 15.5 16.5t23.5 4.5h61q-7 -6 -17.5 -13t-19.5 -23q-26 -44 -47.5 -88t-42.5 -89q-18 -39 -20 -65t7.5 -36.5
t28.5 -3t43 35.5q21 24 43 57t42.5 68.5t39 70.5t32.5 65q6 12 15.5 16.5t23.5 4.5h54q-14 -10 -24.5 -22.5t-19.5 -28.5t-17 -36.5t-17 -45.5zM691 1q-17 1 -30 9.5t-19.5 25t-6.5 40t10 53.5q7 22 17 47t21.5 50.5t23 50.5t20.5 46q6 12 15.5 16.5t23.5 4.5h54
q-11 -9 -19 -16.5t-15.5 -18t-15.5 -26t-19 -38.5q-11 -21 -21.5 -43.5t-20 -44t-16.5 -40t-9 -31.5q-7 -32 0.5 -45t18.5 -15q20 -3 39.5 15t37.5 47.5t34.5 66t31.5 71t28.5 61.5t25.5 38q8 8 16 12t19 5.5t25.5 1.5h36.5q4 0 1 -2.5t-9 -5.5t-14.5 -5.5t-14.5 -2.5
q-29 1 -40.5 -11.5t-25.5 -35.5q-11 -19 -22.5 -47.5t-25 -60t-29.5 -63t-35 -56t-41.5 -39.5t-49.5 -14zM530 45q20 17 36.5 41.5t31 52.5t27 57t23.5 54.5t21 45t21 29.5q8 8 16 12t19 5.5t25.5 1.5h36.5q4 0 1 -2.5t-9 -5.5t-14.5 -5.5t-14.5 -2.5q-29 1 -41 -11.5
t-25 -35.5q-16 -29 -34.5 -76t-42 -92.5t-53 -78.5t-68.5 -33q-24 0 -44.5 8.5t-33.5 32.5q-18 33 -10.5 53t21.5 25.5t24 -5t-3 -38.5q-4 -8 -2 -17t7.5 -16.5t14 -12t17.5 -4.5q17 1 29.5 4.5t23.5 13.5zM938 323q6 12 15.5 16.5t23.5 4.5h54q-11 -9 -19 -16.5t-15.5 -18
t-15.5 -26t-19 -38.5q-11 -21 -21.5 -43.5t-20 -44t-16.5 -40t-9 -31.5q-7 -32 0.5 -45.5t18.5 -14.5q18 0 36.5 16t35.5 40.5t32.5 54t28.5 56.5q6 13 13.5 9.5t0.5 -18.5q-12 -26 -28 -57.5t-36 -59.5t-44 -47t-51 -19q-17 0 -30 8.5t-19.5 25t-6.5 40.5t10 54q7 22 17 47
t21.5 50.5t23 50.5t20.5 46z" />
    <glyph glyph-name="afii10085_afii10097" unicode="&#x443;&#x44f;" horiz-adv-x="780" 
d="M160 -72q-24 -6 -51.5 -13t-55.5 -15t-54 -16.5t-47 -17.5q-38 -17 -63.5 -44t-34 -53.5t1.5 -45.5t42 -19q33 0 68 20.5t67.5 49.5t60 61t44.5 56q5 8 10.5 17.5t11.5 19.5zM328 211q-19 -51 -38.5 -110t-41.5 -119q60 19 99 51t63 76q8 13 16.5 9.5t0.5 -17.5
q-21 -38 -44 -62.5t-47.5 -40.5t-50.5 -26.5t-54 -21.5q-24 -42 -54.5 -89t-68.5 -86.5t-85 -65t-102 -25.5q-38 0 -59 11t-29.5 29t-5.5 39.5t14 42.5q14 28 39.5 48t54.5 34q51 24 116.5 39.5t126.5 32.5q14 25 27 56t24 62t20 59t15 48q-13 -23 -31 -54.5t-40.5 -60
t-49 -49t-55.5 -20.5q-8 0 -17.5 1.5t-18.5 6.5t-16.5 14t-10.5 23q-3 16 -1 31t7.5 29.5t13 28t14.5 27.5q-5 0 -9.5 3t0.5 13q5 8 9 17t9 18l30 58t26 52q6 12 15.5 16.5t23.5 4.5h61q-7 -6 -17.5 -13t-19.5 -23q-26 -44 -47.5 -88t-42.5 -89q-18 -39 -20 -65t7.5 -36.5
t28.5 -3t43 35.5q21 24 43 57t42.5 68.5t39 70.5t32.5 65q6 12 15.5 16.5t23.5 4.5h54q-14 -10 -24.5 -22.5t-19.5 -28.5t-17 -36.5t-17 -45.5zM704 144q-7 -14 -14.5 -34.5t-10.5 -40t1.5 -33.5t22.5 -14q19 0 39.5 21t38.5 49t32.5 56.5t22.5 44.5q6 13 13.5 9.5
t0.5 -18.5q-11 -23 -27.5 -55t-37.5 -61.5t-46 -50.5t-54 -21q-12 0 -23.5 6.5t-21.5 20.5q-8 13 -10.5 39t6.5 49q12 25 21.5 44.5t19 37.5t20 37t23.5 43q10 18 16.5 30.5t13 20t14 10.5t19.5 2q10 -1 20.5 -3.5t21.5 -0.5q-11 -6 -26.5 -26t-32 -47t-33 -57.5
t-29.5 -57.5zM566 229q4 18 12.5 36.5t20.5 34.5t27.5 28t33.5 17q27 8 47 4t30 -18t9.5 -38t-15.5 -55q-22 -27 -36 -41q-12 -12 -18 -14t7 22t23 46t13 39t-3 27.5t-25 11.5q-14 1 -27.5 -5.5t-23.5 -20.5q-11 -15 -23.5 -35t-18.5 -37q-4 -10 -5 -24t4 -25.5t19.5 -18
t42.5 -2.5q14 2 14 -5.5t-20 -9.5q-33 -4 -52 3.5t-28 20.5t-10 29t2 30zM644 148q-16 -29 -32.5 -56.5t-35.5 -48.5t-40 -34t-45 -13q-58 0 -80 41q-13 24 -13.5 41.5t6 28t16.5 14t17.5 0t10 -14.5t-6.5 -29q-4 -9 -2 -18.5t7.5 -17.5t14 -13.5t19.5 -5.5q17 -1 29.5 3.5
t23.5 14.5q23 20 44.5 49t39.5 61q2 2 14 0q5 -1 13 -2z" />
    <glyph glyph-name="afii10087_afii10077" unicode="&#x445;&#x43b;" horiz-adv-x="732" 
d="M345 291q-20 0 -25 17q-15 -14 -31 -34t-30.5 -43t-26.5 -48t-20 -49q-8 -44 0 -74.5t27 -34.5q28 -6 53.5 15.5t54.5 70.5q4 7 8.5 8.5t7.5 0t3.5 -5.5t-2.5 -9q-26 -47 -58 -76t-75 -29q-19 0 -33 9t-23 23.5t-13.5 31.5t-3.5 34v10t1 10q-26 -50 -57 -89.5t-58 -52.5
q-18 -9 -39 -10t-36 14q-3 4 -2 8t4 7t7.5 4t7.5 -3q17 -15 51 0q15 7 34 27.5t37.5 49.5t35 63t27.5 69q4 20 7 38.5t2 37.5q0 12 -5 19.5t-13.5 7.5t-20.5 -9.5t-26 -32.5q-5 -8 -13.5 -23.5t-17.5 -33.5t-18 -34t-13 -24q-7 -12 -12 -7.5t3 20.5q7 15 17.5 36.5
t22.5 43.5t24 40.5t22 27.5q14 11 28 18t28 5q20 -2 30.5 -14t14 -30t1.5 -39.5t-6 -42.5q13 25 29 49.5t32.5 44.5t31.5 33.5t26 16.5q8 2 16 1.5t14 -4.5t9 -10.5t1 -16.5q-3 -14 -14.5 -23t-25.5 -9zM679 323q6 12 15.5 16.5t23.5 4.5h54q-11 -9 -19 -16.5t-15.5 -18
t-15.5 -26t-19 -38.5q-11 -21 -21.5 -43.5t-20 -44t-16.5 -40t-9 -31.5q-7 -32 0.5 -45.5t18.5 -14.5q18 0 36.5 16t35.5 40.5t32.5 54t28.5 56.5q6 13 13.5 9.5t0.5 -18.5q-12 -26 -28 -57.5t-36 -59.5t-44 -47t-51 -19q-17 0 -30 8.5t-19.5 25t-6.5 40.5t10 54q7 22 17 47
t21.5 50.5t23 50.5t20.5 46zM464 45q20 17 36.5 41.5t31 52.5t27 57t23.5 54.5t21 45t21 29.5q8 8 16 12t19 5.5t25.5 1.5h36.5q4 0 1 -2.5t-9 -5.5t-14.5 -5.5t-14.5 -2.5q-29 1 -41 -11.5t-25 -35.5q-16 -29 -34.5 -76t-42 -92.5t-53 -78.5t-68.5 -33q-24 0 -44.5 8.5
t-33.5 32.5q-18 33 -10.5 53t21.5 25.5t24 -5t-3 -38.5q-4 -8 -2 -17t7.5 -16.5t14 -12t17.5 -4.5q17 1 29.5 4.5t23.5 13.5z" />
    <glyph glyph-name="afii10087_afii10078" unicode="&#x445;&#x43c;" horiz-adv-x="925" 
d="M345 291q-20 0 -25 17q-15 -14 -31 -34t-30.5 -43t-26.5 -48t-20 -49q-8 -44 0 -74.5t27 -34.5q28 -6 53.5 15.5t54.5 70.5q4 7 8.5 8.5t7.5 0t3.5 -5.5t-2.5 -9q-26 -47 -58 -76t-75 -29q-19 0 -33 9t-23 23.5t-13.5 31.5t-3.5 34v10t1 10q-26 -50 -57 -89.5t-58 -52.5
q-18 -9 -39 -10t-36 14q-3 4 -2 8t4 7t7.5 4t7.5 -3q17 -15 51 0q15 7 34 27.5t37.5 49.5t35 63t27.5 69q4 20 7 38.5t2 37.5q0 12 -5 19.5t-13.5 7.5t-20.5 -9.5t-26 -32.5q-5 -8 -13.5 -23.5t-17.5 -33.5t-18 -34t-13 -24q-7 -12 -12 -7.5t3 20.5q7 15 17.5 36.5
t22.5 43.5t24 40.5t22 27.5q14 11 28 18t28 5q20 -2 30.5 -14t14 -30t1.5 -39.5t-6 -42.5q13 25 29 49.5t32.5 44.5t31.5 33.5t26 16.5q8 2 16 1.5t14 -4.5t9 -10.5t1 -16.5q-3 -14 -14.5 -23t-25.5 -9zM625 1q-17 1 -30 9.5t-19.5 25t-6.5 40t10 53.5q7 22 17 47t21.5 50.5
t23 50.5t20.5 46q6 12 15.5 16.5t23.5 4.5h54q-11 -9 -19 -16.5t-15.5 -18t-15.5 -26t-19 -38.5q-11 -21 -21.5 -43.5t-20 -44t-16.5 -40t-9 -31.5q-7 -32 0.5 -45t18.5 -15q20 -3 39.5 15t37.5 47.5t34.5 66t31.5 71t28.5 61.5t25.5 38q8 8 16 12t19 5.5t25.5 1.5h36.5
q4 0 1 -2.5t-9 -5.5t-14.5 -5.5t-14.5 -2.5q-29 1 -40.5 -11.5t-25.5 -35.5q-11 -19 -22.5 -47.5t-25 -60t-29.5 -63t-35 -56t-41.5 -39.5t-49.5 -14zM464 45q20 17 36.5 41.5t31 52.5t27 57t23.5 54.5t21 45t21 29.5q8 8 16 12t19 5.5t25.5 1.5h36.5q4 0 1 -2.5t-9 -5.5
t-14.5 -5.5t-14.5 -2.5q-29 1 -41 -11.5t-25 -35.5q-16 -29 -34.5 -76t-42 -92.5t-53 -78.5t-68.5 -33q-24 0 -44.5 8.5t-33.5 32.5q-18 33 -10.5 53t21.5 25.5t24 -5t-3 -38.5q-4 -8 -2 -17t7.5 -16.5t14 -12t17.5 -4.5q17 1 29.5 4.5t23.5 13.5zM872 323q6 12 15.5 16.5
t23.5 4.5h54q-11 -9 -19 -16.5t-15.5 -18t-15.5 -26t-19 -38.5q-11 -21 -21.5 -43.5t-20 -44t-16.5 -40t-9 -31.5q-7 -32 0.5 -45.5t18.5 -14.5q18 0 36.5 16t35.5 40.5t32.5 54t28.5 56.5q6 13 13.5 9.5t0.5 -18.5q-12 -26 -28 -57.5t-36 -59.5t-44 -47t-51 -19
q-17 0 -30 8.5t-19.5 25t-6.5 40.5t10 54q7 22 17 47t21.5 50.5t23 50.5t20.5 46z" />
    <glyph glyph-name="afii10087_afii10097" unicode="&#x445;&#x44f;" horiz-adv-x="713" 
d="M345 291q-20 0 -25 17q-15 -14 -31 -34t-30.5 -43t-26.5 -48t-20 -49q-8 -44 0 -74.5t27 -34.5q28 -6 53.5 15.5t54.5 70.5q4 7 8.5 8.5t7.5 0t3.5 -5.5t-2.5 -9q-26 -47 -58 -76t-75 -29q-19 0 -33 9t-23 23.5t-13.5 31.5t-3.5 34v10t1 10q-26 -50 -57 -89.5t-58 -52.5
q-18 -9 -39 -10t-36 14q-3 4 -2 8t4 7t7.5 4t7.5 -3q17 -15 51 0q15 7 34 27.5t37.5 49.5t35 63t27.5 69q4 20 7 38.5t2 37.5q0 12 -5 19.5t-13.5 7.5t-20.5 -9.5t-26 -32.5q-5 -8 -13.5 -23.5t-17.5 -33.5t-18 -34t-13 -24q-7 -12 -12 -7.5t3 20.5q7 15 17.5 36.5
t22.5 43.5t24 40.5t22 27.5q14 11 28 18t28 5q20 -2 30.5 -14t14 -30t1.5 -39.5t-6 -42.5q13 25 29 49.5t32.5 44.5t31.5 33.5t26 16.5q8 2 16 1.5t14 -4.5t9 -10.5t1 -16.5q-3 -14 -14.5 -23t-25.5 -9zM637 144q-7 -14 -14.5 -34.5t-10.5 -40t1.5 -33.5t22.5 -14
q19 0 39.5 21t38.5 49t32.5 56.5t22.5 44.5q6 13 13.5 9.5t0.5 -18.5q-11 -23 -27.5 -55t-37.5 -61.5t-46 -50.5t-54 -21q-12 0 -23.5 6.5t-21.5 20.5q-8 13 -10.5 39t6.5 49q12 25 21.5 44.5t19 37.5t20 37t23.5 43q10 18 16.5 30.5t13 20t14 10.5t19.5 2q10 -1 20.5 -3.5
t21.5 -0.5q-11 -6 -26.5 -26t-32 -47t-33 -57.5t-29.5 -57.5zM499 229q4 18 12.5 36.5t20.5 34.5t27.5 28t33.5 17q27 8 47 4t30 -18t9.5 -38t-15.5 -55q-22 -27 -36 -41q-12 -12 -18 -14t7 22t23 46t13 39t-3 27.5t-25 11.5q-14 1 -27.5 -5.5t-23.5 -20.5
q-11 -15 -23.5 -35t-18.5 -37q-4 -10 -5 -24t4 -25.5t19.5 -18t42.5 -2.5q14 2 14 -5.5t-20 -9.5q-33 -4 -52 3.5t-28 20.5t-10 29t2 30zM577 148q-16 -29 -32.5 -56.5t-35.5 -48.5t-40 -34t-45 -13q-58 0 -80 41q-13 24 -13.5 41.5t6 28t16.5 14t17.5 0t10 -14.5t-6.5 -29
q-4 -9 -2 -18.5t7.5 -17.5t14 -13.5t19.5 -5.5q17 -1 29.5 3.5t23.5 14.5q23 20 44.5 49t39.5 61q2 2 14 0q5 -1 13 -2z" />
    <glyph glyph-name="afii10088_afii10077" unicode="&#x446;&#x43b;" horiz-adv-x="756" 
d="M315 17q-20 -16 -40.5 -37t-38 -43t-28.5 -44t-12 -39q0 -14 6 -23.5t23 -9.5q14 0 27.5 10t23.5 20q2 2 7 2.5t3 -6.5q-2 -8 -9.5 -17.5t-20.5 -18t-29.5 -14.5t-35.5 -6t-32.5 11t-12.5 34t19.5 53t44.5 58t53.5 50t45.5 30h5.5t0.5 -10zM398 344q-11 -9 -19 -16.5
t-15.5 -18t-15.5 -26t-19 -38.5q-11 -21 -21.5 -43.5t-20 -44t-16.5 -40t-9 -31.5q-7 -32 0.5 -45.5t18.5 -14.5q23 0 45.5 23.5t45.5 62.5q8 12 15.5 8.5t-0.5 -17.5q-11 -19 -24 -37t-27.5 -32.5t-31.5 -23.5t-35 -9q-17 0 -30 8.5t-19.5 25t-6.5 40.5t10 54
q-13 -23 -28.5 -45.5t-33 -41t-36.5 -30t-37 -11.5q-8 0 -17.5 1.5t-18.5 6.5t-16.5 14t-10.5 23q-3 16 -1 31t7.5 29.5t13 28t14.5 27.5q-5 0 -9.5 3t0.5 13q5 8 9 17t9 18l30 58t26 52q6 12 15.5 16.5t23.5 4.5h61q-9 -6 -16 -12.5t-14.5 -15.5t-15.5 -22t-18 -34
q-14 -26 -25 -50q-11 -21 -21 -43t-17 -36q-18 -39 -20 -65t7.5 -36.5t28.5 -3t43 35.5q21 24 41.5 57t39.5 68.5t36.5 70.5t31.5 65q6 12 15.5 16.5t23.5 4.5h54zM703 323q6 12 15.5 16.5t23.5 4.5h54q-11 -9 -19 -16.5t-15.5 -18t-15.5 -26t-19 -38.5q-11 -21 -21.5 -43.5
t-20 -44t-16.5 -40t-9 -31.5q-7 -32 0.5 -45.5t18.5 -14.5q18 0 36.5 16t35.5 40.5t32.5 54t28.5 56.5q6 13 13.5 9.5t0.5 -18.5q-12 -26 -28 -57.5t-36 -59.5t-44 -47t-51 -19q-17 0 -30 8.5t-19.5 25t-6.5 40.5t10 54q7 22 17 47t21.5 50.5t23 50.5t20.5 46zM488 45
q20 17 36.5 41.5t31 52.5t27 57t23.5 54.5t21 45t21 29.5q8 8 16 12t19 5.5t25.5 1.5h36.5q4 0 1 -2.5t-9 -5.5t-14.5 -5.5t-14.5 -2.5q-29 1 -41 -11.5t-25 -35.5q-16 -29 -34.5 -76t-42 -92.5t-53 -78.5t-68.5 -33q-24 0 -44.5 8.5t-33.5 32.5q-18 33 -10.5 53t21.5 25.5
t24 -5t-3 -38.5q-4 -8 -2 -17t7.5 -16.5t14 -12t17.5 -4.5q17 1 29.5 4.5t23.5 13.5z" />
    <glyph glyph-name="afii10088_afii10078" unicode="&#x446;&#x43c;" horiz-adv-x="949" 
d="M398 344q-11 -9 -19 -16.5t-15.5 -18t-15.5 -26t-19 -38.5q-11 -21 -21.5 -43.5t-20 -44t-16.5 -40t-9 -31.5q-7 -32 0.5 -45.5t18.5 -14.5q23 0 45.5 23.5t45.5 62.5q8 12 15.5 8.5t-0.5 -17.5q-11 -19 -24 -37t-27.5 -32.5t-31.5 -23.5t-35 -9q-17 0 -30 8.5t-19.5 25
t-6.5 40.5t10 54q-13 -23 -28.5 -45.5t-33 -41t-36.5 -30t-37 -11.5q-8 0 -17.5 1.5t-18.5 6.5t-16.5 14t-10.5 23q-3 16 -1 31t7.5 29.5t13 28t14.5 27.5q-5 0 -9.5 3t0.5 13q5 8 9 17t9 18l30 58t26 52q6 12 15.5 16.5t23.5 4.5h61q-9 -6 -16 -12.5t-14.5 -15.5t-15.5 -22
t-18 -34q-14 -26 -25 -50q-11 -21 -21 -43t-17 -36q-18 -39 -20 -65t7.5 -36.5t28.5 -3t43 35.5q21 24 41.5 57t39.5 68.5t36.5 70.5t31.5 65q6 12 15.5 16.5t23.5 4.5h54zM315 17q-20 -16 -40.5 -37t-38 -43t-28.5 -44t-12 -39q0 -14 6 -23.5t23 -9.5q14 0 27.5 10t23.5 20
q2 2 7 2.5t3 -6.5q-2 -8 -9.5 -17.5t-20.5 -18t-29.5 -14.5t-35.5 -6t-32.5 11t-12.5 34t19.5 53t44.5 58t53.5 50t45.5 30h5.5t0.5 -10zM649 1q-17 1 -30 9.5t-19.5 25t-6.5 40t10 53.5q7 22 17 47t21.5 50.5t23 50.5t20.5 46q6 12 15.5 16.5t23.5 4.5h54q-11 -9 -19 -16.5
t-15.5 -18t-15.5 -26t-19 -38.5q-11 -21 -21.5 -43.5t-20 -44t-16.5 -40t-9 -31.5q-7 -32 0.5 -45t18.5 -15q20 -3 39.5 15t37.5 47.5t34.5 66t31.5 71t28.5 61.5t25.5 38q8 8 16 12t19 5.5t25.5 1.5h36.5q4 0 1 -2.5t-9 -5.5t-14.5 -5.5t-14.5 -2.5q-29 1 -40.5 -11.5
t-25.5 -35.5q-11 -19 -22.5 -47.5t-25 -60t-29.5 -63t-35 -56t-41.5 -39.5t-49.5 -14zM488 45q20 17 36.5 41.5t31 52.5t27 57t23.5 54.5t21 45t21 29.5q8 8 16 12t19 5.5t25.5 1.5h36.5q4 0 1 -2.5t-9 -5.5t-14.5 -5.5t-14.5 -2.5q-29 1 -41 -11.5t-25 -35.5
q-16 -29 -34.5 -76t-42 -92.5t-53 -78.5t-68.5 -33q-24 0 -44.5 8.5t-33.5 32.5q-18 33 -10.5 53t21.5 25.5t24 -5t-3 -38.5q-4 -8 -2 -17t7.5 -16.5t14 -12t17.5 -4.5q17 1 29.5 4.5t23.5 13.5zM896 323q6 12 15.5 16.5t23.5 4.5h54q-11 -9 -19 -16.5t-15.5 -18t-15.5 -26
t-19 -38.5q-11 -21 -21.5 -43.5t-20 -44t-16.5 -40t-9 -31.5q-7 -32 0.5 -45.5t18.5 -14.5q18 0 36.5 16t35.5 40.5t32.5 54t28.5 56.5q6 13 13.5 9.5t0.5 -18.5q-12 -26 -28 -57.5t-36 -59.5t-44 -47t-51 -19q-17 0 -30 8.5t-19.5 25t-6.5 40.5t10 54q7 22 17 47t21.5 50.5
t23 50.5t20.5 46z" />
    <glyph glyph-name="afii10088_afii10097" unicode="&#x446;&#x44f;" horiz-adv-x="738" 
d="M315 17q-20 -16 -40.5 -37t-38 -43t-28.5 -44t-12 -39q0 -14 6 -23.5t23 -9.5q14 0 27.5 10t23.5 20q2 2 7 2.5t3 -6.5q-2 -8 -9.5 -17.5t-20.5 -18t-29.5 -14.5t-35.5 -6t-32.5 11t-12.5 34t19.5 53t44.5 58t53.5 50t45.5 30h5.5t0.5 -10zM398 344q-11 -9 -19 -16.5
t-15.5 -18t-15.5 -26t-19 -38.5q-11 -21 -21.5 -43.5t-20 -44t-16.5 -40t-9 -31.5q-7 -32 0.5 -45.5t18.5 -14.5q23 0 45.5 23.5t45.5 62.5q8 12 15.5 8.5t-0.5 -17.5q-11 -19 -24 -37t-27.5 -32.5t-31.5 -23.5t-35 -9q-17 0 -30 8.5t-19.5 25t-6.5 40.5t10 54
q-13 -23 -28.5 -45.5t-33 -41t-36.5 -30t-37 -11.5q-8 0 -17.5 1.5t-18.5 6.5t-16.5 14t-10.5 23q-3 16 -1 31t7.5 29.5t13 28t14.5 27.5q-5 0 -9.5 3t0.5 13q5 8 9 17t9 18l30 58t26 52q6 12 15.5 16.5t23.5 4.5h61q-9 -6 -16 -12.5t-14.5 -15.5t-15.5 -22t-18 -34
q-14 -26 -25 -50q-11 -21 -21 -43t-17 -36q-18 -39 -20 -65t7.5 -36.5t28.5 -3t43 35.5q21 24 41.5 57t39.5 68.5t36.5 70.5t31.5 65q6 12 15.5 16.5t23.5 4.5h54zM662 144q-7 -14 -14.5 -34.5t-10.5 -40t1.5 -33.5t22.5 -14q19 0 39.5 21t38.5 49t32.5 56.5t22.5 44.5
q6 13 13.5 9.5t0.5 -18.5q-11 -23 -27.5 -55t-37.5 -61.5t-46 -50.5t-54 -21q-12 0 -23.5 6.5t-21.5 20.5q-8 13 -10.5 39t6.5 49q12 25 21.5 44.5t19 37.5t20 37t23.5 43q10 18 16.5 30.5t13 20t14 10.5t19.5 2q10 -1 20.5 -3.5t21.5 -0.5q-11 -6 -26.5 -26t-32 -47
t-33 -57.5t-29.5 -57.5zM524 229q4 18 12.5 36.5t20.5 34.5t27.5 28t33.5 17q27 8 47 4t30 -18t9.5 -38t-15.5 -55q-22 -27 -36 -41q-12 -12 -18 -14t7 22t23 46t13 39t-3 27.5t-25 11.5q-14 1 -27.5 -5.5t-23.5 -20.5q-11 -15 -23.5 -35t-18.5 -37q-4 -10 -5 -24t4 -25.5
t19.5 -18t42.5 -2.5q14 2 14 -5.5t-20 -9.5q-33 -4 -52 3.5t-28 20.5t-10 29t2 30zM602 148q-16 -29 -32.5 -56.5t-35.5 -48.5t-40 -34t-45 -13q-58 0 -80 41q-13 24 -13.5 41.5t6 28t16.5 14t17.5 0t10 -14.5t-6.5 -29q-4 -9 -2 -18.5t7.5 -17.5t14 -13.5t19.5 -5.5
q17 -1 29.5 3.5t23.5 14.5q23 20 44.5 49t39.5 61q2 2 14 0q5 -1 13 -2z" />
    <glyph glyph-name="afii10089_afii10077" unicode="&#x447;&#x43b;" horiz-adv-x="659" 
d="M251 243l-13.5 -27t-21 -42.5t-22 -49.5t-15.5 -47.5t-2.5 -35.5t17.5 -15q9 0 19 7t20.5 18.5t21 27t19.5 31.5q8 13 14.5 8t-2.5 -19q-30 -51 -55.5 -72t-45.5 -26q-13 -3 -28.5 1.5t-26.5 19.5t-13 40.5t13 64.5q6 15 14.5 32t18 33t17.5 30t12 23q11 25 -12 35.5
t-65 11.5l-12 -32q-9 -24 -22 -54.5t-29 -62t-34 -59t-36 -45.5q-6 -5 -9.5 0.5t1.5 12.5q30 39 55 85.5t44.5 95t33 96.5t21.5 90q4 21 16 27.5t23.5 0.5t19 -22.5t2.5 -41.5q-5 -21 -23.5 -39.5t-31.5 -27.5q28 -2 64.5 -1t73.5 5q3 -5 1.5 -14.5t-5 -20t-8.5 -22
t-9 -20.5zM606 323q6 12 15.5 16.5t23.5 4.5h54q-11 -9 -19 -16.5t-15.5 -18t-15.5 -26t-19 -38.5q-11 -21 -21.5 -43.5t-20 -44t-16.5 -40t-9 -31.5q-7 -32 0.5 -45.5t18.5 -14.5q18 0 36.5 16t35.5 40.5t32.5 54t28.5 56.5q6 13 13.5 9.5t0.5 -18.5q-12 -26 -28 -57.5
t-36 -59.5t-44 -47t-51 -19q-17 0 -30 8.5t-19.5 25t-6.5 40.5t10 54q7 22 17 47t21.5 50.5t23 50.5t20.5 46zM391 45q20 17 36.5 41.5t31 52.5t27 57t23.5 54.5t21 45t21 29.5q8 8 16 12t19 5.5t25.5 1.5h36.5q4 0 1 -2.5t-9 -5.5t-14.5 -5.5t-14.5 -2.5q-29 1 -41 -11.5
t-25 -35.5q-16 -29 -34.5 -76t-42 -92.5t-53 -78.5t-68.5 -33q-24 0 -44.5 8.5t-33.5 32.5q-18 33 -10.5 53t21.5 25.5t24 -5t-3 -38.5q-4 -8 -2 -17t7.5 -16.5t14 -12t17.5 -4.5q17 1 29.5 4.5t23.5 13.5z" />
    <glyph glyph-name="afii10089_afii10078" unicode="&#x447;&#x43c;" horiz-adv-x="852" 
d="M251 243l-13.5 -27t-21 -42.5t-22 -49.5t-15.5 -47.5t-2.5 -35.5t17.5 -15q9 0 19 7t20.5 18.5t21 27t19.5 31.5q8 13 14.5 8t-2.5 -19q-30 -51 -55.5 -72t-45.5 -26q-13 -3 -28.5 1.5t-26.5 19.5t-13 40.5t13 64.5q6 15 14.5 32t18 33t17.5 30t12 23q11 25 -12 35.5
t-65 11.5l-12 -32q-9 -24 -22 -54.5t-29 -62t-34 -59t-36 -45.5q-6 -5 -9.5 0.5t1.5 12.5q30 39 55 85.5t44.5 95t33 96.5t21.5 90q4 21 16 27.5t23.5 0.5t19 -22.5t2.5 -41.5q-5 -21 -23.5 -39.5t-31.5 -27.5q28 -2 64.5 -1t73.5 5q3 -5 1.5 -14.5t-5 -20t-8.5 -22
t-9 -20.5zM552 1q-17 1 -30 9.5t-19.5 25t-6.5 40t10 53.5q7 22 17 47t21.5 50.5t23 50.5t20.5 46q6 12 15.5 16.5t23.5 4.5h54q-11 -9 -19 -16.5t-15.5 -18t-15.5 -26t-19 -38.5q-11 -21 -21.5 -43.5t-20 -44t-16.5 -40t-9 -31.5q-7 -32 0.5 -45t18.5 -15q20 -3 39.5 15
t37.5 47.5t34.5 66t31.5 71t28.5 61.5t25.5 38q8 8 16 12t19 5.5t25.5 1.5h36.5q4 0 1 -2.5t-9 -5.5t-14.5 -5.5t-14.5 -2.5q-29 1 -40.5 -11.5t-25.5 -35.5q-11 -19 -22.5 -47.5t-25 -60t-29.5 -63t-35 -56t-41.5 -39.5t-49.5 -14zM391 45q20 17 36.5 41.5t31 52.5t27 57
t23.5 54.5t21 45t21 29.5q8 8 16 12t19 5.5t25.5 1.5h36.5q4 0 1 -2.5t-9 -5.5t-14.5 -5.5t-14.5 -2.5q-29 1 -41 -11.5t-25 -35.5q-16 -29 -34.5 -76t-42 -92.5t-53 -78.5t-68.5 -33q-24 0 -44.5 8.5t-33.5 32.5q-18 33 -10.5 53t21.5 25.5t24 -5t-3 -38.5q-4 -8 -2 -17
t7.5 -16.5t14 -12t17.5 -4.5q17 1 29.5 4.5t23.5 13.5zM799 323q6 12 15.5 16.5t23.5 4.5h54q-11 -9 -19 -16.5t-15.5 -18t-15.5 -26t-19 -38.5q-11 -21 -21.5 -43.5t-20 -44t-16.5 -40t-9 -31.5q-7 -32 0.5 -45.5t18.5 -14.5q18 0 36.5 16t35.5 40.5t32.5 54t28.5 56.5
q6 13 13.5 9.5t0.5 -18.5q-12 -26 -28 -57.5t-36 -59.5t-44 -47t-51 -19q-17 0 -30 8.5t-19.5 25t-6.5 40.5t10 54q7 22 17 47t21.5 50.5t23 50.5t20.5 46z" />
    <glyph glyph-name="afii10089_afii10097" unicode="&#x447;&#x44f;" horiz-adv-x="642" 
d="M251 243l-13.5 -27t-21 -42.5t-22 -49.5t-15.5 -47.5t-2.5 -35.5t17.5 -15q9 0 19 7t20.5 18.5t21 27t19.5 31.5q8 13 14.5 8t-2.5 -19q-30 -51 -55.5 -72t-45.5 -26q-13 -3 -28.5 1.5t-26.5 19.5t-13 40.5t13 64.5q6 15 14.5 32t18 33t17.5 30t12 23q11 25 -12 35.5
t-65 11.5l-12 -32q-9 -24 -22 -54.5t-29 -62t-34 -59t-36 -45.5q-6 -5 -9.5 0.5t1.5 12.5q30 39 55 85.5t44.5 95t33 96.5t21.5 90q4 21 16 27.5t23.5 0.5t19 -22.5t2.5 -41.5q-5 -21 -23.5 -39.5t-31.5 -27.5q28 -2 64.5 -1t73.5 5q3 -5 1.5 -14.5t-5 -20t-8.5 -22
t-9 -20.5zM566 144q-7 -14 -14.5 -34.5t-10.5 -40t1.5 -33.5t22.5 -14q19 0 39.5 21t38.5 49t32.5 56.5t22.5 44.5q6 13 13.5 9.5t0.5 -18.5q-11 -23 -27.5 -55t-37.5 -61.5t-46 -50.5t-54 -21q-12 0 -23.5 6.5t-21.5 20.5q-8 13 -10.5 39t6.5 49q12 25 21.5 44.5t19 37.5
t20 37t23.5 43q10 18 16.5 30.5t13 20t14 10.5t19.5 2q10 -1 20.5 -3.5t21.5 -0.5q-11 -6 -26.5 -26t-32 -47t-33 -57.5t-29.5 -57.5zM428 229q4 18 12.5 36.5t20.5 34.5t27.5 28t33.5 17q27 8 47 4t30 -18t9.5 -38t-15.5 -55q-22 -27 -36 -41q-12 -12 -18 -14t7 22t23 46
t13 39t-3 27.5t-25 11.5q-14 1 -27.5 -5.5t-23.5 -20.5q-11 -15 -23.5 -35t-18.5 -37q-4 -10 -5 -24t4 -25.5t19.5 -18t42.5 -2.5q14 2 14 -5.5t-20 -9.5q-33 -4 -52 3.5t-28 20.5t-10 29t2 30zM506 148q-16 -29 -32.5 -56.5t-35.5 -48.5t-40 -34t-45 -13q-58 0 -80 41
q-13 24 -13.5 41.5t6 28t16.5 14t17.5 0t10 -14.5t-6.5 -29q-4 -9 -2 -18.5t7.5 -17.5t14 -13.5t19.5 -5.5q17 -1 29.5 3.5t23.5 14.5q23 20 44.5 49t39.5 61q2 2 14 0q5 -1 13 -2z" />
    <glyph glyph-name="afii10090_afii10077" unicode="&#x448;&#x43b;" horiz-adv-x="937" 
d="M413 -43q-8 -12 -19.5 -24.5t-26.5 -22.5t-33.5 -16t-39.5 -5q-20 1 -38.5 6t-36.5 10.5t-36 10t-36 5.5q-23 2 -38.5 -6.5t-24.5 -20.5q-1 -2 -6 -2.5t-10 0t-9 1.5t-4 3q17 22 47.5 43.5t72.5 19.5q19 -1 37.5 -5t37 -9.5t36 -10t35.5 -5.5q25 -2 41 6.5t27 22.5
q0 1 4.5 1.5t9 0.5t8 -1t2.5 -2zM223 129q-13 -23 -28.5 -45.5t-33 -41t-36.5 -30t-37 -11.5q-8 0 -17.5 1.5t-18.5 6.5t-16.5 14t-10.5 23q-3 16 -1 31t7.5 29.5t13 28t14.5 27.5q-5 0 -9.5 3t0.5 13q5 8 9 17t9 18l30 58t26 52q6 12 15.5 16.5t23.5 4.5h61
q-9 -6 -16 -12.5t-14.5 -15.5t-15.5 -22t-18 -34q-14 -26 -25 -50q-11 -21 -21 -43t-17 -36q-18 -39 -20 -65t7.5 -36.5t28.5 -3t43 35.5q21 24 41.5 57t39.5 68.5t36.5 70.5t31.5 65q6 12 15.5 16.5t23.5 4.5h54q-11 -9 -19 -16.5t-15.5 -18t-15.5 -26t-19 -38.5
q-11 -21 -21.5 -43.5t-20 -44t-16.5 -40t-9 -31.5q-7 -32 0.5 -45.5t18.5 -14.5q14 0 28 10t28 26q21 24 41.5 57t39.5 68.5t36.5 70.5t31.5 65q6 12 15.5 16.5t23.5 4.5h54q-11 -9 -19 -16.5t-15.5 -18t-15.5 -26t-19 -38.5q-11 -21 -21.5 -43.5t-20 -44t-16.5 -40
t-9 -31.5q-7 -32 0.5 -45.5t18.5 -14.5q22 2 43 21t47 63q8 13 15 8.5t-1 -18.5q-31 -54 -60.5 -76.5t-55.5 -22.5q-17 0 -30 8.5t-19.5 25t-6.5 40.5t10 54q-9 -17 -23.5 -39t-32.5 -41.5t-38 -33.5t-41 -14q-17 0 -30 8.5t-19.5 25t-6.5 40.5t10 54zM884 323
q6 12 15.5 16.5t23.5 4.5h54q-11 -9 -19 -16.5t-15.5 -18t-15.5 -26t-19 -38.5q-11 -21 -21.5 -43.5t-20 -44t-16.5 -40t-9 -31.5q-7 -32 0.5 -45.5t18.5 -14.5q18 0 36.5 16t35.5 40.5t32.5 54t28.5 56.5q6 13 13.5 9.5t0.5 -18.5q-12 -26 -28 -57.5t-36 -59.5t-44 -47
t-51 -19q-17 0 -30 8.5t-19.5 25t-6.5 40.5t10 54q7 22 17 47t21.5 50.5t23 50.5t20.5 46zM669 45q20 17 36.5 41.5t31 52.5t27 57t23.5 54.5t21 45t21 29.5q8 8 16 12t19 5.5t25.5 1.5h36.5q4 0 1 -2.5t-9 -5.5t-14.5 -5.5t-14.5 -2.5q-29 1 -41 -11.5t-25 -35.5
q-16 -29 -34.5 -76t-42 -92.5t-53 -78.5t-68.5 -33q-24 0 -44.5 8.5t-33.5 32.5q-18 33 -10.5 53t21.5 25.5t24 -5t-3 -38.5q-4 -8 -2 -17t7.5 -16.5t14 -12t17.5 -4.5q17 1 29.5 4.5t23.5 13.5z" />
    <glyph glyph-name="afii10090_afii10078" unicode="&#x448;&#x43c;" horiz-adv-x="1130" 
d="M223 129q-13 -23 -28.5 -45.5t-33 -41t-36.5 -30t-37 -11.5q-8 0 -17.5 1.5t-18.5 6.5t-16.5 14t-10.5 23q-3 16 -1 31t7.5 29.5t13 28t14.5 27.5q-5 0 -9.5 3t0.5 13q5 8 9 17t9 18l30 58t26 52q6 12 15.5 16.5t23.5 4.5h61q-9 -6 -16 -12.5t-14.5 -15.5t-15.5 -22
t-18 -34q-14 -26 -25 -50q-11 -21 -21 -43t-17 -36q-18 -39 -20 -65t7.5 -36.5t28.5 -3t43 35.5q21 24 41.5 57t39.5 68.5t36.5 70.5t31.5 65q6 12 15.5 16.5t23.5 4.5h54q-11 -9 -19 -16.5t-15.5 -18t-15.5 -26t-19 -38.5q-11 -21 -21.5 -43.5t-20 -44t-16.5 -40t-9 -31.5
q-7 -32 0.5 -45.5t18.5 -14.5q14 0 28 10t28 26q21 24 41.5 57t39.5 68.5t36.5 70.5t31.5 65q6 12 15.5 16.5t23.5 4.5h54q-11 -9 -19 -16.5t-15.5 -18t-15.5 -26t-19 -38.5q-11 -21 -21.5 -43.5t-20 -44t-16.5 -40t-9 -31.5q-7 -32 0.5 -45.5t18.5 -14.5q22 2 43 21t47 63
q8 13 15 8.5t-1 -18.5q-31 -54 -60.5 -76.5t-55.5 -22.5q-17 0 -30 8.5t-19.5 25t-6.5 40.5t10 54q-9 -17 -23.5 -39t-32.5 -41.5t-38 -33.5t-41 -14q-17 0 -30 8.5t-19.5 25t-6.5 40.5t10 54zM413 -43q-8 -12 -19.5 -24.5t-26.5 -22.5t-33.5 -16t-39.5 -5q-20 1 -38.5 6
t-36.5 10.5t-36 10t-36 5.5q-23 2 -38.5 -6.5t-24.5 -20.5q-1 -2 -6 -2.5t-10 0t-9 1.5t-4 3q17 22 47.5 43.5t72.5 19.5q19 -1 37.5 -5t37 -9.5t36 -10t35.5 -5.5q25 -2 41 6.5t27 22.5q0 1 4.5 1.5t9 0.5t8 -1t2.5 -2zM830 1q-17 1 -30 9.5t-19.5 25t-6.5 40t10 53.5
q7 22 17 47t21.5 50.5t23 50.5t20.5 46q6 12 15.5 16.5t23.5 4.5h54q-11 -9 -19 -16.5t-15.5 -18t-15.5 -26t-19 -38.5q-11 -21 -21.5 -43.5t-20 -44t-16.5 -40t-9 -31.5q-7 -32 0.5 -45t18.5 -15q20 -3 39.5 15t37.5 47.5t34.5 66t31.5 71t28.5 61.5t25.5 38q8 8 16 12
t19 5.5t25.5 1.5h36.5q4 0 1 -2.5t-9 -5.5t-14.5 -5.5t-14.5 -2.5q-29 1 -40.5 -11.5t-25.5 -35.5q-11 -19 -22.5 -47.5t-25 -60t-29.5 -63t-35 -56t-41.5 -39.5t-49.5 -14zM669 45q20 17 36.5 41.5t31 52.5t27 57t23.5 54.5t21 45t21 29.5q8 8 16 12t19 5.5t25.5 1.5h36.5
q4 0 1 -2.5t-9 -5.5t-14.5 -5.5t-14.5 -2.5q-29 1 -41 -11.5t-25 -35.5q-16 -29 -34.5 -76t-42 -92.5t-53 -78.5t-68.5 -33q-24 0 -44.5 8.5t-33.5 32.5q-18 33 -10.5 53t21.5 25.5t24 -5t-3 -38.5q-4 -8 -2 -17t7.5 -16.5t14 -12t17.5 -4.5q17 1 29.5 4.5t23.5 13.5z
M1077 323q6 12 15.5 16.5t23.5 4.5h54q-11 -9 -19 -16.5t-15.5 -18t-15.5 -26t-19 -38.5q-11 -21 -21.5 -43.5t-20 -44t-16.5 -40t-9 -31.5q-7 -32 0.5 -45.5t18.5 -14.5q18 0 36.5 16t35.5 40.5t32.5 54t28.5 56.5q6 13 13.5 9.5t0.5 -18.5q-12 -26 -28 -57.5t-36 -59.5
t-44 -47t-51 -19q-17 0 -30 8.5t-19.5 25t-6.5 40.5t10 54q7 22 17 47t21.5 50.5t23 50.5t20.5 46z" />
    <glyph glyph-name="afii10090_afii10097" unicode="&#x448;&#x44f;" horiz-adv-x="919" 
d="M223 129q-13 -23 -28.5 -45.5t-33 -41t-36.5 -30t-37 -11.5q-8 0 -17.5 1.5t-18.5 6.5t-16.5 14t-10.5 23q-3 16 -1 31t7.5 29.5t13 28t14.5 27.5q-5 0 -9.5 3t0.5 13q5 8 9 17t9 18l30 58t26 52q6 12 15.5 16.5t23.5 4.5h61q-9 -6 -16 -12.5t-14.5 -15.5t-15.5 -22
t-18 -34q-14 -26 -25 -50q-11 -21 -21 -43t-17 -36q-18 -39 -20 -65t7.5 -36.5t28.5 -3t43 35.5q21 24 41.5 57t39.5 68.5t36.5 70.5t31.5 65q6 12 15.5 16.5t23.5 4.5h54q-11 -9 -19 -16.5t-15.5 -18t-15.5 -26t-19 -38.5q-11 -21 -21.5 -43.5t-20 -44t-16.5 -40t-9 -31.5
q-7 -32 0.5 -45.5t18.5 -14.5q14 0 28 10t28 26q21 24 41.5 57t39.5 68.5t36.5 70.5t31.5 65q6 12 15.5 16.5t23.5 4.5h54q-11 -9 -19 -16.5t-15.5 -18t-15.5 -26t-19 -38.5q-11 -21 -21.5 -43.5t-20 -44t-16.5 -40t-9 -31.5q-7 -32 0.5 -45.5t18.5 -14.5q22 2 43 21t47 63
q8 13 15 8.5t-1 -18.5q-31 -54 -60.5 -76.5t-55.5 -22.5q-17 0 -30 8.5t-19.5 25t-6.5 40.5t10 54q-9 -17 -23.5 -39t-32.5 -41.5t-38 -33.5t-41 -14q-17 0 -30 8.5t-19.5 25t-6.5 40.5t10 54zM843 144q-7 -14 -14.5 -34.5t-10.5 -40t1.5 -33.5t22.5 -14q19 0 39.5 21
t38.5 49t32.5 56.5t22.5 44.5q6 13 13.5 9.5t0.5 -18.5q-11 -23 -27.5 -55t-37.5 -61.5t-46 -50.5t-54 -21q-12 0 -23.5 6.5t-21.5 20.5q-8 13 -10.5 39t6.5 49q12 25 21.5 44.5t19 37.5t20 37t23.5 43q10 18 16.5 30.5t13 20t14 10.5t19.5 2q10 -1 20.5 -3.5t21.5 -0.5
q-11 -6 -26.5 -26t-32 -47t-33 -57.5t-29.5 -57.5zM705 229q4 18 12.5 36.5t20.5 34.5t27.5 28t33.5 17q27 8 47 4t30 -18t9.5 -38t-15.5 -55q-22 -27 -36 -41q-12 -12 -18 -14t7 22t23 46t13 39t-3 27.5t-25 11.5q-14 1 -27.5 -5.5t-23.5 -20.5q-11 -15 -23.5 -35
t-18.5 -37q-4 -10 -5 -24t4 -25.5t19.5 -18t42.5 -2.5q14 2 14 -5.5t-20 -9.5q-33 -4 -52 3.5t-28 20.5t-10 29t2 30zM783 148q-16 -29 -32.5 -56.5t-35.5 -48.5t-40 -34t-45 -13q-58 0 -80 41q-13 24 -13.5 41.5t6 28t16.5 14t17.5 0t10 -14.5t-6.5 -29q-4 -9 -2 -18.5
t7.5 -17.5t14 -13.5t19.5 -5.5q17 -1 29.5 3.5t23.5 14.5q23 20 44.5 49t39.5 61q2 2 14 0q5 -1 13 -2z" />
    <glyph glyph-name="afii10091_afii10077" unicode="&#x449;&#x43b;" horiz-adv-x="937" 
d="M496 17q-20 -16 -40.5 -37t-38 -43t-28.5 -44t-12 -39q0 -14 6 -23.5t23 -9.5q14 0 27.5 10t23.5 20q2 2 7 2.5t3 -6.5q-2 -8 -9.5 -17.5t-20.5 -18t-29.5 -14.5t-35.5 -6t-32.5 11t-12.5 34t19.5 53t44.5 58t53.5 50t45.5 30h5.5t0.5 -10zM223 129q-13 -23 -28.5 -45.5
t-33 -41t-36.5 -30t-37 -11.5q-8 0 -17.5 1.5t-18.5 6.5t-16.5 14t-10.5 23q-3 16 -1 31t7.5 29.5t13 28t14.5 27.5q-5 0 -9.5 3t0.5 13q5 8 9 17t9 18l30 58t26 52q6 12 15.5 16.5t23.5 4.5h61q-9 -6 -16 -12.5t-14.5 -15.5t-15.5 -22t-18 -34q-14 -26 -25 -50
q-11 -21 -21 -43t-17 -36q-18 -39 -20 -65t7.5 -36.5t28.5 -3t43 35.5q21 24 41.5 57t39.5 68.5t36.5 70.5t31.5 65q6 12 15.5 16.5t23.5 4.5h54q-11 -9 -19 -16.5t-15.5 -18t-15.5 -26t-19 -38.5q-11 -21 -21.5 -43.5t-20 -44t-16.5 -40t-9 -31.5q-7 -32 0.5 -45.5
t18.5 -14.5q14 0 28 10t28 26q21 24 41.5 57t39.5 68.5t36.5 70.5t31.5 65q6 12 15.5 16.5t23.5 4.5h54q-11 -9 -19 -16.5t-15.5 -18t-15.5 -26t-19 -38.5q-11 -21 -21.5 -43.5t-20 -44t-16.5 -40t-9 -31.5q-7 -32 0.5 -45.5t18.5 -14.5q22 2 43 21t47 63q8 13 15 8.5
t-1 -18.5q-31 -54 -60.5 -76.5t-55.5 -22.5q-17 0 -30 8.5t-19.5 25t-6.5 40.5t10 54q-9 -17 -23.5 -39t-32.5 -41.5t-38 -33.5t-41 -14q-17 0 -30 8.5t-19.5 25t-6.5 40.5t10 54zM884 323q6 12 15.5 16.5t23.5 4.5h54q-11 -9 -19 -16.5t-15.5 -18t-15.5 -26t-19 -38.5
q-11 -21 -21.5 -43.5t-20 -44t-16.5 -40t-9 -31.5q-7 -32 0.5 -45.5t18.5 -14.5q18 0 36.5 16t35.5 40.5t32.5 54t28.5 56.5q6 13 13.5 9.5t0.5 -18.5q-12 -26 -28 -57.5t-36 -59.5t-44 -47t-51 -19q-17 0 -30 8.5t-19.5 25t-6.5 40.5t10 54q7 22 17 47t21.5 50.5t23 50.5
t20.5 46zM669 45q20 17 36.5 41.5t31 52.5t27 57t23.5 54.5t21 45t21 29.5q8 8 16 12t19 5.5t25.5 1.5h36.5q4 0 1 -2.5t-9 -5.5t-14.5 -5.5t-14.5 -2.5q-29 1 -41 -11.5t-25 -35.5q-16 -29 -34.5 -76t-42 -92.5t-53 -78.5t-68.5 -33q-24 0 -44.5 8.5t-33.5 32.5
q-18 33 -10.5 53t21.5 25.5t24 -5t-3 -38.5q-4 -8 -2 -17t7.5 -16.5t14 -12t17.5 -4.5q17 1 29.5 4.5t23.5 13.5z" />
    <glyph glyph-name="afii10091_afii10078" unicode="&#x449;&#x43c;" horiz-adv-x="1130" 
d="M496 17q-20 -16 -40.5 -37t-38 -43t-28.5 -44t-12 -39q0 -14 6 -23.5t23 -9.5q14 0 27.5 10t23.5 20q2 2 7 2.5t3 -6.5q-2 -8 -9.5 -17.5t-20.5 -18t-29.5 -14.5t-35.5 -6t-32.5 11t-12.5 34t19.5 53t44.5 58t53.5 50t45.5 30h5.5t0.5 -10zM223 129q-13 -23 -28.5 -45.5
t-33 -41t-36.5 -30t-37 -11.5q-8 0 -17.5 1.5t-18.5 6.5t-16.5 14t-10.5 23q-3 16 -1 31t7.5 29.5t13 28t14.5 27.5q-5 0 -9.5 3t0.5 13q5 8 9 17t9 18l30 58t26 52q6 12 15.5 16.5t23.5 4.5h61q-9 -6 -16 -12.5t-14.5 -15.5t-15.5 -22t-18 -34q-14 -26 -25 -50
q-11 -21 -21 -43t-17 -36q-18 -39 -20 -65t7.5 -36.5t28.5 -3t43 35.5q21 24 41.5 57t39.5 68.5t36.5 70.5t31.5 65q6 12 15.5 16.5t23.5 4.5h54q-11 -9 -19 -16.5t-15.5 -18t-15.5 -26t-19 -38.5q-11 -21 -21.5 -43.5t-20 -44t-16.5 -40t-9 -31.5q-7 -32 0.5 -45.5
t18.5 -14.5q14 0 28 10t28 26q21 24 41.5 57t39.5 68.5t36.5 70.5t31.5 65q6 12 15.5 16.5t23.5 4.5h54q-11 -9 -19 -16.5t-15.5 -18t-15.5 -26t-19 -38.5q-11 -21 -21.5 -43.5t-20 -44t-16.5 -40t-9 -31.5q-7 -32 0.5 -45.5t18.5 -14.5q22 2 43 21t47 63q8 13 15 8.5
t-1 -18.5q-31 -54 -60.5 -76.5t-55.5 -22.5q-17 0 -30 8.5t-19.5 25t-6.5 40.5t10 54q-9 -17 -23.5 -39t-32.5 -41.5t-38 -33.5t-41 -14q-17 0 -30 8.5t-19.5 25t-6.5 40.5t10 54zM830 1q-17 1 -30 9.5t-19.5 25t-6.5 40t10 53.5q7 22 17 47t21.5 50.5t23 50.5t20.5 46
q6 12 15.5 16.5t23.5 4.5h54q-11 -9 -19 -16.5t-15.5 -18t-15.5 -26t-19 -38.5q-11 -21 -21.5 -43.5t-20 -44t-16.5 -40t-9 -31.5q-7 -32 0.5 -45t18.5 -15q20 -3 39.5 15t37.5 47.5t34.5 66t31.5 71t28.5 61.5t25.5 38q8 8 16 12t19 5.5t25.5 1.5h36.5q4 0 1 -2.5t-9 -5.5
t-14.5 -5.5t-14.5 -2.5q-29 1 -40.5 -11.5t-25.5 -35.5q-11 -19 -22.5 -47.5t-25 -60t-29.5 -63t-35 -56t-41.5 -39.5t-49.5 -14zM669 45q20 17 36.5 41.5t31 52.5t27 57t23.5 54.5t21 45t21 29.5q8 8 16 12t19 5.5t25.5 1.5h36.5q4 0 1 -2.5t-9 -5.5t-14.5 -5.5t-14.5 -2.5
q-29 1 -41 -11.5t-25 -35.5q-16 -29 -34.5 -76t-42 -92.5t-53 -78.5t-68.5 -33q-24 0 -44.5 8.5t-33.5 32.5q-18 33 -10.5 53t21.5 25.5t24 -5t-3 -38.5q-4 -8 -2 -17t7.5 -16.5t14 -12t17.5 -4.5q17 1 29.5 4.5t23.5 13.5zM1077 323q6 12 15.5 16.5t23.5 4.5h54
q-11 -9 -19 -16.5t-15.5 -18t-15.5 -26t-19 -38.5q-11 -21 -21.5 -43.5t-20 -44t-16.5 -40t-9 -31.5q-7 -32 0.5 -45.5t18.5 -14.5q18 0 36.5 16t35.5 40.5t32.5 54t28.5 56.5q6 13 13.5 9.5t0.5 -18.5q-12 -26 -28 -57.5t-36 -59.5t-44 -47t-51 -19q-17 0 -30 8.5t-19.5 25
t-6.5 40.5t10 54q7 22 17 47t21.5 50.5t23 50.5t20.5 46z" />
    <glyph glyph-name="afii10091_afii10097" unicode="&#x449;&#x44f;" horiz-adv-x="918" 
d="M223 129q-13 -23 -28.5 -45.5t-33 -41t-36.5 -30t-37 -11.5q-8 0 -17.5 1.5t-18.5 6.5t-16.5 14t-10.5 23q-3 16 -1 31t7.5 29.5t13 28t14.5 27.5q-5 0 -9.5 3t0.5 13q5 8 9 17t9 18l30 58t26 52q6 12 15.5 16.5t23.5 4.5h61q-9 -6 -16 -12.5t-14.5 -15.5t-15.5 -22
t-18 -34q-14 -26 -25 -50q-11 -21 -21 -43t-17 -36q-18 -39 -20 -65t7.5 -36.5t28.5 -3t43 35.5q21 24 41.5 57t39.5 68.5t36.5 70.5t31.5 65q6 12 15.5 16.5t23.5 4.5h54q-11 -9 -19 -16.5t-15.5 -18t-15.5 -26t-19 -38.5q-11 -21 -21.5 -43.5t-20 -44t-16.5 -40t-9 -31.5
q-7 -32 0.5 -45.5t18.5 -14.5q14 0 28 10t28 26q21 24 41.5 57t39.5 68.5t36.5 70.5t31.5 65q6 12 15.5 16.5t23.5 4.5h54q-11 -9 -19 -16.5t-15.5 -18t-15.5 -26t-19 -38.5q-11 -21 -21.5 -43.5t-20 -44t-16.5 -40t-9 -31.5q-7 -32 0.5 -45.5t18.5 -14.5q22 2 43 21t47 63
q8 13 15 8.5t-1 -18.5q-31 -54 -60.5 -76.5t-55.5 -22.5q-17 0 -30 8.5t-19.5 25t-6.5 40.5t10 54q-9 -17 -23.5 -39t-32.5 -41.5t-38 -33.5t-41 -14q-17 0 -30 8.5t-19.5 25t-6.5 40.5t10 54zM509 17q-20 -16 -40.5 -37t-38 -43t-28.5 -44t-12 -39q0 -14 6 -23.5t23 -9.5
q14 0 27.5 10t23.5 20q2 2 7 2.5t3 -6.5q-2 -8 -9.5 -17.5t-20.5 -18t-29.5 -14.5t-35.5 -6t-32.5 11t-12.5 34t19.5 53t44.5 58t53.5 50t45.5 30h5.5t0.5 -10zM842 144q-7 -14 -14.5 -34.5t-10.5 -40t1.5 -33.5t22.5 -14q19 0 39.5 21t38.5 49t32.5 56.5t22.5 44.5
q6 13 13.5 9.5t0.5 -18.5q-11 -23 -27.5 -55t-37.5 -61.5t-46 -50.5t-54 -21q-12 0 -23.5 6.5t-21.5 20.5q-8 13 -10.5 39t6.5 49q12 25 21.5 44.5t19 37.5t20 37t23.5 43q10 18 16.5 30.5t13 20t14 10.5t19.5 2q10 -1 20.5 -3.5t21.5 -0.5q-11 -6 -26.5 -26t-32 -47
t-33 -57.5t-29.5 -57.5zM704 229q4 18 12.5 36.5t20.5 34.5t27.5 28t33.5 17q27 8 47 4t30 -18t9.5 -38t-15.5 -55q-22 -27 -36 -41q-12 -12 -18 -14t7 22t23 46t13 39t-3 27.5t-25 11.5q-14 1 -27.5 -5.5t-23.5 -20.5q-11 -15 -23.5 -35t-18.5 -37q-4 -10 -5 -24t4 -25.5
t19.5 -18t42.5 -2.5q14 2 14 -5.5t-20 -9.5q-33 -4 -52 3.5t-28 20.5t-10 29t2 30zM782 148q-16 -29 -32.5 -56.5t-35.5 -48.5t-40 -34t-45 -13q-58 0 -80 41q-13 24 -13.5 41.5t6 28t16.5 14t17.5 0t10 -14.5t-6.5 -29q-4 -9 -2 -18.5t7.5 -17.5t14 -13.5t19.5 -5.5
q17 -1 29.5 3.5t23.5 14.5q23 20 44.5 49t39.5 61q2 2 14 0q5 -1 13 -2z" />
    <glyph glyph-name="afii10092_afii10070" unicode="&#x44a;&#x435;" horiz-adv-x="594" 
d="M306 175q0 -3 -2.5 -9t-2.5 -9q1 -11 16.5 -6t39.5 12q30 8 51 9t50 -1q15 -1 12 -9.5t-19 -7.5q-15 0 -26.5 0.5t-22 0t-21 -2.5t-24.5 -6q-11 -3 -25.5 -8t-28.5 -7.5t-27 -1.5t-20 10q-9 10 -11.5 21.5t0.5 21.5t11 16t20 6q11 0 20.5 -9t9.5 -20zM117 58q-3 28 13 69
q6 15 14.5 32t18 33t17.5 30t12 23q11 25 -12 35.5t-65 11.5l-12 -32q-9 -24 -22 -54.5t-29 -62t-34 -59t-36 -45.5q-6 -5 -9.5 0.5t1.5 12.5q30 39 55 85.5t44.5 95t33 96.5t21.5 90q4 21 16 27.5t23.5 0.5t19 -22.5t2.5 -41.5q-5 -21 -23.5 -39.5t-31.5 -27.5
q28 -2 64.5 -1t73.5 5q3 -5 1.5 -14.5t-5 -20t-8.5 -22t-9 -20.5q-5 -10 -19 -38.5t-30 -60.5q-12 -24 -19.5 -46t-9 -38.5t3.5 -27t17 -13.5q7 -2 22 4t29 23q16 19 28 41.5t16 39.5q8 32 4 49t-32 15q-2 0 -0.5 2.5t5 5t8.5 4t11 -0.5q18 -7 28.5 -31t3.5 -51
q-9 -38 -34 -70t-60 -48q-17 -8 -35.5 -7t-33.5 9.5t-25.5 22t-11.5 31.5zM668 187q-14 -30 -30 -63.5t-38 -62t-51.5 -47t-71.5 -18.5q-38 0 -66.5 24t-29.5 72q0 22 5.5 47t16 49.5t24.5 47.5t31 43q19 22 42 40t46 27.5t44.5 9.5t38.5 -12q14 -11 16.5 -28t-5.5 -37.5
t-25 -41.5t-41 -39q-12 -9 -28.5 -17t-34.5 -14t-34 -9.5t-26 -3.5q-6 -14 -10.5 -37t-3 -45t12 -38.5t35.5 -16.5q33 0 59.5 19.5t47 46.5t35 56t23.5 49q3 7 7.5 10.5t8 3.5t5 -3.5t-2.5 -11.5zM564 215q20 17 33.5 38t18.5 39t2 30t-15 11.5t-33 -16t-52 -52.5
q-20 -24 -36.5 -52t-23.5 -42q7 0 19 2.5t27 8t30.5 14t29.5 19.5z" />
    <glyph glyph-name="afii10092_afii10077" unicode="&#x44a;&#x43b;" horiz-adv-x="772" 
d="M322 96q-42 14 -66 43q-9 10 -11.5 21.5t0.5 21.5t11 16t20 6q11 0 20.5 -9t9.5 -20q0 -3 -2.5 -9t-2.5 -9q1 -9 7.5 -21.5t15.5 -17.5q12 -8 27 -11.5t43 5.5q14 5 17.5 -1.5t-12.5 -11.5q-26 -9 -43.5 -8.5t-33.5 5.5zM117 58q-3 28 13 69q6 15 14.5 32t18 33t17.5 30
t12 23q11 25 -12 35.5t-65 11.5l-12 -32q-9 -24 -22 -54.5t-29 -62t-34 -59t-36 -45.5q-6 -5 -9.5 0.5t1.5 12.5q30 39 55 85.5t44.5 95t33 96.5t21.5 90q4 21 16 27.5t23.5 0.5t19 -22.5t2.5 -41.5q-5 -21 -23.5 -39.5t-31.5 -27.5q28 -2 64.5 -1t73.5 5q3 -5 1.5 -14.5
t-5 -20t-8.5 -22t-9 -20.5q-5 -10 -19 -38.5t-30 -60.5q-12 -24 -19.5 -46t-9 -38.5t3.5 -27t17 -13.5q7 -2 22 4t29 23q16 19 28 41.5t16 39.5q8 32 4 49t-32 15q-2 0 -0.5 2.5t5 5t8.5 4t11 -0.5q18 -7 28.5 -31t3.5 -51q-9 -38 -34 -70t-60 -48q-17 -8 -35.5 -7
t-33.5 9.5t-25.5 22t-11.5 31.5zM719 323q6 12 15.5 16.5t23.5 4.5h54q-11 -9 -19 -16.5t-15.5 -18t-15.5 -26t-19 -38.5q-11 -21 -21.5 -43.5t-20 -44t-16.5 -40t-9 -31.5q-7 -32 0.5 -45.5t18.5 -14.5q18 0 36.5 16t35.5 40.5t32.5 54t28.5 56.5q6 13 13.5 9.5t0.5 -18.5
q-12 -26 -28 -57.5t-36 -59.5t-44 -47t-51 -19q-17 0 -30 8.5t-19.5 25t-6.5 40.5t10 54q7 22 17 47t21.5 50.5t23 50.5t20.5 46zM504 45q20 17 36.5 41.5t31 52.5t27 57t23.5 54.5t21 45t21 29.5q8 8 16 12t19 5.5t25.5 1.5h36.5q4 0 1 -2.5t-9 -5.5t-14.5 -5.5t-14.5 -2.5
q-29 1 -41 -11.5t-25 -35.5q-16 -29 -34.5 -76t-42 -92.5t-53 -78.5t-68.5 -33q-24 0 -44.5 8.5t-33.5 32.5q-18 33 -10.5 53t21.5 25.5t24 -5t-3 -38.5q-4 -8 -2 -17t7.5 -16.5t14 -12t17.5 -4.5q17 1 29.5 4.5t23.5 13.5z" />
    <glyph glyph-name="afii10092_afii10078" unicode="&#x44a;&#x43c;" horiz-adv-x="965" 
d="M322 96q-42 14 -66 43q-9 10 -11.5 21.5t0.5 21.5t11 16t20 6q11 0 20.5 -9t9.5 -20q0 -3 -2.5 -9t-2.5 -9q1 -9 7.5 -21.5t15.5 -17.5q12 -8 27 -11.5t43 5.5q14 5 17.5 -1.5t-12.5 -11.5q-26 -9 -43.5 -8.5t-33.5 5.5zM117 58q-3 28 13 69q6 15 14.5 32t18 33t17.5 30
t12 23q11 25 -12 35.5t-65 11.5l-12 -32q-9 -24 -22 -54.5t-29 -62t-34 -59t-36 -45.5q-6 -5 -9.5 0.5t1.5 12.5q30 39 55 85.5t44.5 95t33 96.5t21.5 90q4 21 16 27.5t23.5 0.5t19 -22.5t2.5 -41.5q-5 -21 -23.5 -39.5t-31.5 -27.5q28 -2 64.5 -1t73.5 5q3 -5 1.5 -14.5
t-5 -20t-8.5 -22t-9 -20.5q-5 -10 -19 -38.5t-30 -60.5q-12 -24 -19.5 -46t-9 -38.5t3.5 -27t17 -13.5q7 -2 22 4t29 23q16 19 28 41.5t16 39.5q8 32 4 49t-32 15q-2 0 -0.5 2.5t5 5t8.5 4t11 -0.5q18 -7 28.5 -31t3.5 -51q-9 -38 -34 -70t-60 -48q-17 -8 -35.5 -7
t-33.5 9.5t-25.5 22t-11.5 31.5zM665 1q-17 1 -30 9.5t-19.5 25t-6.5 40t10 53.5q7 22 17 47t21.5 50.5t23 50.5t20.5 46q6 12 15.5 16.5t23.5 4.5h54q-11 -9 -19 -16.5t-15.5 -18t-15.5 -26t-19 -38.5q-11 -21 -21.5 -43.5t-20 -44t-16.5 -40t-9 -31.5q-7 -32 0.5 -45
t18.5 -15q20 -3 39.5 15t37.5 47.5t34.5 66t31.5 71t28.5 61.5t25.5 38q8 8 16 12t19 5.5t25.5 1.5h36.5q4 0 1 -2.5t-9 -5.5t-14.5 -5.5t-14.5 -2.5q-29 1 -40.5 -11.5t-25.5 -35.5q-11 -19 -22.5 -47.5t-25 -60t-29.5 -63t-35 -56t-41.5 -39.5t-49.5 -14zM504 45
q20 17 36.5 41.5t31 52.5t27 57t23.5 54.5t21 45t21 29.5q8 8 16 12t19 5.5t25.5 1.5h36.5q4 0 1 -2.5t-9 -5.5t-14.5 -5.5t-14.5 -2.5q-29 1 -41 -11.5t-25 -35.5q-16 -29 -34.5 -76t-42 -92.5t-53 -78.5t-68.5 -33q-24 0 -44.5 8.5t-33.5 32.5q-18 33 -10.5 53t21.5 25.5
t24 -5t-3 -38.5q-4 -8 -2 -17t7.5 -16.5t14 -12t17.5 -4.5q17 1 29.5 4.5t23.5 13.5zM912 323q6 12 15.5 16.5t23.5 4.5h54q-11 -9 -19 -16.5t-15.5 -18t-15.5 -26t-19 -38.5q-11 -21 -21.5 -43.5t-20 -44t-16.5 -40t-9 -31.5q-7 -32 0.5 -45.5t18.5 -14.5q18 0 36.5 16
t35.5 40.5t32.5 54t28.5 56.5q6 13 13.5 9.5t0.5 -18.5q-12 -26 -28 -57.5t-36 -59.5t-44 -47t-51 -19q-17 0 -30 8.5t-19.5 25t-6.5 40.5t10 54q7 22 17 47t21.5 50.5t23 50.5t20.5 46z" />
    <glyph glyph-name="afii10092_afii10097" unicode="&#x44a;&#x44f;" horiz-adv-x="751" 
d="M322 96q-42 14 -66 43q-9 10 -11.5 21.5t0.5 21.5t11 16t20 6q11 0 20.5 -9t9.5 -20q0 -3 -2.5 -9t-2.5 -9q1 -9 7.5 -21.5t15.5 -17.5q12 -8 27 -11.5t43 5.5q14 5 17.5 -1.5t-12.5 -11.5q-26 -9 -43.5 -8.5t-33.5 5.5zM117 58q-3 28 13 69q6 15 14.5 32t18 33t17.5 30
t12 23q11 25 -12 35.5t-65 11.5l-12 -32q-9 -24 -22 -54.5t-29 -62t-34 -59t-36 -45.5q-6 -5 -9.5 0.5t1.5 12.5q30 39 55 85.5t44.5 95t33 96.5t21.5 90q4 21 16 27.5t23.5 0.5t19 -22.5t2.5 -41.5q-5 -21 -23.5 -39.5t-31.5 -27.5q28 -2 64.5 -1t73.5 5q3 -5 1.5 -14.5
t-5 -20t-8.5 -22t-9 -20.5q-5 -10 -19 -38.5t-30 -60.5q-12 -24 -19.5 -46t-9 -38.5t3.5 -27t17 -13.5q7 -2 22 4t29 23q16 19 28 41.5t16 39.5q8 32 4 49t-32 15q-2 0 -0.5 2.5t5 5t8.5 4t11 -0.5q18 -7 28.5 -31t3.5 -51q-9 -38 -34 -70t-60 -48q-17 -8 -35.5 -7
t-33.5 9.5t-25.5 22t-11.5 31.5zM675 144q-7 -14 -14.5 -34.5t-10.5 -40t1.5 -33.5t22.5 -14q19 0 39.5 21t38.5 49t32.5 56.5t22.5 44.5q6 13 13.5 9.5t0.5 -18.5q-11 -23 -27.5 -55t-37.5 -61.5t-46 -50.5t-54 -21q-12 0 -23.5 6.5t-21.5 20.5q-8 13 -10.5 39t6.5 49
q12 25 21.5 44.5t19 37.5t20 37t23.5 43q10 18 16.5 30.5t13 20t14 10.5t19.5 2q10 -1 20.5 -3.5t21.5 -0.5q-11 -6 -26.5 -26t-32 -47t-33 -57.5t-29.5 -57.5zM537 229q4 18 12.5 36.5t20.5 34.5t27.5 28t33.5 17q27 8 47 4t30 -18t9.5 -38t-15.5 -55q-22 -27 -36 -41
q-12 -12 -18 -14t7 22t23 46t13 39t-3 27.5t-25 11.5q-14 1 -27.5 -5.5t-23.5 -20.5q-11 -15 -23.5 -35t-18.5 -37q-4 -10 -5 -24t4 -25.5t19.5 -18t42.5 -2.5q14 2 14 -5.5t-20 -9.5q-33 -4 -52 3.5t-28 20.5t-10 29t2 30zM615 148q-16 -29 -32.5 -56.5t-35.5 -48.5
t-40 -34t-45 -13q-58 0 -80 41q-13 24 -13.5 41.5t6 28t16.5 14t17.5 0t10 -14.5t-6.5 -29q-4 -9 -2 -18.5t7.5 -17.5t14 -13.5t19.5 -5.5q17 -1 29.5 3.5t23.5 14.5q23 20 44.5 49t39.5 61q2 2 14 0q5 -1 13 -2z" />
    <glyph glyph-name="afii10093_afii10077" unicode="&#x44b;&#x43b;" horiz-adv-x="802" 
d="M189 116q-4 1 -19.5 6t-26.5 17q-9 10 -11.5 21.5t0.5 21.5t11 16t20 6q11 0 20.5 -9t9.5 -20q0 -3 -2 -9l-3 -9q-2 -5 -2.5 -9.5t5.5 -9.5t20.5 -8.5t32.5 2t37 24t35 57.5q5 14 13 10t1 -19q-17 -37 -34 -57t-35 -28t-36 -7.5t-36 4.5zM330 144q-7 -14 -14.5 -34.5
t-10.5 -40t1.5 -33.5t22.5 -14q11 0 23 7.5t23.5 20t22.5 28.5t21 33q8 13 15 8.5t-1 -18.5q-29 -48 -59 -76.5t-63 -28.5q-12 0 -23.5 6.5t-21.5 20.5q-8 13 -13 39t4 49q12 25 21 44.5t18 37.5t19 37t23 43q19 36 33 50t38 13q10 -1 20.5 -3.5t21.5 -0.5q-11 -6 -26.5 -26
t-32 -47t-33 -57.5t-29.5 -57.5zM12 34q-7 14 -6.5 33.5t11.5 43.5q12 25 21 44.5t18 37.5t19 37t23 43q19 36 33 50t38 13q10 -1 20.5 -3.5t21.5 -0.5q-11 -6 -26 -26t-31.5 -47t-33 -57.5t-30.5 -57.5q-12 -24 -19.5 -45.5t-9 -38.5t3.5 -27.5t17 -13.5q7 -2 22 4t29 23
q16 19 28 41.5t16 39.5q8 32 4 49t-32 15q-2 0 -0.5 2.5t5 5t8.5 4t11 -0.5q18 -7 28.5 -31t3.5 -51q-9 -38 -34 -70t-60 -48q-29 -13 -58 -3t-41 35zM749 323q6 12 15.5 16.5t23.5 4.5h54q-11 -9 -19 -16.5t-15.5 -18t-15.5 -26t-19 -38.5q-11 -21 -21.5 -43.5t-20 -44
t-16.5 -40t-9 -31.5q-7 -32 0.5 -45.5t18.5 -14.5q18 0 36.5 16t35.5 40.5t32.5 54t28.5 56.5q6 13 13.5 9.5t0.5 -18.5q-12 -26 -28 -57.5t-36 -59.5t-44 -47t-51 -19q-17 0 -30 8.5t-19.5 25t-6.5 40.5t10 54q7 22 17 47t21.5 50.5t23 50.5t20.5 46zM534 45
q20 17 36.5 41.5t31 52.5t27 57t23.5 54.5t21 45t21 29.5q8 8 16 12t19 5.5t25.5 1.5h36.5q4 0 1 -2.5t-9 -5.5t-14.5 -5.5t-14.5 -2.5q-29 1 -41 -11.5t-25 -35.5q-16 -29 -34.5 -76t-42 -92.5t-53 -78.5t-68.5 -33q-24 0 -44.5 8.5t-33.5 32.5q-18 33 -10.5 53t21.5 25.5
t24 -5t-3 -38.5q-4 -8 -2 -17t7.5 -16.5t14 -12t17.5 -4.5q17 1 29.5 4.5t23.5 13.5z" />
    <glyph glyph-name="afii10093_afii10078" unicode="&#x44b;&#x43c;" horiz-adv-x="995" 
d="M189 116q-4 1 -19.5 6t-26.5 17q-9 10 -11.5 21.5t0.5 21.5t11 16t20 6q11 0 20.5 -9t9.5 -20q0 -3 -2 -9l-3 -9q-2 -5 -2.5 -9.5t5.5 -9.5t20.5 -8.5t32.5 2t37 24t35 57.5q5 14 13 10t1 -19q-17 -37 -34 -57t-35 -28t-36 -7.5t-36 4.5zM330 144q-7 -14 -14.5 -34.5
t-10.5 -40t1.5 -33.5t22.5 -14q11 0 23 7.5t23.5 20t22.5 28.5t21 33q8 13 15 8.5t-1 -18.5q-29 -48 -59 -76.5t-63 -28.5q-12 0 -23.5 6.5t-21.5 20.5q-8 13 -13 39t4 49q12 25 21 44.5t18 37.5t19 37t23 43q19 36 33 50t38 13q10 -1 20.5 -3.5t21.5 -0.5q-11 -6 -26.5 -26
t-32 -47t-33 -57.5t-29.5 -57.5zM12 34q-7 14 -6.5 33.5t11.5 43.5q12 25 21 44.5t18 37.5t19 37t23 43q19 36 33 50t38 13q10 -1 20.5 -3.5t21.5 -0.5q-11 -6 -26 -26t-31.5 -47t-33 -57.5t-30.5 -57.5q-12 -24 -19.5 -45.5t-9 -38.5t3.5 -27.5t17 -13.5q7 -2 22 4t29 23
q16 19 28 41.5t16 39.5q8 32 4 49t-32 15q-2 0 -0.5 2.5t5 5t8.5 4t11 -0.5q18 -7 28.5 -31t3.5 -51q-9 -38 -34 -70t-60 -48q-29 -13 -58 -3t-41 35zM695 1q-17 1 -30 9.5t-19.5 25t-6.5 40t10 53.5q7 22 17 47t21.5 50.5t23 50.5t20.5 46q6 12 15.5 16.5t23.5 4.5h54
q-11 -9 -19 -16.5t-15.5 -18t-15.5 -26t-19 -38.5q-11 -21 -21.5 -43.5t-20 -44t-16.5 -40t-9 -31.5q-7 -32 0.5 -45t18.5 -15q20 -3 39.5 15t37.5 47.5t34.5 66t31.5 71t28.5 61.5t25.5 38q8 8 16 12t19 5.5t25.5 1.5h36.5q4 0 1 -2.5t-9 -5.5t-14.5 -5.5t-14.5 -2.5
q-29 1 -40.5 -11.5t-25.5 -35.5q-11 -19 -22.5 -47.5t-25 -60t-29.5 -63t-35 -56t-41.5 -39.5t-49.5 -14zM534 45q20 17 36.5 41.5t31 52.5t27 57t23.5 54.5t21 45t21 29.5q8 8 16 12t19 5.5t25.5 1.5h36.5q4 0 1 -2.5t-9 -5.5t-14.5 -5.5t-14.5 -2.5q-29 1 -41 -11.5
t-25 -35.5q-16 -29 -34.5 -76t-42 -92.5t-53 -78.5t-68.5 -33q-24 0 -44.5 8.5t-33.5 32.5q-18 33 -10.5 53t21.5 25.5t24 -5t-3 -38.5q-4 -8 -2 -17t7.5 -16.5t14 -12t17.5 -4.5q17 1 29.5 4.5t23.5 13.5zM942 323q6 12 15.5 16.5t23.5 4.5h54q-11 -9 -19 -16.5t-15.5 -18
t-15.5 -26t-19 -38.5q-11 -21 -21.5 -43.5t-20 -44t-16.5 -40t-9 -31.5q-7 -32 0.5 -45.5t18.5 -14.5q18 0 36.5 16t35.5 40.5t32.5 54t28.5 56.5q6 13 13.5 9.5t0.5 -18.5q-12 -26 -28 -57.5t-36 -59.5t-44 -47t-51 -19q-17 0 -30 8.5t-19.5 25t-6.5 40.5t10 54q7 22 17 47
t21.5 50.5t23 50.5t20.5 46z" />
    <glyph glyph-name="afii10093_afii10097" unicode="&#x44b;&#x44f;" horiz-adv-x="786" 
d="M189 116q-4 1 -19.5 6t-26.5 17q-9 10 -11.5 21.5t0.5 21.5t11 16t20 6q11 0 20.5 -9t9.5 -20q0 -3 -2 -9l-3 -9q-2 -5 -2.5 -9.5t5.5 -9.5t20.5 -8.5t32.5 2t37 24t35 57.5q5 14 13 10t1 -19q-17 -37 -34 -57t-35 -28t-36 -7.5t-36 4.5zM330 144q-7 -14 -14.5 -34.5
t-10.5 -40t1.5 -33.5t22.5 -14q11 0 23 7.5t23.5 20t22.5 28.5t21 33q8 13 15 8.5t-1 -18.5q-29 -48 -59 -76.5t-63 -28.5q-12 0 -23.5 6.5t-21.5 20.5q-8 13 -13 39t4 49q12 25 21 44.5t18 37.5t19 37t23 43q19 36 33 50t38 13q10 -1 20.5 -3.5t21.5 -0.5q-11 -6 -26.5 -26
t-32 -47t-33 -57.5t-29.5 -57.5zM12 34q-7 14 -6.5 33.5t11.5 43.5q12 25 21 44.5t18 37.5t19 37t23 43q19 36 33 50t38 13q10 -1 20.5 -3.5t21.5 -0.5q-11 -6 -26 -26t-31.5 -47t-33 -57.5t-30.5 -57.5q-12 -24 -19.5 -45.5t-9 -38.5t3.5 -27.5t17 -13.5q7 -2 22 4t29 23
q16 19 28 41.5t16 39.5q8 32 4 49t-32 15q-2 0 -0.5 2.5t5 5t8.5 4t11 -0.5q18 -7 28.5 -31t3.5 -51q-9 -38 -34 -70t-60 -48q-29 -13 -58 -3t-41 35zM710 144q-7 -14 -14.5 -34.5t-10.5 -40t1.5 -33.5t22.5 -14q19 0 39.5 21t38.5 49t32.5 56.5t22.5 44.5q6 13 13.5 9.5
t0.5 -18.5q-11 -23 -27.5 -55t-37.5 -61.5t-46 -50.5t-54 -21q-12 0 -23.5 6.5t-21.5 20.5q-8 13 -10.5 39t6.5 49q12 25 21.5 44.5t19 37.5t20 37t23.5 43q10 18 16.5 30.5t13 20t14 10.5t19.5 2q10 -1 20.5 -3.5t21.5 -0.5q-11 -6 -26.5 -26t-32 -47t-33 -57.5
t-29.5 -57.5zM572 229q4 18 12.5 36.5t20.5 34.5t27.5 28t33.5 17q27 8 47 4t30 -18t9.5 -38t-15.5 -55q-22 -27 -36 -41q-12 -12 -18 -14t7 22t23 46t13 39t-3 27.5t-25 11.5q-14 1 -27.5 -5.5t-23.5 -20.5q-11 -15 -23.5 -35t-18.5 -37q-4 -10 -5 -24t4 -25.5t19.5 -18
t42.5 -2.5q14 2 14 -5.5t-20 -9.5q-33 -4 -52 3.5t-28 20.5t-10 29t2 30zM650 148q-16 -29 -32.5 -56.5t-35.5 -48.5t-40 -34t-45 -13q-58 0 -80 41q-13 24 -13.5 41.5t6 28t16.5 14t17.5 0t10 -14.5t-6.5 -29q-4 -9 -2 -18.5t7.5 -17.5t14 -13.5t19.5 -5.5q17 -1 29.5 3.5
t23.5 14.5q23 20 44.5 49t39.5 61q2 2 14 0q5 -1 13 -2z" />
    <glyph glyph-name="afii10094_afii10070" unicode="&#x44c;&#x435;" horiz-adv-x="483" 
d="M193 175q0 -3 -2.5 -9t-2.5 -9q1 -11 16.5 -6t39.5 12q30 8 51 9t50 -1q15 -1 12 -9.5t-19 -7.5q-15 0 -26.5 0.5t-22 0t-21 -2.5t-24.5 -6q-11 -3 -25.5 -8t-28.5 -7.5t-27 -1.5t-20 10q-9 10 -11.5 21.5t0.5 21.5t11 16t20 6q11 0 20.5 -9t9.5 -20zM12 34
q-7 14 -6.5 33.5t11.5 43.5q12 25 21 44.5t18 37.5t19 37t23 43q19 36 33 50t38 13q10 -1 20.5 -3.5t21.5 -0.5q-11 -6 -26 -26t-31.5 -47t-33 -57.5t-30.5 -57.5q-12 -24 -19.5 -45.5t-9 -38.5t3.5 -27.5t17 -13.5q7 -2 22 4t29 23q16 19 28 41.5t16 39.5q8 32 4 49t-32 15
q-2 0 -0.5 2.5t5 5t8.5 4t11 -0.5q18 -7 28.5 -31t3.5 -51q-9 -38 -34 -70t-60 -48q-29 -13 -58 -3t-41 35zM555 187q-14 -30 -30 -63.5t-38 -62t-51.5 -47t-71.5 -18.5q-38 0 -66.5 24t-29.5 72q0 22 5.5 47t16 49.5t24.5 47.5t31 43q19 22 42 40t46 27.5t44.5 9.5
t38.5 -12q14 -11 16.5 -28t-5.5 -37.5t-25 -41.5t-41 -39q-12 -9 -28.5 -17t-34.5 -14t-34 -9.5t-26 -3.5q-6 -14 -10.5 -37t-3 -45t12 -38.5t35.5 -16.5q33 0 59.5 19.5t47 46.5t35 56t23.5 49q3 7 7.5 10.5t8 3.5t5 -3.5t-2.5 -11.5zM451 215q20 17 33.5 38t18.5 39t2 30
t-15 11.5t-33 -16t-52 -52.5q-20 -24 -36.5 -52t-23.5 -42q7 0 19 2.5t27 8t30.5 14t29.5 19.5z" />
    <glyph glyph-name="afii10094_afii10077" unicode="&#x44c;&#x43b;" horiz-adv-x="658" 
d="M209 96q-42 14 -66 43q-9 10 -11.5 21.5t0.5 21.5t11 16t20 6q11 0 20.5 -9t9.5 -20q0 -3 -2.5 -9t-2.5 -9q1 -9 7.5 -21.5t15.5 -17.5q12 -8 27 -11.5t43 5.5q14 5 17.5 -1.5t-12.5 -11.5q-26 -9 -43.5 -8.5t-33.5 5.5zM12 34q-7 14 -6.5 33.5t11.5 43.5q12 25 21 44.5
t18 37.5t19 37t23 43q19 36 33 50t38 13q10 -1 20.5 -3.5t21.5 -0.5q-11 -6 -26 -26t-31.5 -47t-33 -57.5t-30.5 -57.5q-12 -24 -19.5 -45.5t-9 -38.5t3.5 -27.5t17 -13.5q7 -2 22 4t29 23q16 19 28 41.5t16 39.5q8 32 4 49t-32 15q-2 0 -0.5 2.5t5 5t8.5 4t11 -0.5
q18 -7 28.5 -31t3.5 -51q-9 -38 -34 -70t-60 -48q-29 -13 -58 -3t-41 35zM605 323q6 12 15.5 16.5t23.5 4.5h54q-11 -9 -19 -16.5t-15.5 -18t-15.5 -26t-19 -38.5q-11 -21 -21.5 -43.5t-20 -44t-16.5 -40t-9 -31.5q-7 -32 0.5 -45.5t18.5 -14.5q18 0 36.5 16t35.5 40.5
t32.5 54t28.5 56.5q6 13 13.5 9.5t0.5 -18.5q-12 -26 -28 -57.5t-36 -59.5t-44 -47t-51 -19q-17 0 -30 8.5t-19.5 25t-6.5 40.5t10 54q7 22 17 47t21.5 50.5t23 50.5t20.5 46zM390 45q20 17 36.5 41.5t31 52.5t27 57t23.5 54.5t21 45t21 29.5q8 8 16 12t19 5.5t25.5 1.5
h36.5q4 0 1 -2.5t-9 -5.5t-14.5 -5.5t-14.5 -2.5q-29 1 -41 -11.5t-25 -35.5q-16 -29 -34.5 -76t-42 -92.5t-53 -78.5t-68.5 -33q-24 0 -44.5 8.5t-33.5 32.5q-18 33 -10.5 53t21.5 25.5t24 -5t-3 -38.5q-4 -8 -2 -17t7.5 -16.5t14 -12t17.5 -4.5q17 1 29.5 4.5t23.5 13.5z
" />
    <glyph glyph-name="afii10094_afii10078" unicode="&#x44c;&#x43c;" horiz-adv-x="852" 
d="M209 96q-42 14 -66 43q-9 10 -11.5 21.5t0.5 21.5t11 16t20 6q11 0 20.5 -9t9.5 -20q0 -3 -2.5 -9t-2.5 -9q1 -9 7.5 -21.5t15.5 -17.5q12 -8 27 -11.5t43 5.5q14 5 17.5 -1.5t-12.5 -11.5q-26 -9 -43.5 -8.5t-33.5 5.5zM12 34q-7 14 -6.5 33.5t11.5 43.5q12 25 21 44.5
t18 37.5t19 37t23 43q19 36 33 50t38 13q10 -1 20.5 -3.5t21.5 -0.5q-11 -6 -26 -26t-31.5 -47t-33 -57.5t-30.5 -57.5q-12 -24 -19.5 -45.5t-9 -38.5t3.5 -27.5t17 -13.5q7 -2 22 4t29 23q16 19 28 41.5t16 39.5q8 32 4 49t-32 15q-2 0 -0.5 2.5t5 5t8.5 4t11 -0.5
q18 -7 28.5 -31t3.5 -51q-9 -38 -34 -70t-60 -48q-29 -13 -58 -3t-41 35zM552 1q-17 1 -30 9.5t-19.5 25t-6.5 40t10 53.5q7 22 17 47t21.5 50.5t23 50.5t20.5 46q6 12 15.5 16.5t23.5 4.5h54q-11 -9 -19 -16.5t-15.5 -18t-15.5 -26t-19 -38.5q-11 -21 -21.5 -43.5t-20 -44
t-16.5 -40t-9 -31.5q-7 -32 0.5 -45t18.5 -15q20 -3 39.5 15t37.5 47.5t34.5 66t31.5 71t28.5 61.5t25.5 38q8 8 16 12t19 5.5t25.5 1.5h36.5q4 0 1 -2.5t-9 -5.5t-14.5 -5.5t-14.5 -2.5q-29 1 -40.5 -11.5t-25.5 -35.5q-11 -19 -22.5 -47.5t-25 -60t-29.5 -63t-35 -56
t-41.5 -39.5t-49.5 -14zM391 45q20 17 36.5 41.5t31 52.5t27 57t23.5 54.5t21 45t21 29.5q8 8 16 12t19 5.5t25.5 1.5h36.5q4 0 1 -2.5t-9 -5.5t-14.5 -5.5t-14.5 -2.5q-29 1 -41 -11.5t-25 -35.5q-16 -29 -34.5 -76t-42 -92.5t-53 -78.5t-68.5 -33q-24 0 -44.5 8.5
t-33.5 32.5q-18 33 -10.5 53t21.5 25.5t24 -5t-3 -38.5q-4 -8 -2 -17t7.5 -16.5t14 -12t17.5 -4.5q17 1 29.5 4.5t23.5 13.5zM799 323q6 12 15.5 16.5t23.5 4.5h54q-11 -9 -19 -16.5t-15.5 -18t-15.5 -26t-19 -38.5q-11 -21 -21.5 -43.5t-20 -44t-16.5 -40t-9 -31.5
q-7 -32 0.5 -45.5t18.5 -14.5q18 0 36.5 16t35.5 40.5t32.5 54t28.5 56.5q6 13 13.5 9.5t0.5 -18.5q-12 -26 -28 -57.5t-36 -59.5t-44 -47t-51 -19q-17 0 -30 8.5t-19.5 25t-6.5 40.5t10 54q7 22 17 47t21.5 50.5t23 50.5t20.5 46z" />
    <glyph glyph-name="afii10094_afii10097" unicode="&#x44c;&#x44f;" horiz-adv-x="646" 
d="M209 96q-42 14 -66 43q-9 10 -11.5 21.5t0.5 21.5t11 16t20 6q11 0 20.5 -9t9.5 -20q0 -3 -2.5 -9t-2.5 -9q1 -9 7.5 -21.5t15.5 -17.5q12 -8 27 -11.5t43 5.5q14 5 17.5 -1.5t-12.5 -11.5q-26 -9 -43.5 -8.5t-33.5 5.5zM12 34q-7 14 -6.5 33.5t11.5 43.5q12 25 21 44.5
t18 37.5t19 37t23 43q19 36 33 50t38 13q10 -1 20.5 -3.5t21.5 -0.5q-11 -6 -26 -26t-31.5 -47t-33 -57.5t-30.5 -57.5q-12 -24 -19.5 -45.5t-9 -38.5t3.5 -27.5t17 -13.5q7 -2 22 4t29 23q16 19 28 41.5t16 39.5q8 32 4 49t-32 15q-2 0 -0.5 2.5t5 5t8.5 4t11 -0.5
q18 -7 28.5 -31t3.5 -51q-9 -38 -34 -70t-60 -48q-29 -13 -58 -3t-41 35zM560 144q-7 -14 -14.5 -34.5t-10.5 -40t1.5 -33.5t22.5 -14q19 0 39.5 21t38.5 49t32.5 56.5t22.5 44.5q6 13 13.5 9.5t0.5 -18.5q-11 -23 -27.5 -55t-37.5 -61.5t-46 -50.5t-54 -21q-12 0 -23.5 6.5
t-21.5 20.5q-8 13 -10.5 39t6.5 49q12 25 21.5 44.5t19 37.5t20 37t23.5 43q10 18 16.5 30.5t13 20t14 10.5t19.5 2q10 -1 20.5 -3.5t21.5 -0.5q-11 -6 -26.5 -26t-32 -47t-33 -57.5t-29.5 -57.5zM422 229q4 18 12.5 36.5t20.5 34.5t27.5 28t33.5 17q27 8 47 4t30 -18
t9.5 -38t-15.5 -55q-22 -27 -36 -41q-12 -12 -18 -14t7 22t23 46t13 39t-3 27.5t-25 11.5q-14 1 -27.5 -5.5t-23.5 -20.5q-11 -15 -23.5 -35t-18.5 -37q-4 -10 -5 -24t4 -25.5t19.5 -18t42.5 -2.5q14 2 14 -5.5t-20 -9.5q-33 -4 -52 3.5t-28 20.5t-10 29t2 30zM500 148
q-16 -29 -32.5 -56.5t-35.5 -48.5t-40 -34t-45 -13q-58 0 -80 41q-13 24 -13.5 41.5t6 28t16.5 14t17.5 0t10 -14.5t-6.5 -29q-4 -9 -2 -18.5t7.5 -17.5t14 -13.5t19.5 -5.5q17 -1 29.5 3.5t23.5 14.5q23 20 44.5 49t39.5 61q2 2 14 0q5 -1 13 -2z" />
    <glyph glyph-name="afii10096_afii10077" unicode="&#x44e;&#x43b;" horiz-adv-x="884" 
d="M407 311q-16 4 -34.5 -4.5t-37.5 -26.5t-36.5 -43.5t-30.5 -54.5q-14 -30 -22.5 -57t-10.5 -48.5t3 -36t18 -18.5q14 -4 31.5 3t35.5 22q-16 23 -16 48q1 17 8.5 29.5t25.5 12.5q13 0 21.5 -9t8.5 -20q0 -3 -0.5 -5.5t-1.5 -5.5q16 23 30 53t22 57.5t9.5 49t-4.5 36
t-19 18.5zM94 144q-6 -13 -10 -21t-9 -20t-14 -32t-25 -57q-6 -11 -14 -13t-24 -2q-11 -1 -18.5 -1t-15.5 -5q36 72 68.5 142t69.5 138q19 36 33 50t38 13q10 -1 20.5 -3.5t21.5 -0.5q-11 -6 -26.5 -26t-32 -47t-33 -57.5t-29.5 -57.5zM277 204q-8 -19 -25 -37t-40 -16
q-20 2 -40 12.5t-40 12.5q-11 1 -20 -5.5t-14 -15.5q0 -2 -3 -2.5t-6 0t-5 1t-1 2.5q4 9 11 18t15 16.5t18 11.5t21 3q11 0 21 -3.5t19.5 -7.5t19 -7.5t19.5 -4.5q14 -2 22.5 4.5t13.5 17.5q2 3 9 2.5t5 -2.5zM435 158q-11 -26 -33 -58t-50 -58q13 -25 46 -25q14 0 27.5 8
t26.5 21t24.5 30.5t21.5 35.5q4 8 13 4t3 -15q-9 -15 -20.5 -32.5t-26.5 -32.5t-33 -25t-38 -10q-22 0 -37.5 7t-24.5 18q-21 -15 -42.5 -24.5t-43.5 -8.5q-28 1 -44 16.5t-21.5 40.5t-1 56.5t18.5 64.5q14 34 35.5 64.5t47 53t52 35.5t51.5 12q28 0 44.5 -16t22 -41
t1 -56.5t-18.5 -64.5zM831 323q6 12 15.5 16.5t23.5 4.5h54q-11 -9 -19 -16.5t-15.5 -18t-15.5 -26t-19 -38.5q-11 -21 -21.5 -43.5t-20 -44t-16.5 -40t-9 -31.5q-7 -32 0.5 -45.5t18.5 -14.5q18 0 36.5 16t35.5 40.5t32.5 54t28.5 56.5q6 13 13.5 9.5t0.5 -18.5
q-12 -26 -28 -57.5t-36 -59.5t-44 -47t-51 -19q-17 0 -30 8.5t-19.5 25t-6.5 40.5t10 54q7 22 17 47t21.5 50.5t23 50.5t20.5 46zM616 45q20 17 36.5 41.5t31 52.5t27 57t23.5 54.5t21 45t21 29.5q8 8 16 12t19 5.5t25.5 1.5h36.5q4 0 1 -2.5t-9 -5.5t-14.5 -5.5t-14.5 -2.5
q-29 1 -41 -11.5t-25 -35.5q-16 -29 -34.5 -76t-42 -92.5t-53 -78.5t-68.5 -33q-24 0 -44.5 8.5t-33.5 32.5q-18 33 -10.5 53t21.5 25.5t24 -5t-3 -38.5q-4 -8 -2 -17t7.5 -16.5t14 -12t17.5 -4.5q17 1 29.5 4.5t23.5 13.5z" />
    <glyph glyph-name="afii10096_afii10078" unicode="&#x44e;&#x43c;" horiz-adv-x="1077" 
d="M407 311q-16 4 -34.5 -4.5t-37.5 -26.5t-36.5 -43.5t-30.5 -54.5q-14 -30 -22.5 -57t-10.5 -48.5t3 -36t18 -18.5q14 -4 31.5 3t35.5 22q-16 23 -16 48q1 17 8.5 29.5t25.5 12.5q13 0 21.5 -9t8.5 -20q0 -3 -0.5 -5.5t-1.5 -5.5q16 23 30 53t22 57.5t9.5 49t-4.5 36
t-19 18.5zM94 144q-6 -13 -10 -21t-9 -20t-14 -32t-25 -57q-6 -11 -14 -13t-24 -2q-11 -1 -18.5 -1t-15.5 -5q36 72 68.5 142t69.5 138q19 36 33 50t38 13q10 -1 20.5 -3.5t21.5 -0.5q-11 -6 -26.5 -26t-32 -47t-33 -57.5t-29.5 -57.5zM277 204q-8 -19 -25 -37t-40 -16
q-20 2 -40 12.5t-40 12.5q-11 1 -20 -5.5t-14 -15.5q0 -2 -3 -2.5t-6 0t-5 1t-1 2.5q4 9 11 18t15 16.5t18 11.5t21 3q11 0 21 -3.5t19.5 -7.5t19 -7.5t19.5 -4.5q14 -2 22.5 4.5t13.5 17.5q2 3 9 2.5t5 -2.5zM435 158q-11 -26 -33 -58t-50 -58q13 -25 46 -25q14 0 27.5 8
t26.5 21t24.5 30.5t21.5 35.5q4 8 13 4t3 -15q-9 -15 -20.5 -32.5t-26.5 -32.5t-33 -25t-38 -10q-22 0 -37.5 7t-24.5 18q-21 -15 -42.5 -24.5t-43.5 -8.5q-28 1 -44 16.5t-21.5 40.5t-1 56.5t18.5 64.5q14 34 35.5 64.5t47 53t52 35.5t51.5 12q28 0 44.5 -16t22 -41
t1 -56.5t-18.5 -64.5zM777 1q-17 1 -30 9.5t-19.5 25t-6.5 40t10 53.5q7 22 17 47t21.5 50.5t23 50.5t20.5 46q6 12 15.5 16.5t23.5 4.5h54q-11 -9 -19 -16.5t-15.5 -18t-15.5 -26t-19 -38.5q-11 -21 -21.5 -43.5t-20 -44t-16.5 -40t-9 -31.5q-7 -32 0.5 -45t18.5 -15
q20 -3 39.5 15t37.5 47.5t34.5 66t31.5 71t28.5 61.5t25.5 38q8 8 16 12t19 5.5t25.5 1.5h36.5q4 0 1 -2.5t-9 -5.5t-14.5 -5.5t-14.5 -2.5q-29 1 -40.5 -11.5t-25.5 -35.5q-11 -19 -22.5 -47.5t-25 -60t-29.5 -63t-35 -56t-41.5 -39.5t-49.5 -14zM616 45q20 17 36.5 41.5
t31 52.5t27 57t23.5 54.5t21 45t21 29.5q8 8 16 12t19 5.5t25.5 1.5h36.5q4 0 1 -2.5t-9 -5.5t-14.5 -5.5t-14.5 -2.5q-29 1 -41 -11.5t-25 -35.5q-16 -29 -34.5 -76t-42 -92.5t-53 -78.5t-68.5 -33q-24 0 -44.5 8.5t-33.5 32.5q-18 33 -10.5 53t21.5 25.5t24 -5t-3 -38.5
q-4 -8 -2 -17t7.5 -16.5t14 -12t17.5 -4.5q17 1 29.5 4.5t23.5 13.5zM1024 323q6 12 15.5 16.5t23.5 4.5h54q-11 -9 -19 -16.5t-15.5 -18t-15.5 -26t-19 -38.5q-11 -21 -21.5 -43.5t-20 -44t-16.5 -40t-9 -31.5q-7 -32 0.5 -45.5t18.5 -14.5q18 0 36.5 16t35.5 40.5t32.5 54
t28.5 56.5q6 13 13.5 9.5t0.5 -18.5q-12 -26 -28 -57.5t-36 -59.5t-44 -47t-51 -19q-17 0 -30 8.5t-19.5 25t-6.5 40.5t10 54q7 22 17 47t21.5 50.5t23 50.5t20.5 46z" />
    <glyph glyph-name="afii10096_afii10097" unicode="&#x44e;&#x44f;" horiz-adv-x="864" 
d="M407 311q-16 4 -34.5 -4.5t-37.5 -26.5t-36.5 -43.5t-30.5 -54.5q-14 -30 -22.5 -57t-10.5 -48.5t3 -36t18 -18.5q14 -4 31.5 3t35.5 22q-16 23 -16 48q1 17 8.5 29.5t25.5 12.5q13 0 21.5 -9t8.5 -20q0 -3 -0.5 -5.5t-1.5 -5.5q16 23 30 53t22 57.5t9.5 49t-4.5 36
t-19 18.5zM94 144q-6 -13 -10 -21t-9 -20t-14 -32t-25 -57q-6 -11 -14 -13t-24 -2q-11 -1 -18.5 -1t-15.5 -5q36 72 68.5 142t69.5 138q19 36 33 50t38 13q10 -1 20.5 -3.5t21.5 -0.5q-11 -6 -26.5 -26t-32 -47t-33 -57.5t-29.5 -57.5zM277 204q-8 -19 -25 -37t-40 -16
q-20 2 -40 12.5t-40 12.5q-11 1 -20 -5.5t-14 -15.5q0 -2 -3 -2.5t-6 0t-5 1t-1 2.5q4 9 11 18t15 16.5t18 11.5t21 3q11 0 21 -3.5t19.5 -7.5t19 -7.5t19.5 -4.5q14 -2 22.5 4.5t13.5 17.5q2 3 9 2.5t5 -2.5zM435 158q-11 -26 -33 -58t-50 -58q13 -25 46 -25q14 0 27.5 8
t26.5 21t24.5 30.5t21.5 35.5q4 8 13 4t3 -15q-9 -15 -20.5 -32.5t-26.5 -32.5t-33 -25t-38 -10q-22 0 -37.5 7t-24.5 18q-21 -15 -42.5 -24.5t-43.5 -8.5q-28 1 -44 16.5t-21.5 40.5t-1 56.5t18.5 64.5q14 34 35.5 64.5t47 53t52 35.5t51.5 12q28 0 44.5 -16t22 -41
t1 -56.5t-18.5 -64.5zM788 144q-7 -14 -14.5 -34.5t-10.5 -40t1.5 -33.5t22.5 -14q19 0 39.5 21t38.5 49t32.5 56.5t22.5 44.5q6 13 13.5 9.5t0.5 -18.5q-11 -23 -27.5 -55t-37.5 -61.5t-46 -50.5t-54 -21q-12 0 -23.5 6.5t-21.5 20.5q-8 13 -10.5 39t6.5 49
q12 25 21.5 44.5t19 37.5t20 37t23.5 43q10 18 16.5 30.5t13 20t14 10.5t19.5 2q10 -1 20.5 -3.5t21.5 -0.5q-11 -6 -26.5 -26t-32 -47t-33 -57.5t-29.5 -57.5zM650 229q4 18 12.5 36.5t20.5 34.5t27.5 28t33.5 17q27 8 47 4t30 -18t9.5 -38t-15.5 -55q-22 -27 -36 -41
q-12 -12 -18 -14t7 22t23 46t13 39t-3 27.5t-25 11.5q-14 1 -27.5 -5.5t-23.5 -20.5q-11 -15 -23.5 -35t-18.5 -37q-4 -10 -5 -24t4 -25.5t19.5 -18t42.5 -2.5q14 2 14 -5.5t-20 -9.5q-33 -4 -52 3.5t-28 20.5t-10 29t2 30zM728 148q-16 -29 -32.5 -56.5t-35.5 -48.5
t-40 -34t-45 -13q-58 0 -80 41q-13 24 -13.5 41.5t6 28t16.5 14t17.5 0t10 -14.5t-6.5 -29q-4 -9 -2 -18.5t7.5 -17.5t14 -13.5t19.5 -5.5q17 -1 29.5 3.5t23.5 14.5q23 20 44.5 49t39.5 61q2 2 14 0q5 -1 13 -2z" />
    <glyph glyph-name="afii10097_afii10077" unicode="&#x44f;&#x43b;" horiz-adv-x="766" 
d="M153 229q4 18 12.5 36.5t20.5 34.5t27.5 28t33.5 17q27 8 47 4t30 -18t9.5 -38t-15.5 -55q-22 -27 -36 -41q-12 -12 -18 -14t7 22t23 46t13 39t-3 27.5t-25 11.5q-14 1 -27.5 -5.5t-23.5 -20.5q-11 -15 -23.5 -35t-18.5 -37q-4 -10 -5 -24t4 -25.5t19.5 -18t42.5 -2.5
q14 2 14 -5.5t-20 -9.5q-33 -4 -52 3.5t-28 20.5t-10 29t2 30zM291 144q-7 -14 -14.5 -34.5t-10.5 -40t1.5 -33.5t22.5 -14q20 0 42 23t48 66q8 13 15.5 9.5t-0.5 -17.5q-29 -50 -59.5 -78.5t-63.5 -28.5q-12 0 -23.5 6.5t-21.5 20.5q-8 13 -10.5 39t6.5 49q12 25 21.5 44.5
t19 37.5t20 37t23.5 43q10 18 16.5 30.5t13 20t14 10.5t19.5 2q10 -1 20.5 -3.5t21.5 -0.5q-11 -6 -26.5 -26t-32 -47t-33 -57.5t-29.5 -57.5zM231 148q-16 -29 -32.5 -56.5t-35.5 -48.5t-40 -34t-45 -13q-58 0 -80 41q-13 24 -13.5 41.5t6 28t16.5 14t17.5 0t10 -14.5
t-6.5 -29q-4 -9 -2 -18.5t7.5 -17.5t14 -13.5t19.5 -5.5q17 -1 29.5 3.5t23.5 14.5q23 20 44.5 49t39.5 61q2 2 14 0q5 -1 13 -2zM713 323q6 12 15.5 16.5t23.5 4.5h54q-11 -9 -19 -16.5t-15.5 -18t-15.5 -26t-19 -38.5q-11 -21 -21.5 -43.5t-20 -44t-16.5 -40t-9 -31.5
q-7 -32 0.5 -45.5t18.5 -14.5q18 0 36.5 16t35.5 40.5t32.5 54t28.5 56.5q6 13 13.5 9.5t0.5 -18.5q-12 -26 -28 -57.5t-36 -59.5t-44 -47t-51 -19q-17 0 -30 8.5t-19.5 25t-6.5 40.5t10 54q7 22 17 47t21.5 50.5t23 50.5t20.5 46zM498 45q20 17 36.5 41.5t31 52.5t27 57
t23.5 54.5t21 45t21 29.5q8 8 16 12t19 5.5t25.5 1.5h36.5q4 0 1 -2.5t-9 -5.5t-14.5 -5.5t-14.5 -2.5q-29 1 -41 -11.5t-25 -35.5q-16 -29 -34.5 -76t-42 -92.5t-53 -78.5t-68.5 -33q-24 0 -44.5 8.5t-33.5 32.5q-18 33 -10.5 53t21.5 25.5t24 -5t-3 -38.5q-4 -8 -2 -17
t7.5 -16.5t14 -12t17.5 -4.5q17 1 29.5 4.5t23.5 13.5z" />
    <glyph glyph-name="afii10097_afii10078" unicode="&#x44f;&#x43c;" horiz-adv-x="959" 
d="M153 229q4 18 12.5 36.5t20.5 34.5t27.5 28t33.5 17q27 8 47 4t30 -18t9.5 -38t-15.5 -55q-22 -27 -36 -41q-12 -12 -18 -14t7 22t23 46t13 39t-3 27.5t-25 11.5q-14 1 -27.5 -5.5t-23.5 -20.5q-11 -15 -23.5 -35t-18.5 -37q-4 -10 -5 -24t4 -25.5t19.5 -18t42.5 -2.5
q14 2 14 -5.5t-20 -9.5q-33 -4 -52 3.5t-28 20.5t-10 29t2 30zM291 144q-7 -14 -14.5 -34.5t-10.5 -40t1.5 -33.5t22.5 -14q20 0 42 23t48 66q8 13 15.5 9.5t-0.5 -17.5q-29 -50 -59.5 -78.5t-63.5 -28.5q-12 0 -23.5 6.5t-21.5 20.5q-8 13 -10.5 39t6.5 49q12 25 21.5 44.5
t19 37.5t20 37t23.5 43q10 18 16.5 30.5t13 20t14 10.5t19.5 2q10 -1 20.5 -3.5t21.5 -0.5q-11 -6 -26.5 -26t-32 -47t-33 -57.5t-29.5 -57.5zM231 148q-16 -29 -32.5 -56.5t-35.5 -48.5t-40 -34t-45 -13q-58 0 -80 41q-13 24 -13.5 41.5t6 28t16.5 14t17.5 0t10 -14.5
t-6.5 -29q-4 -9 -2 -18.5t7.5 -17.5t14 -13.5t19.5 -5.5q17 -1 29.5 3.5t23.5 14.5q23 20 44.5 49t39.5 61q2 2 14 0q5 -1 13 -2zM659 1q-17 1 -30 9.5t-19.5 25t-6.5 40t10 53.5q7 22 17 47t21.5 50.5t23 50.5t20.5 46q6 12 15.5 16.5t23.5 4.5h54q-11 -9 -19 -16.5
t-15.5 -18t-15.5 -26t-19 -38.5q-11 -21 -21.5 -43.5t-20 -44t-16.5 -40t-9 -31.5q-7 -32 0.5 -45t18.5 -15q20 -3 39.5 15t37.5 47.5t34.5 66t31.5 71t28.5 61.5t25.5 38q8 8 16 12t19 5.5t25.5 1.5h36.5q4 0 1 -2.5t-9 -5.5t-14.5 -5.5t-14.5 -2.5q-29 1 -40.5 -11.5
t-25.5 -35.5q-11 -19 -22.5 -47.5t-25 -60t-29.5 -63t-35 -56t-41.5 -39.5t-49.5 -14zM498 45q20 17 36.5 41.5t31 52.5t27 57t23.5 54.5t21 45t21 29.5q8 8 16 12t19 5.5t25.5 1.5h36.5q4 0 1 -2.5t-9 -5.5t-14.5 -5.5t-14.5 -2.5q-29 1 -41 -11.5t-25 -35.5
q-16 -29 -34.5 -76t-42 -92.5t-53 -78.5t-68.5 -33q-24 0 -44.5 8.5t-33.5 32.5q-18 33 -10.5 53t21.5 25.5t24 -5t-3 -38.5q-4 -8 -2 -17t7.5 -16.5t14 -12t17.5 -4.5q17 1 29.5 4.5t23.5 13.5zM906 323q6 12 15.5 16.5t23.5 4.5h54q-11 -9 -19 -16.5t-15.5 -18t-15.5 -26
t-19 -38.5q-11 -21 -21.5 -43.5t-20 -44t-16.5 -40t-9 -31.5q-7 -32 0.5 -45.5t18.5 -14.5q18 0 36.5 16t35.5 40.5t32.5 54t28.5 56.5q6 13 13.5 9.5t0.5 -18.5q-12 -26 -28 -57.5t-36 -59.5t-44 -47t-51 -19q-17 0 -30 8.5t-19.5 25t-6.5 40.5t10 54q7 22 17 47t21.5 50.5
t23 50.5t20.5 46z" />
    <glyph glyph-name="afii10097_afii10097" unicode="&#x44f;&#x44f;" horiz-adv-x="747" 
d="M153 229q4 18 12.5 36.5t20.5 34.5t27.5 28t33.5 17q27 8 47 4t30 -18t9.5 -38t-15.5 -55q-22 -27 -36 -41q-12 -12 -18 -14t7 22t23 46t13 39t-3 27.5t-25 11.5q-14 1 -27.5 -5.5t-23.5 -20.5q-11 -15 -23.5 -35t-18.5 -37q-4 -10 -5 -24t4 -25.5t19.5 -18t42.5 -2.5
q14 2 14 -5.5t-20 -9.5q-33 -4 -52 3.5t-28 20.5t-10 29t2 30zM291 144q-7 -14 -14.5 -34.5t-10.5 -40t1.5 -33.5t22.5 -14q20 0 42 23t48 66q8 13 15.5 9.5t-0.5 -17.5q-29 -50 -59.5 -78.5t-63.5 -28.5q-12 0 -23.5 6.5t-21.5 20.5q-8 13 -10.5 39t6.5 49q12 25 21.5 44.5
t19 37.5t20 37t23.5 43q10 18 16.5 30.5t13 20t14 10.5t19.5 2q10 -1 20.5 -3.5t21.5 -0.5q-11 -6 -26.5 -26t-32 -47t-33 -57.5t-29.5 -57.5zM231 148q-16 -29 -32.5 -56.5t-35.5 -48.5t-40 -34t-45 -13q-58 0 -80 41q-13 24 -13.5 41.5t6 28t16.5 14t17.5 0t10 -14.5
t-6.5 -29q-4 -9 -2 -18.5t7.5 -17.5t14 -13.5t19.5 -5.5q17 -1 29.5 3.5t23.5 14.5q23 20 44.5 49t39.5 61q2 2 14 0q5 -1 13 -2zM671 144q-7 -14 -14.5 -34.5t-10.5 -40t1.5 -33.5t22.5 -14q19 0 39.5 21t38.5 49t32.5 56.5t22.5 44.5q6 13 13.5 9.5t0.5 -18.5
q-11 -23 -27.5 -55t-37.5 -61.5t-46 -50.5t-54 -21q-12 0 -23.5 6.5t-21.5 20.5q-8 13 -10.5 39t6.5 49q12 25 21.5 44.5t19 37.5t20 37t23.5 43q10 18 16.5 30.5t13 20t14 10.5t19.5 2q10 -1 20.5 -3.5t21.5 -0.5q-11 -6 -26.5 -26t-32 -47t-33 -57.5t-29.5 -57.5zM533 229
q4 18 12.5 36.5t20.5 34.5t27.5 28t33.5 17q27 8 47 4t30 -18t9.5 -38t-15.5 -55q-22 -27 -36 -41q-12 -12 -18 -14t7 22t23 46t13 39t-3 27.5t-25 11.5q-14 1 -27.5 -5.5t-23.5 -20.5q-11 -15 -23.5 -35t-18.5 -37q-4 -10 -5 -24t4 -25.5t19.5 -18t42.5 -2.5q14 2 14 -5.5
t-20 -9.5q-33 -4 -52 3.5t-28 20.5t-10 29t2 30zM611 148q-16 -29 -32.5 -56.5t-35.5 -48.5t-40 -34t-45 -13q-58 0 -80 41q-13 24 -13.5 41.5t6 28t16.5 14t17.5 0t10 -14.5t-6.5 -29q-4 -9 -2 -18.5t7.5 -17.5t14 -13.5t19.5 -5.5q17 -1 29.5 3.5t23.5 14.5q23 20 44.5 49
t39.5 61q2 2 14 0q5 -1 13 -2z" />
    <glyph glyph-name="z_z" unicode="zz" horiz-adv-x="682" 
d="M583 -6q-23 1 -44.5 4t-40 6t-33.5 4.5t-25 -0.5q-16 -4 -30.5 -12t-31.5 -8t-17 11.5t5 20.5q3 4 14.5 10t25.5 11.5t26.5 10.5t17.5 8q19 9 41 34.5t44.5 57t45 62.5t42.5 52q-18 5 -41 9.5t-43 4.5q-15 0 -27.5 -1t-23.5 -5.5t-21.5 -14.5t-23.5 -27
q-16 -23 -30.5 -53t-28.5 -55q-15 -28 -31 -52t-34 -41.5t-37 -27.5t-40 -9q-23 1 -44.5 4t-40 6t-33.5 4.5t-25 -0.5q-16 -4 -30.5 -12t-31.5 -8t-17 11.5t5 20.5q3 4 14.5 10t25.5 11.5t26.5 10.5t17.5 8q19 9 41 34.5t44.5 57t45 62.5t42.5 52q-18 5 -41 9.5t-43 4.5
q-24 0 -42 -5t-35 -21.5t-36.5 -48.5t-46.5 -85q-3 -5 -6.5 -7t-6.5 -1t-3.5 4.5t3.5 11.5q3 5 11 21.5t17.5 35.5l18 36t12.5 24q18 33 36 52.5t35 29.5t33.5 13t31.5 3q12 0 24 -4.5t23 -10t22.5 -10t22.5 -4.5q9 0 16 3t12 7t8.5 7t7.5 3q7 0 12 -6.5t5 -15.5
q-1 -14 -9.5 -17.5t-15.5 -7.5q-26 -14 -50 -43.5t-48 -64t-47 -67.5t-46 -54q12 -4 28 -8.5t33 -7.5t33 -4t27 2q29 8 51.5 36.5t42.5 65.5q13 23 24 47t29 56q18 33 36 52.5t35 29.5t33.5 13t31.5 3q12 0 24 -4.5t23 -10t22.5 -10t22.5 -4.5q9 0 16 3t12 7t8.5 7t7.5 3
q7 0 12 -6.5t5 -15.5q-1 -14 -9.5 -17.5t-15.5 -7.5q-26 -14 -50 -43.5t-48 -64t-47 -67.5t-46 -54q12 -4 28 -8.5t33 -7.5t33 -4t27 2q23 6 43 28t37 49t30 55t22 46q3 7 11.5 6.5t2.5 -14.5q-17 -41 -37 -80.5t-42.5 -70t-48.5 -48.5t-54 -17z" />
    <glyph glyph-name="afii10071_afii10077" unicode="&#x451;&#x43b;" horiz-adv-x="645" 
d="M214 215q20 17 33.5 38t18.5 39t2 30t-15 11.5t-33 -16t-52 -52.5q-20 -24 -36.5 -52t-23.5 -42q7 0 19 2.5t27 8t30.5 14t29.5 19.5zM356 440q0 -14 -9 -23.5t-23 -9.5t-24 9t-10 24q0 14 9 23.5t23 9.5t24 -9t10 -24zM227 440q0 -14 -9 -23.5t-23 -9.5t-24 9t-10 24
q0 14 9 23.5t23 9.5t24 -9t10 -24zM224 198q-12 -9 -28.5 -17t-34.5 -14t-34 -9.5t-26 -3.5q-6 -14 -10.5 -37t-3 -45t12 -38.5t35.5 -16.5q33 0 62 20.5t57 62.5q4 6 9 9t9 3t5 -4t-3 -11q-33 -57 -69 -79t-78 -22q-38 0 -66.5 24t-29.5 72q0 22 5.5 47t16 49.5t24.5 47.5
t31 43q19 22 42 40t46 27.5t44.5 9.5t38.5 -12q14 -11 16.5 -28t-5.5 -37.5t-25 -41.5t-41 -39zM592 323q6 12 15.5 16.5t23.5 4.5h54q-11 -9 -19 -16.5t-15.5 -18t-15.5 -26t-19 -38.5q-11 -21 -21.5 -43.5t-20 -44t-16.5 -40t-9 -31.5q-7 -32 0.5 -45.5t18.5 -14.5
q18 0 36.5 16t35.5 40.5t32.5 54t28.5 56.5q6 13 13.5 9.5t0.5 -18.5q-12 -26 -28 -57.5t-36 -59.5t-44 -47t-51 -19q-17 0 -30 8.5t-19.5 25t-6.5 40.5t10 54q7 22 17 47t21.5 50.5t23 50.5t20.5 46zM377 45q20 17 36.5 41.5t31 52.5t27 57t23.5 54.5t21 45t21 29.5
q8 8 16 12t19 5.5t25.5 1.5h36.5q4 0 1 -2.5t-9 -5.5t-14.5 -5.5t-14.5 -2.5q-29 1 -41 -11.5t-25 -35.5q-16 -29 -34.5 -76t-42 -92.5t-53 -78.5t-68.5 -33q-24 0 -44.5 8.5t-33.5 32.5q-18 33 -10.5 53t21.5 25.5t24 -5t-3 -38.5q-4 -8 -2 -17t7.5 -16.5t14 -12t17.5 -4.5
q17 1 29.5 4.5t23.5 13.5z" />
    <glyph glyph-name="afii10071_afii10078" unicode="&#x451;&#x43c;" horiz-adv-x="838" 
d="M214 215q20 17 33.5 38t18.5 39t2 30t-15 11.5t-33 -16t-52 -52.5q-20 -24 -36.5 -52t-23.5 -42q7 0 19 2.5t27 8t30.5 14t29.5 19.5zM356 440q0 -14 -9 -23.5t-23 -9.5t-24 9t-10 24q0 14 9 23.5t23 9.5t24 -9t10 -24zM227 440q0 -14 -9 -23.5t-23 -9.5t-24 9t-10 24
q0 14 9 23.5t23 9.5t24 -9t10 -24zM224 198q-12 -9 -28.5 -17t-34.5 -14t-34 -9.5t-26 -3.5q-6 -14 -10.5 -37t-3 -45t12 -38.5t35.5 -16.5q33 0 62 20.5t57 62.5q4 6 9 9t9 3t5 -4t-3 -11q-33 -57 -69 -79t-78 -22q-38 0 -66.5 24t-29.5 72q0 22 5.5 47t16 49.5t24.5 47.5
t31 43q19 22 42 40t46 27.5t44.5 9.5t38.5 -12q14 -11 16.5 -28t-5.5 -37.5t-25 -41.5t-41 -39zM538 1q-17 1 -30 9.5t-19.5 25t-6.5 40t10 53.5q7 22 17 47t21.5 50.5t23 50.5t20.5 46q6 12 15.5 16.5t23.5 4.5h54q-11 -9 -19 -16.5t-15.5 -18t-15.5 -26t-19 -38.5
q-11 -21 -21.5 -43.5t-20 -44t-16.5 -40t-9 -31.5q-7 -32 0.5 -45t18.5 -15q20 -3 39.5 15t37.5 47.5t34.5 66t31.5 71t28.5 61.5t25.5 38q8 8 16 12t19 5.5t25.5 1.5h36.5q4 0 1 -2.5t-9 -5.5t-14.5 -5.5t-14.5 -2.5q-29 1 -40.5 -11.5t-25.5 -35.5q-11 -19 -22.5 -47.5
t-25 -60t-29.5 -63t-35 -56t-41.5 -39.5t-49.5 -14zM377 45q20 17 36.5 41.5t31 52.5t27 57t23.5 54.5t21 45t21 29.5q8 8 16 12t19 5.5t25.5 1.5h36.5q4 0 1 -2.5t-9 -5.5t-14.5 -5.5t-14.5 -2.5q-29 1 -41 -11.5t-25 -35.5q-16 -29 -34.5 -76t-42 -92.5t-53 -78.5
t-68.5 -33q-24 0 -44.5 8.5t-33.5 32.5q-18 33 -10.5 53t21.5 25.5t24 -5t-3 -38.5q-4 -8 -2 -17t7.5 -16.5t14 -12t17.5 -4.5q17 1 29.5 4.5t23.5 13.5zM785 323q6 12 15.5 16.5t23.5 4.5h54q-11 -9 -19 -16.5t-15.5 -18t-15.5 -26t-19 -38.5q-11 -21 -21.5 -43.5t-20 -44
t-16.5 -40t-9 -31.5q-7 -32 0.5 -45.5t18.5 -14.5q18 0 36.5 16t35.5 40.5t32.5 54t28.5 56.5q6 13 13.5 9.5t0.5 -18.5q-12 -26 -28 -57.5t-36 -59.5t-44 -47t-51 -19q-17 0 -30 8.5t-19.5 25t-6.5 40.5t10 54q7 22 17 47t21.5 50.5t23 50.5t20.5 46z" />
    <glyph glyph-name="afii10071_afii10097" unicode="&#x451;&#x44f;" horiz-adv-x="613" 
d="M214 215q20 17 33.5 38t18.5 39t2 30t-15 11.5t-33 -16t-52 -52.5q-20 -24 -36.5 -52t-23.5 -42q7 0 19 2.5t27 8t30.5 14t29.5 19.5zM356 440q0 -14 -9 -23.5t-23 -9.5t-24 9t-10 24q0 14 9 23.5t23 9.5t24 -9t10 -24zM227 440q0 -14 -9 -23.5t-23 -9.5t-24 9t-10 24
q0 14 9 23.5t23 9.5t24 -9t10 -24zM224 198q-12 -9 -28.5 -17t-34.5 -14t-34 -9.5t-26 -3.5q-6 -14 -10.5 -37t-3 -45t12 -38.5t35.5 -16.5q33 0 62 20.5t57 62.5q4 6 9 9t9 3t5 -4t-3 -11q-33 -57 -69 -79t-78 -22q-38 0 -66.5 24t-29.5 72q0 22 5.5 47t16 49.5t24.5 47.5
t31 43q19 22 42 40t46 27.5t44.5 9.5t38.5 -12q14 -11 16.5 -28t-5.5 -37.5t-25 -41.5t-41 -39zM537 144q-7 -14 -14.5 -34.5t-10.5 -40t1.5 -33.5t22.5 -14q19 0 39.5 21t38.5 49t32.5 56.5t22.5 44.5q6 13 13.5 9.5t0.5 -18.5q-11 -23 -27.5 -55t-37.5 -61.5t-46 -50.5
t-54 -21q-12 0 -23.5 6.5t-21.5 20.5q-8 13 -10.5 39t6.5 49q12 25 21.5 44.5t19 37.5t20 37t23.5 43q10 18 16.5 30.5t13 20t14 10.5t19.5 2q10 -1 20.5 -3.5t21.5 -0.5q-11 -6 -26.5 -26t-32 -47t-33 -57.5t-29.5 -57.5zM399 229q4 18 12.5 36.5t20.5 34.5t27.5 28
t33.5 17q27 8 47 4t30 -18t9.5 -38t-15.5 -55q-22 -27 -36 -41q-12 -12 -18 -14t7 22t23 46t13 39t-3 27.5t-25 11.5q-14 1 -27.5 -5.5t-23.5 -20.5q-11 -15 -23.5 -35t-18.5 -37q-4 -10 -5 -24t4 -25.5t19.5 -18t42.5 -2.5q14 2 14 -5.5t-20 -9.5q-33 -4 -52 3.5t-28 20.5
t-10 29t2 30zM477 148q-16 -29 -32.5 -56.5t-35.5 -48.5t-40 -34t-45 -13q-58 0 -80 41q-13 24 -13.5 41.5t6 28t16.5 14t17.5 0t10 -14.5t-6.5 -29q-4 -9 -2 -18.5t7.5 -17.5t14 -13.5t19.5 -5.5q17 -1 29.5 3.5t23.5 14.5q23 20 44.5 49t39.5 61q2 2 14 0q5 -1 13 -2z" />
    <glyph glyph-name="afii10088_afii10085" unicode="&#x446;&#x443;" horiz-adv-x="756" 
d="M428 184q-12 -26 -28 -57.5t-36 -59.5t-44 -47t-51 -19q-17 0 -30 8.5t-19.5 25t-6.5 40.5t10 54q-13 -23 -28.5 -45.5t-33 -41t-36.5 -30t-37 -11.5q-8 0 -17.5 1.5t-18.5 6.5t-16.5 14t-10.5 23q-3 16 -1 31t7.5 29.5t13 28t14.5 27.5q-5 0 -9.5 3t0.5 13q5 8 9 17
t9 18l30 58t26 52q6 12 15.5 16.5t23.5 4.5h61q-9 -6 -16 -12.5t-14.5 -15.5t-15.5 -22t-18 -34q-14 -26 -25 -50q-11 -21 -21 -43t-17 -36q-18 -39 -20 -65t7.5 -36.5t28.5 -3t43 35.5q21 24 41.5 57t39.5 68.5t36.5 70.5t31.5 65q6 12 15.5 16.5t23.5 4.5h54
q-11 -9 -19 -16.5t-15.5 -18t-15.5 -26t-19 -38.5q-11 -21 -21.5 -43.5t-20 -44t-16.5 -40t-9 -31.5q-7 -32 0.5 -45.5t18.5 -14.5q18 0 36.5 16t35.5 40.5t32.5 54t28.5 56.5q6 13 13.5 9.5t0.5 -18.5zM225 -179q14 0 27.5 10t23.5 20q2 2 7 2.5t3 -6.5q-2 -8 -9.5 -17.5
t-20.5 -18t-29.5 -14.5t-35.5 -6t-32.5 11t-12.5 34t19.5 53t44.5 58t53.5 50t45.5 30h5.5t0.5 -10q-20 -16 -40.5 -37t-38 -43t-28.5 -44t-12 -39q0 -14 6 -23.5t23 -9.5zM517 -72q-24 -6 -51.5 -13t-55.5 -15t-54 -16.5t-47 -17.5q-38 -17 -63.5 -44t-34 -53.5t1.5 -45.5
t42 -19q33 0 68 20.5t67.5 49.5t60 61t44.5 56q5 8 10.5 17.5t11.5 19.5zM685 211q-19 -51 -38.5 -110t-41.5 -119q60 19 99 51t63 76q8 13 16.5 9.5t0.5 -17.5q-21 -38 -44 -62.5t-47.5 -40.5t-50.5 -26.5t-54 -21.5q-24 -42 -54.5 -89t-68.5 -86.5t-85 -65t-102 -25.5
q-38 0 -59 11t-29.5 29t-5.5 39.5t14 42.5q14 28 39.5 48t54.5 34q51 24 116.5 39.5t126.5 32.5q14 25 27 56t24 62t20 59t15 48q-13 -23 -31 -54.5t-40.5 -60t-49 -49t-55.5 -20.5q-8 0 -17.5 1.5t-18.5 6.5t-16.5 14t-10.5 23q-3 16 -1 31t7.5 29.5t13 28t14.5 27.5
q-5 0 -9.5 3t0.5 13q5 8 9 17t9 18l30 58t26 52q6 12 15.5 16.5t23.5 4.5h61q-7 -6 -17.5 -13t-19.5 -23q-26 -44 -47.5 -88t-42.5 -89q-18 -39 -20 -65t7.5 -36.5t28.5 -3t43 35.5q21 24 43 57t42.5 68.5t39 70.5t32.5 65q6 12 15.5 16.5t23.5 4.5h54q-14 -10 -24.5 -22.5
t-19.5 -28.5t-17 -36.5t-17 -45.5z" />
    <glyph glyph-name="afii10088_afii10069" unicode="&#x446;&#x434;" horiz-adv-x="749" 
d="M428 184q-12 -26 -28 -57.5t-36 -59.5t-44 -47t-51 -19q-17 0 -30 8.5t-19.5 25t-6.5 40.5t10 54q-13 -23 -28.5 -45.5t-33 -41t-36.5 -30t-37 -11.5q-8 0 -17.5 1.5t-18.5 6.5t-16.5 14t-10.5 23q-3 16 -1 31t7.5 29.5t13 28t14.5 27.5q-5 0 -9.5 3t0.5 13q5 8 9 17
t9 18l30 58t26 52q6 12 15.5 16.5t23.5 4.5h61q-9 -6 -16 -12.5t-14.5 -15.5t-15.5 -22t-18 -34q-14 -26 -25 -50q-11 -21 -21 -43t-17 -36q-18 -39 -20 -65t7.5 -36.5t28.5 -3t43 35.5q21 24 41.5 57t39.5 68.5t36.5 70.5t31.5 65q6 12 15.5 16.5t23.5 4.5h54
q-11 -9 -19 -16.5t-15.5 -18t-15.5 -26t-19 -38.5q-11 -21 -21.5 -43.5t-20 -44t-16.5 -40t-9 -31.5q-7 -32 0.5 -45.5t18.5 -14.5q18 0 36.5 16t35.5 40.5t32.5 54t28.5 56.5q6 13 13.5 9.5t0.5 -18.5zM315 17q-20 -16 -40.5 -37t-38 -43t-28.5 -44t-12 -39q0 -14 6 -23.5
t23 -9.5q14 0 27.5 10t23.5 20q2 2 7 2.5t3 -6.5q-2 -8 -9.5 -17.5t-20.5 -18t-29.5 -14.5t-35.5 -6t-32.5 11t-12.5 34t19.5 53t44.5 58t53.5 50t45.5 30h5.5t0.5 -10zM820 184q-19 -39 -35 -70t-33.5 -54.5t-37.5 -41t-48 -30.5q-17 -47 -48.5 -100.5t-74 -98.5t-93.5 -75
t-105 -30q-94 0 -94 77q0 37 25.5 65.5t61.5 49.5q37 22 72 37t68.5 27t65 22t60.5 22q9 26 14.5 53.5t8.5 57.5q3 29 3 51.5t-2 30.5q-12 -23 -32.5 -56.5t-46 -62.5t-54.5 -46t-59 -8q-38 16 -47.5 48.5t-0.5 72t31.5 80.5t50.5 74q22 27 50.5 45.5t59.5 26t62.5 2
t59.5 -27.5q13 -11 14.5 -21t-3 -15.5t-11.5 -4.5t-11 12q-10 27 -27.5 34t-39.5 -0.5t-46.5 -26.5t-47.5 -44q-27 -31 -50 -67t-35.5 -68.5t-12 -57t20.5 -33.5q22 -9 49.5 10.5t53 52t45.5 68.5t27 60q5 17 13 24t17 9t17.5 2t14.5 5q10 -60 6.5 -121.5t-19.5 -121.5
q18 13 36.5 29t33.5 36q25 33 37.5 62.5t20.5 43.5q7 13 14.5 10t0.5 -18zM594 -45q-8 -3 -17 -6l-18 -6q-55 -19 -113.5 -41.5t-106.5 -54.5q-24 -16 -41.5 -40.5t-23 -47t5 -39t41.5 -16.5q16 0 34.5 5.5t35.5 13.5t32 17t24 16q23 19 46 44.5t44 53.5q37 52 57 101z" />
    <glyph glyph-name="afii10088_afii10073" unicode="&#x446;&#x437;" horiz-adv-x="698" 
d="M428 184q-12 -26 -28 -57.5t-36 -59.5t-44 -47t-51 -19q-17 0 -30 8.5t-19.5 25t-6.5 40.5t10 54q-13 -23 -28.5 -45.5t-33 -41t-36.5 -30t-37 -11.5q-8 0 -17.5 1.5t-18.5 6.5t-16.5 14t-10.5 23q-3 16 -1 31t7.5 29.5t13 28t14.5 27.5q-5 0 -9.5 3t0.5 13q5 8 9 17
t9 18l30 58t26 52q6 12 15.5 16.5t23.5 4.5h61q-9 -6 -16 -12.5t-14.5 -15.5t-15.5 -22t-18 -34q-14 -26 -25 -50q-11 -21 -21 -43t-17 -36q-18 -39 -20 -65t7.5 -36.5t28.5 -3t43 35.5q21 24 41.5 57t39.5 68.5t36.5 70.5t31.5 65q6 12 15.5 16.5t23.5 4.5h54
q-11 -9 -19 -16.5t-15.5 -18t-15.5 -26t-19 -38.5q-11 -21 -21.5 -43.5t-20 -44t-16.5 -40t-9 -31.5q-7 -32 0.5 -45.5t18.5 -14.5q18 0 36.5 16t35.5 40.5t32.5 54t28.5 56.5q6 13 13.5 9.5t0.5 -18.5zM315 17q-20 -16 -40.5 -37t-38 -43t-28.5 -44t-12 -39q0 -14 6 -23.5
t23 -9.5q14 0 27.5 10t23.5 20q2 2 7 2.5t3 -6.5q-2 -8 -9.5 -17.5t-20.5 -18t-29.5 -14.5t-35.5 -6t-32.5 11t-12.5 34t19.5 53t44.5 58t53.5 50t45.5 30h5.5t0.5 -10zM769 184q-17 -35 -34.5 -67.5t-38 -59t-45 -45t-56.5 -24.5q-38 -106 -113.5 -182.5t-184.5 -108.5
q-38 -11 -68 -4t-47 26.5t-18 48t19 59.5q20 30 59.5 53.5t88.5 42.5t102 35t101 31q6 18 11.5 43.5t6 48t-7 37t-29.5 10.5q-10 -5 -21 -9.5t-23 -9.5q-6 -2 -10.5 0t-6 5.5t0.5 7.5t8 6q25 7 43.5 19t32 25t22.5 24.5t14 19.5q18 27 11 49.5t-27.5 31t-47.5 -2t-50 -49.5
q-5 -8 -11.5 -20t-14 -25.5t-14.5 -28t-13 -26.5q-6 -13 -13 -9.5t1 20.5q14 26 28 55t31 59q23 42 55.5 61.5t62 20t49.5 -16t19 -46.5q-2 -33 -26 -71t-72 -67q38 1 53 -18t16 -47q0 -5 -1 -15t-2.5 -21t-3.5 -21t-4 -16q25 5 46.5 22t40.5 41.5t35.5 54.5t31.5 61
q7 13 14 10t0 -18zM525 -36q-33 -11 -68 -20.5t-67.5 -20t-61.5 -22t-51 -24.5q-33 -19 -53.5 -50t-24.5 -59t12 -45t55 -9q29 6 65.5 26t73 52t68.5 75.5t52 96.5z" />
    <glyph glyph-name="afii10091_afii10069" unicode="&#x449;&#x434;" horiz-adv-x="930" 
d="M496 17q-20 -16 -40.5 -37t-38 -43t-28.5 -44t-12 -39q0 -14 6 -23.5t23 -9.5q14 0 27.5 10t23.5 20q2 2 7 2.5t3 -6.5q-2 -8 -9.5 -17.5t-20.5 -18t-29.5 -14.5t-35.5 -6t-32.5 11t-12.5 34t19.5 53t44.5 58t53.5 50t45.5 30h5.5t0.5 -10zM223 129q-13 -23 -28.5 -45.5
t-33 -41t-36.5 -30t-37 -11.5q-8 0 -17.5 1.5t-18.5 6.5t-16.5 14t-10.5 23q-3 16 -1 31t7.5 29.5t13 28t14.5 27.5q-5 0 -9.5 3t0.5 13q5 8 9 17t9 18l30 58t26 52q6 12 15.5 16.5t23.5 4.5h61q-9 -6 -16 -12.5t-14.5 -15.5t-15.5 -22t-18 -34q-14 -26 -25 -50
q-11 -21 -21 -43t-17 -36q-18 -39 -20 -65t7.5 -36.5t28.5 -3t43 35.5q21 24 41.5 57t39.5 68.5t36.5 70.5t31.5 65q6 12 15.5 16.5t23.5 4.5h54q-11 -9 -19 -16.5t-15.5 -18t-15.5 -26t-19 -38.5q-11 -21 -21.5 -43.5t-20 -44t-16.5 -40t-9 -31.5q-7 -32 0.5 -45.5
t18.5 -14.5q14 0 28 10t28 26q21 24 41.5 57t39.5 68.5t36.5 70.5t31.5 65q6 12 15.5 16.5t23.5 4.5h54q-11 -9 -19 -16.5t-15.5 -18t-15.5 -26t-19 -38.5q-11 -21 -21.5 -43.5t-20 -44t-16.5 -40t-9 -31.5q-7 -32 0.5 -45.5t18.5 -14.5q18 0 36.5 16t35.5 40.5t32.5 54
t28.5 56.5q6 13 13.5 9.5t0.5 -18.5q-12 -26 -28 -57.5t-36 -59.5t-44 -47t-51 -19q-17 0 -30 8.5t-19.5 25t-6.5 40.5t10 54q-9 -17 -23.5 -39t-32.5 -41.5t-38 -33.5t-41 -14q-17 0 -30 8.5t-19.5 25t-6.5 40.5t10 54zM1001 184q-19 -39 -35 -70t-33.5 -54.5t-37.5 -41
t-48 -30.5q-17 -47 -48.5 -100.5t-74 -98.5t-93.5 -75t-105 -30q-94 0 -94 77q0 37 25.5 65.5t61.5 49.5q37 22 72 37t68.5 27t65 22t60.5 22q9 26 14.5 53.5t8.5 57.5q3 29 3 51.5t-2 30.5q-12 -23 -32.5 -56.5t-46 -62.5t-54.5 -46t-59 -8q-38 16 -47.5 48.5t-0.5 72
t31.5 80.5t50.5 74q22 27 50.5 45.5t59.5 26t62.5 2t59.5 -27.5q13 -11 14.5 -21t-3 -15.5t-11.5 -4.5t-11 12q-10 27 -27.5 34t-39.5 -0.5t-46.5 -26.5t-47.5 -44q-27 -31 -50 -67t-35.5 -68.5t-12 -57t20.5 -33.5q22 -9 49.5 10.5t53 52t45.5 68.5t27 60q5 17 13 24t17 9
t17.5 2t14.5 5q10 -60 6.5 -121.5t-19.5 -121.5q18 13 36.5 29t33.5 36q25 33 37.5 62.5t20.5 43.5q7 13 14.5 10t0.5 -18zM775 -45q-8 -3 -17 -6l-18 -6q-55 -19 -113.5 -41.5t-106.5 -54.5q-24 -16 -41.5 -40.5t-23 -47t5 -39t41.5 -16.5q16 0 34.5 5.5t35.5 13.5t32 17
t24 16q23 19 46 44.5t44 53.5q37 52 57 101z" />
    <glyph glyph-name="afii10091_afii10073" unicode="&#x449;&#x437;" horiz-adv-x="879" 
d="M496 17q-20 -16 -40.5 -37t-38 -43t-28.5 -44t-12 -39q0 -14 6 -23.5t23 -9.5q14 0 27.5 10t23.5 20q2 2 7 2.5t3 -6.5q-2 -8 -9.5 -17.5t-20.5 -18t-29.5 -14.5t-35.5 -6t-32.5 11t-12.5 34t19.5 53t44.5 58t53.5 50t45.5 30h5.5t0.5 -10zM223 129q-13 -23 -28.5 -45.5
t-33 -41t-36.5 -30t-37 -11.5q-8 0 -17.5 1.5t-18.5 6.5t-16.5 14t-10.5 23q-3 16 -1 31t7.5 29.5t13 28t14.5 27.5q-5 0 -9.5 3t0.5 13q5 8 9 17t9 18l30 58t26 52q6 12 15.5 16.5t23.5 4.5h61q-9 -6 -16 -12.5t-14.5 -15.5t-15.5 -22t-18 -34q-14 -26 -25 -50
q-11 -21 -21 -43t-17 -36q-18 -39 -20 -65t7.5 -36.5t28.5 -3t43 35.5q21 24 41.5 57t39.5 68.5t36.5 70.5t31.5 65q6 12 15.5 16.5t23.5 4.5h54q-11 -9 -19 -16.5t-15.5 -18t-15.5 -26t-19 -38.5q-11 -21 -21.5 -43.5t-20 -44t-16.5 -40t-9 -31.5q-7 -32 0.5 -45.5
t18.5 -14.5q14 0 28 10t28 26q21 24 41.5 57t39.5 68.5t36.5 70.5t31.5 65q6 12 15.5 16.5t23.5 4.5h54q-11 -9 -19 -16.5t-15.5 -18t-15.5 -26t-19 -38.5q-11 -21 -21.5 -43.5t-20 -44t-16.5 -40t-9 -31.5q-7 -32 0.5 -45.5t18.5 -14.5q18 0 36.5 16t35.5 40.5t32.5 54
t28.5 56.5q6 13 13.5 9.5t0.5 -18.5q-12 -26 -28 -57.5t-36 -59.5t-44 -47t-51 -19q-17 0 -30 8.5t-19.5 25t-6.5 40.5t10 54q-9 -17 -23.5 -39t-32.5 -41.5t-38 -33.5t-41 -14q-17 0 -30 8.5t-19.5 25t-6.5 40.5t10 54zM950 184q-17 -35 -34.5 -67.5t-38 -59t-45 -45
t-56.5 -24.5q-38 -106 -113.5 -182.5t-184.5 -108.5q-38 -11 -68 -4t-47 26.5t-18 48t19 59.5q20 30 59.5 53.5t88.5 42.5t102 35t101 31q6 18 11.5 43.5t6 48t-7 37t-29.5 10.5q-10 -5 -21 -9.5t-23 -9.5q-6 -2 -10.5 0t-6 5.5t0.5 7.5t8 6q25 7 43.5 19t32 25t22.5 24.5
t14 19.5q18 27 11 49.5t-27.5 31t-47.5 -2t-50 -49.5q-5 -8 -11.5 -20t-14 -25.5t-14.5 -28t-13 -26.5q-6 -13 -13 -9.5t1 20.5q14 26 28 55t31 59q23 42 55.5 61.5t62 20t49.5 -16t19 -46.5q-2 -33 -26 -71t-72 -67q38 1 53 -18t16 -47q0 -5 -1 -15t-2.5 -21t-3.5 -21
t-4 -16q25 5 46.5 22t40.5 41.5t35.5 54.5t31.5 61q7 13 14 10t0 -18zM706 -36q-33 -11 -68 -20.5t-67.5 -20t-61.5 -22t-51 -24.5q-33 -19 -53.5 -50t-24.5 -59t12 -45t55 -9q29 6 65.5 26t73 52t68.5 75.5t52 96.5z" />
    <glyph glyph-name="afii10091_afii10085" unicode="&#x449;&#x443;" horiz-adv-x="937" 
d="M496 17q-20 -16 -40.5 -37t-38 -43t-28.5 -44t-12 -39q0 -14 6 -23.5t23 -9.5q14 0 27.5 10t23.5 20q2 2 7 2.5t3 -6.5q-2 -8 -9.5 -17.5t-20.5 -18t-29.5 -14.5t-35.5 -6t-32.5 11t-12.5 34t19.5 53t44.5 58t53.5 50t45.5 30h5.5t0.5 -10zM223 129q-13 -23 -28.5 -45.5
t-33 -41t-36.5 -30t-37 -11.5q-8 0 -17.5 1.5t-18.5 6.5t-16.5 14t-10.5 23q-3 16 -1 31t7.5 29.5t13 28t14.5 27.5q-5 0 -9.5 3t0.5 13q5 8 9 17t9 18l30 58t26 52q6 12 15.5 16.5t23.5 4.5h61q-9 -6 -16 -12.5t-14.5 -15.5t-15.5 -22t-18 -34q-14 -26 -25 -50
q-11 -21 -21 -43t-17 -36q-18 -39 -20 -65t7.5 -36.5t28.5 -3t43 35.5q21 24 41.5 57t39.5 68.5t36.5 70.5t31.5 65q6 12 15.5 16.5t23.5 4.5h54q-11 -9 -19 -16.5t-15.5 -18t-15.5 -26t-19 -38.5q-11 -21 -21.5 -43.5t-20 -44t-16.5 -40t-9 -31.5q-7 -32 0.5 -45.5
t18.5 -14.5q14 0 28 10t28 26q21 24 41.5 57t39.5 68.5t36.5 70.5t31.5 65q6 12 15.5 16.5t23.5 4.5h54q-11 -9 -19 -16.5t-15.5 -18t-15.5 -26t-19 -38.5q-11 -21 -21.5 -43.5t-20 -44t-16.5 -40t-9 -31.5q-7 -32 0.5 -45.5t18.5 -14.5q18 0 36.5 16t35.5 40.5t32.5 54
t28.5 56.5q6 13 13.5 9.5t0.5 -18.5q-12 -26 -28 -57.5t-36 -59.5t-44 -47t-51 -19q-17 0 -30 8.5t-19.5 25t-6.5 40.5t10 54q-9 -17 -23.5 -39t-32.5 -41.5t-38 -33.5t-41 -14q-17 0 -30 8.5t-19.5 25t-6.5 40.5t10 54zM1007 182q-26 -52 -46 -87.5t-44.5 -61t-59 -45
t-88.5 -38.5q-24 -42 -54.5 -89t-68.5 -86.5t-85 -65t-102 -25.5q-38 0 -59 11t-29.5 29t-5.5 39.5t14 42.5q14 28 39.5 48t54.5 34q51 24 116.5 39.5t126.5 32.5q14 25 27 56t24 62t20 59t15 48q-13 -23 -31 -54.5t-40.5 -60t-49 -49t-55.5 -20.5q-8 0 -17.5 1.5t-18.5 6.5
t-16.5 14t-10.5 23q-3 16 -1 31t7.5 29.5t13 28t14.5 27.5q-5 0 -9.5 3t0.5 13q5 8 9 17t9 18l30 58t26 52q6 12 15.5 16.5t23.5 4.5h61q-7 -6 -17.5 -13t-19.5 -23q-26 -44 -47.5 -88t-42.5 -89q-18 -39 -20 -65t7.5 -36.5t28.5 -3t43 35.5q21 24 43 57t42.5 68.5t39 70.5
t32.5 65q6 12 15.5 16.5t23.5 4.5h54q-14 -10 -24.5 -22.5t-19.5 -28.5t-17 -36.5t-17 -45.5q-19 -51 -38.5 -110t-41.5 -119q16 5 35.5 13t38.5 20t37 28.5t33 37.5q23 34 39 65t24 45q7 13 14 9.5t0 -18.5zM698 -72q-24 -6 -51.5 -13t-55.5 -15t-54 -16.5t-47 -17.5
q-38 -17 -63.5 -44t-34 -53.5t1.5 -45.5t42 -19q33 0 68 20.5t67.5 49.5t60 61t44.5 56q5 8 10.5 17.5t11.5 19.5z" />
    <glyph glyph-name=".notdef" horiz-adv-x="1000" 
 />
    <glyph glyph-name=".null" horiz-adv-x="0" 
 />
    <glyph glyph-name="nonmarkingreturn" horiz-adv-x="259" 
 />
    <glyph glyph-name="uni0000" horiz-adv-x="0" 
 />
    <glyph glyph-name="uni0000" horiz-adv-x="0" 
 />
    <glyph glyph-name="space" unicode=" " horiz-adv-x="259" 
 />
    <glyph glyph-name="exclam" unicode="!" horiz-adv-x="350" 
d="M540 611q-2 -6 -16 -28t-36 -55.5t-49.5 -74.5t-56.5 -84t-57.5 -85.5t-53 -78t-42 -62t-24.5 -36.5l-10 1l1 7l254 484q5 10 15 14.5t22 5.5t24 0.5t22 -0.5l5 -2zM202 27q-3 -17 -17 -29t-31 -12t-27 12t-7 29q2 17 16.5 29t31.5 12t27 -12t7 -29z" />
    <glyph glyph-name="quotedbl" unicode="&#x22;" horiz-adv-x="318" 
d="M331 637q2 -11 -2 -36t-10 -52.5t-12.5 -53t-9.5 -36.5h-10l-8 166q-2 14 6.5 23t22.5 9q20 0 23 -20zM222 638q2 -11 -1.5 -36t-9.5 -53t-12.5 -53t-9.5 -37h-10l-9 165q-1 13 8 23t22 10q19 0 22 -19z" />
    <glyph glyph-name="numbersign" unicode="#" horiz-adv-x="746" 
d="M691 417h-149l-83 -141h161l-29 -47h-161l-139 -229h-53l137 229h-138l-139 -229h-53l138 229h-158l30 47h156l84 141h-170l29 48h170l138 231h55l-140 -231h140l139 231h54l-139 -231h148zM349 417l-85 -141h140l84 141h-139z" />
    <glyph glyph-name="dollar" unicode="$" horiz-adv-x="449" 
d="M475 487q0 -26 -15.5 -46t-39.5 -20q-19 0 -32 13.5t-12 32.5q1 18 13 30t32 12q8 0 18.5 -5.5t12.5 -11.5q-5 30 -23.5 42.5t-39.5 17.5l-117 -212q24 -32 45.5 -69t21.5 -79q0 -48 -24.5 -84.5t-62 -60.5t-83 -36.5t-86.5 -12.5l-28 -53l-34 -6l35 61q-14 3 -32 7
t-35 10t-32 15t-24 21q1 5 8 13t10 11h9q22 -23 50 -36.5t58 -19.5l149 272q-22 27 -41 59t-19 68q0 40 21 69.5t53.5 48.5t70.5 28t72 9l28 52l32 6l-33 -61q41 -7 57.5 -32t16.5 -53zM364 556q-4 0 -7 0.5t-7 0.5q-23 0 -46 -8t-41.5 -22.5t-30.5 -35t-12 -45.5
q0 -26 11.5 -44.5t24.5 -39.5zM276 174q0 27 -12.5 52t-28.5 46l-141 -254q32 0 64.5 11t58.5 31.5t42.5 49.5t16.5 64z" />
    <glyph glyph-name="percent" unicode="%" horiz-adv-x="621" 
d="M5 -84h-37l-1 5q126 133 240.5 271.5t229.5 280.5q-29 -25 -59.5 -45t-59 -30t-54 -7t-45.5 24q-20 -16 -42 -25.5t-45 -8.5q-29 1 -45.5 17t-22 42t-0.5 58.5t19 65.5q15 34 37 64.5t47.5 54t53 36.5t52.5 13q37 -1 54 -19t19 -46t-8 -62t-26.5 -67t-36.5 -61.5
t-37 -44.5q10 -19 28.5 -22.5t42 4t50.5 24t54 38.5q17 13 45.5 43t57 61.5t51 56.5t27.5 28q1 1 5.5 2t9 1t8 -1.5t3.5 -5.5zM490 321q44 -1 60.5 -27.5t12.5 -66t-25 -84.5t-51 -83.5t-66.5 -64t-71.5 -24.5q-29 1 -45.5 17t-22 41.5t-0.5 58t19 65.5q15 34 37 65t47.5 54
t53 36.5t52.5 12.5zM294 698q-16 4 -35 -4.5t-38 -26.5t-37 -44t-32 -56q-14 -31 -23 -58.5t-11 -49.5t3 -36t19 -18q15 -5 32.5 2t35.5 22q-17 26 -15 49q0 17 8 30t26 13q13 0 21.5 -8.5t8.5 -21.5q0 -7 -2 -11q7 10 17.5 29t20 41.5t17 47t9.5 45t-3.5 35.5t-21.5 20z
M522 173q7 19 11 38t4 34.5t-6 26.5t-19 15q-17 5 -36 -3.5t-38 -27t-37 -44t-32 -55.5q-14 -31 -23 -59t-11 -50t3 -36t19 -18q17 -5 34 2t32 20t27.5 28t21.5 26q11 14 25 42.5t25 60.5z" />
    <glyph glyph-name="ampersand" unicode="&#x26;" horiz-adv-x="606" 
d="M731 420q23 -34 11 -65t-45 -54.5t-81 -37t-98 -12.5q27 -22 34 -53t-3 -64t-35.5 -65t-63.5 -57.5t-86 -41t-103 -15.5q-90 0 -146.5 30t-82 75.5t-20.5 100t39.5 103.5t97 85t152.5 46q-14 19 -21 43t-7 47q1 53 31.5 94t75.5 69t97.5 42t99.5 13q21 0 42 -4.5
t38.5 -14.5t28.5 -27t11 -42q0 -29 -17.5 -51.5t-43.5 -22.5q-20 0 -34 14t-13 34t14.5 33t33.5 12q9 0 20 -5.5t13 -12.5q3 17 -2 28.5t-15 18t-23.5 10t-26.5 3.5q-40 1 -92 -18.5t-103 -63.5q-17 -15 -35 -38.5t-30.5 -50.5t-16 -55t8.5 -52q16 0 38 2t45 0q22 -2 34 -12
t12.5 -21.5t-11.5 -20.5t-38 -9q-33 0 -59 14t-42 30q-59 -9 -102.5 -43t-68.5 -80t-31.5 -97t7 -94t49 -71t93.5 -28q53 0 97 19.5t75.5 48.5t49.5 63t20 64q1 28 -18.5 46t-49.5 27t-66.5 8.5t-68.5 -10t-55.5 -29t-28.5 -47.5q-4 -23 12 -47.5t54 -44.5q4 -2 6.5 -6.5
t2.5 -8.5t-2.5 -6t-6.5 0q-66 35 -90 76.5t-11.5 77.5t59 60t122.5 24h177q12 0 33.5 4t46 12t48.5 19t40 25.5t21 31.5t-8 37q-5 8 0.5 12t10.5 -4zM417 383q-20 2 -38 2t-36 -1q24 -30 72 -30q18 0 26 4t7 9.5t-9.5 10t-21.5 5.5z" />
    <glyph glyph-name="quotesingle" unicode="'" horiz-adv-x="158" 
d="M188 504q0 -24 -9.5 -43.5t-24.5 -33.5t-32.5 -24t-33.5 -15q-10 -3 -11 2.5t8 8.5q28 10 50 31.5t27 55.5q-15 -10 -29 -10q-17 0 -27 12.5t-7 29.5t17 29t31 12q22 0 31.5 -17.5t9.5 -37.5z" />
    <glyph glyph-name="parenleft" unicode="(" horiz-adv-x="350" 
d="M496 755q12 3 18 1t5.5 -5.5t-6.5 -8.5t-17 -8q-57 -15 -105.5 -42.5t-88.5 -62.5t-71.5 -74.5t-55.5 -79t-40.5 -76.5t-25.5 -66q-23 -69 -26.5 -138t12 -123t51 -85t91.5 -24q19 2 18.5 -8.5t-25.5 -13.5q-53 -6 -97.5 20.5t-72.5 78.5t-34.5 125t15.5 159
q15 55 55.5 121t100.5 127.5t136.5 111t162.5 71.5z" />
    <glyph glyph-name="parenright" unicode=")" horiz-adv-x="518" 
d="M492 380q-14 -55 -54.5 -121t-101 -127.5t-137 -111t-162.5 -71.5q-12 -3 -18 -1t-5.5 5.5t7 8.5t17.5 8q57 15 105 42.5t88 62.5t71.5 74.5t55.5 79t40.5 76.5t25.5 66q22 69 26 138t-11.5 122.5t-51 84.5t-90.5 25q-20 -2 -19.5 8.5t25.5 13.5q53 6 97.5 -20.5
t72.5 -78.5t34.5 -125t-15.5 -159z" />
    <glyph glyph-name="asterisk" unicode="*" horiz-adv-x="431" 
d="M392 389q10 0 13.5 -5t0.5 -11t-11.5 -11t-21.5 -5l-132 -5l26 -52t27 -53q3 -6 0 -15t-9.5 -15t-14.5 -6t-14 12q-8 18 -20.5 46.5t-29.5 65.5l-109 -119q-5 -5 -14 -4.5t-15.5 5.5t-8 13t8.5 18l100 101l-132 -5q-7 0 -12.5 7t-7 15.5t2.5 15.5t18 7h145
q-13 29 -27 60.5t-30 64.5q-5 10 -2.5 15.5t8.5 6.5t14 -4t14 -17q17 -32 31 -60.5t28 -54.5l116 117q7 8 13 7t8 -7t-1 -16t-13 -20l-85 -92h136v0z" />
    <glyph glyph-name="plus" unicode="+" horiz-adv-x="458" 
d="M461 238q8 0 12.5 -4.5t4.5 -9.5t-5 -9t-15 -4q-29 0 -65 -2t-68 -4q-6 -37 -13.5 -75.5t-9.5 -61.5q-1 -5 -9.5 -10t-18 -6.5t-16.5 2t-4 14.5q2 9 5.5 23.5t8.5 32.5t10 38.5t10 40.5q-18 -2 -38 -3t-39.5 -2t-36 -2t-27.5 -2q-6 -1 -9 6.5t-2 16.5t6.5 17t16.5 8
q8 0 23.5 -0.5t34.5 -1t40 -1t41 -0.5q3 14 7.5 32.5t9 38.5t9.5 39.5t9 34.5q2 9 7.5 14.5t11 6.5t8.5 -3t1 -14q-3 -14 -7 -33t-8 -40t-8 -41l-7 -35q29 -1 63.5 -0.5t66.5 -0.5z" />
    <glyph glyph-name="comma" unicode="," horiz-adv-x="153" 
d="M114 20q0 -25 -10.5 -45t-26 -35.5t-33.5 -26t-34 -15.5q-9 -4 -10.5 2t8.5 9q28 9 50 31t26 56q-13 -10 -28 -10q-17 0 -27 12t-7 29q2 17 16.5 29t31.5 12q22 0 33 -14t11 -34z" />
    <glyph glyph-name="hyphen" unicode="-" horiz-adv-x="406" 
d="M388 211q-69 0 -124 -6t-100 -11q-5 -1 -10 6.5t-6.5 16.5t2 17t14.5 8q31 0 82 -1t138 -3q9 0 14.5 -4.5t6.5 -9.5t-3 -9t-14 -4z" />
    <glyph glyph-name="period" unicode="." horiz-adv-x="208" 
d="M185 27q-3 -17 -17 -29t-31 -12t-27 12t-7 29q2 17 16.5 29t31.5 12t27 -12t7 -29z" />
    <glyph glyph-name="slash" unicode="/" horiz-adv-x="548" 
d="M698 800q8 10 20 13t22 1t13.5 -9t-5.5 -17q-31 -36 -73 -87t-90 -110.5t-100.5 -125t-105 -129.5t-103 -124t-94.5 -109.5t-79.5 -85t-58.5 -50.5q-20 -13 -26 -5t9 21q25 22 65 67t91.5 106.5t113 137.5t127.5 159.5t135.5 171.5t138.5 175z" />
    <glyph glyph-name="zero" unicode="0" horiz-adv-x="502" 
d="M505 468q0 -39 -13 -90t-36 -104.5t-55 -104.5t-70.5 -91t-81.5 -64.5t-88 -24.5q-28 0 -48.5 10.5t-34 28.5t-20 41.5t-6.5 49.5q0 38 15 87t41 100t61 100t75 87.5t83 62t85 23.5q26 0 43.5 -8.5t28.5 -23.5t16 -35.5t5 -43.5zM467 487q0 28 -11 50.5t-43 22.5
q-33 0 -68 -27.5t-68.5 -71t-63.5 -97t-52.5 -106.5t-35.5 -99.5t-13 -74.5q0 -31 13 -53t48 -22q34 0 69 27t67.5 70t61.5 97t50 107t33.5 100t12.5 77z" />
    <glyph glyph-name="one" unicode="1" horiz-adv-x="378" 
d="M421 553l-299 -548q-8 -5 -25.5 -5.5t-26.5 -1.5q-2 0 -4.5 1t-4.5 1l-1 6q69 121 135.5 241t134.5 241q-38 -35 -78 -65.5t-85 -57.5h-4l-4 8l2 6q51 38 95.5 73.5t87.5 80.5q8 9 20 20t25 13l31 3q2 1 6 -1v-5z" />
    <glyph glyph-name="two" unicode="2" horiz-adv-x="488" 
d="M503 493q0 -27 -21.5 -62t-55.5 -73.5t-75.5 -77.5t-82 -73.5t-74.5 -62t-53 -43.5l29 -14.5t40 -19t40 -16.5t28 -7q21 0 39.5 11t33 24t25 24.5t15.5 13.5l7 -6v-4q-12 -15 -30.5 -35t-40.5 -39t-44.5 -32t-42.5 -13q-11 0 -33.5 8t-46.5 18t-45.5 19.5t-30.5 13.5
l-70 -55l-13 8q1 3 15.5 19.5t32 36t33 35.5t17.5 17q5 1 11 1t11 -2q20 18 51.5 46.5t66 63t69.5 72.5t62.5 75.5t45 72.5t17.5 64q0 23 -13 33.5t-35 10.5q-29 0 -54.5 -15t-47 -38t-38 -50.5t-25.5 -51.5l-4 -4h-12l-2 6q12 33 32 65.5t47 59t60 43t71 16.5t64.5 -21
t26.5 -62z" />
    <glyph glyph-name="three" unicode="3" horiz-adv-x="458" 
d="M486 516q0 -38 -23.5 -68t-58 -53.5t-73 -40.5t-67.5 -27q22 0 46 -4.5t43.5 -15t32.5 -28t13 -44.5q0 -46 -30 -90.5t-75 -79t-96.5 -55.5t-94.5 -21q-23 0 -48 5t-45 19v5l7 6l5 2q14 -7 34 -11t36 -4q39 0 81 21.5t77 55t58 74.5t23 81q0 31 -20.5 46.5t-49.5 15.5
q-17 0 -35 -4.5t-35 -9.5l-7 3l-1 9l4 5q27 11 66.5 30t76 45.5t62 58.5t25.5 68q0 19 -10.5 27.5t-28.5 8.5q-20 0 -39.5 -9t-37.5 -22t-33.5 -29t-27.5 -29h-5l-7 6v5q17 21 37 40.5t43 35t48.5 25t53.5 9.5q30 0 53 -14t23 -48z" />
    <glyph glyph-name="four" unicode="4" horiz-adv-x="464" 
d="M485 562q1 -8 -24 -35.5t-63.5 -65t-84 -79.5t-86.5 -79t-71.5 -64t-38.5 -34l217 4l65 126q7 14 25 16t32 3l6 -3l1 -6q0 -2 -9.5 -21.5t-21.5 -42.5t-22.5 -44t-13.5 -25h24l6 -4l-5 -11l-7 -5l-29 -1q-5 -9 -18.5 -37t-29 -59t-29 -57t-17.5 -30q-2 -2 -11 -4.5
t-20 -5t-20.5 -4t-12.5 -1.5l-5 1v4q0 2 7 15.5t17 33.5t22.5 43t23.5 43.5t19.5 35.5t10.5 19l-243 -6v8q1 2 1.5 3.5t2.5 3.5q33 42 76.5 83.5t79.5 82.5q35 40 69 80t66 83q12 16 22.5 24t21.5 11.5t25 5t34 5.5l7 -3l1 -7v0z" />
    <glyph glyph-name="five" unicode="5" horiz-adv-x="445" 
d="M507 576q-14 -36 -42.5 -54t-63.5 -24.5t-73 -5t-69 3.5l-110 -191q28 19 64 32t70 13q42 0 71 -21t29 -66q0 -34 -15 -68t-40.5 -65t-59 -57t-69.5 -45t-72 -30t-68 -11q-14 0 -36.5 2t-34.5 10v7l6 7l4 2q14 -5 30.5 -7t31.5 -2q42 0 87 24t82.5 61t62 82t24.5 87
q0 31 -17 47.5t-48 16.5q-18 0 -35 -6t-33.5 -14.5t-32 -18t-31.5 -17.5l-6 2v6q2 7 14 29.5t28.5 52.5t36 63t36.5 62t29.5 48.5t15.5 22.5q23 9 53.5 7.5t62 -3.5t61.5 0.5t53 19.5l4 -2v0z" />
    <glyph glyph-name="six" unicode="6" horiz-adv-x="421" 
d="M433 577q-2 -2 -2.5 -4t-2.5 -4q-14 -15 -33 -29.5t-35 -28.5q-71 -65 -129 -141q-21 -27 -44.5 -63.5t-43.5 -76.5t-33.5 -80.5t-13.5 -75.5q0 -26 14 -44t41 -18q35 0 69 28t60.5 67.5t42.5 83t16 75.5q0 17 -7.5 28.5t-26.5 11.5q-25 0 -48 -17t-42 -42t-33 -52
t-22 -48l-4 -5l-10 -1l-2 6q7 29 24.5 62.5t42 62t55 47t63.5 18.5q35 0 53 -23t18 -56q0 -42 -23.5 -89.5t-60.5 -87.5t-82.5 -66t-88.5 -26q-50 0 -79 28t-29 79q0 45 18.5 92.5t49.5 94t71 91t82.5 84t84.5 72.5t77 57l6 1l7 -11v0z" />
    <glyph glyph-name="seven" unicode="7" horiz-adv-x="488" 
d="M576 555q-47 -54 -96.5 -105t-99.5 -103q-60 -63 -115 -128t-109 -133q-3 -3 -13 -16t-21 -27t-21 -25.5t-12 -12.5q-13 -6 -35 -7t-37 -3l-6 3l-1 4q2 7 22 30.5t52 56.5t72.5 74t83.5 83t85.5 83t78 75t61 58t34.5 33q-40 1 -79.5 2.5t-79.5 1.5q-33 0 -51.5 -11
t-30 -24.5t-19 -24.5t-18.5 -12l-3 2v6q20 40 36 65t36.5 39.5t48.5 20t73 5.5q35 0 71 -1t71 -6q3 2 9.5 6t10.5 4l4 -6z" />
    <glyph glyph-name="eight" unicode="8" horiz-adv-x="420" 
d="M461 500q0 -31 -15.5 -61.5t-38.5 -58.5t-49 -52.5t-48 -43.5q14 -30 16.5 -54.5t2.5 -57.5q0 -38 -18 -71t-46.5 -58t-64.5 -39.5t-72 -14.5q-22 0 -42.5 6t-36.5 18.5t-25.5 30.5t-9.5 42q0 35 22 71t53.5 69t67 60.5t61.5 47.5q-17 39 -17 80q0 33 14 62.5t37.5 52
t54 35.5t62.5 13q38 0 65 -18t27 -59zM425 501q0 26 -14.5 41t-40.5 15q-21 0 -40 -9.5t-33.5 -25t-22.5 -35t-8 -40.5q0 -17 3.5 -35.5t9 -37t12 -36.5t12.5 -33q20 16 41.5 38.5t39.5 48t29.5 53.5t11.5 56zM265 157q0 37 -14 80t-28 78q-26 -20 -55 -45t-53 -54.5
t-39.5 -63t-15.5 -69.5q0 -33 17.5 -53t52.5 -20q28 0 52.5 13t43 33.5t29 47t10.5 53.5z" />
    <glyph glyph-name="nine" unicode="9" horiz-adv-x="435" 
d="M438 456q0 -70 -37.5 -140t-93.5 -133.5t-120 -116.5t-118 -88h-6l-5 9l4 6q112 79 191.5 182.5t114.5 239.5q5 17 7.5 35.5t2.5 36.5q0 28 -11.5 48.5t-43.5 20.5q-36 0 -70.5 -24t-61.5 -60t-43.5 -76.5t-16.5 -73.5q0 -24 12 -40t38 -16t47.5 14t38.5 35t29.5 45
t21.5 45l4 3l11 -1l1 -5q-11 -27 -29 -60.5t-43 -63.5t-54.5 -50t-62.5 -20q-35 0 -53 22.5t-18 55.5q0 42 25.5 93t64.5 95t86 73.5t90 29.5q26 0 44.5 -10.5t30.5 -27.5t17.5 -38.5t5.5 -44.5z" />
    <glyph glyph-name="colon" unicode=":" horiz-adv-x="256" 
d="M254 251q-3 -17 -17 -29t-31 -12t-27 12t-7 29q2 17 16.5 29t31.5 12t27 -12t7 -29zM144 27q-2 -17 -16.5 -29t-31.5 -12t-27 12t-7 29t17 29t31 12t27 -12t7 -29z" />
    <glyph glyph-name="semicolon" unicode=";" horiz-adv-x="255" 
d="M254 251q-3 -17 -17 -29t-31 -12t-27 12t-7 29q2 17 16.5 29t31.5 12t27 -12t7 -29zM151 14q0 -25 -9.5 -44t-24.5 -33.5t-32.5 -24t-33.5 -14.5q-10 -4 -11 2t8 9q28 9 50 31t27 56q-15 -10 -29 -10q-17 0 -27 12t-7 29t17 29t31 12q22 0 31.5 -17t9.5 -37z" />
    <glyph glyph-name="less" unicode="&#x3c;" horiz-adv-x="329" 
d="M333 297q-7 -11 -29 -29.5t-48 -37.5t-50.5 -35.5t-34.5 -24.5l-1 -136l-5 -10l-7 -3q-5 0 -8 3q-14 35 -21.5 76t-16.5 79q5 3 22.5 14t40 25t48 30t47.5 29t37 21.5t18 8.5l7 -3l1 -7v0z" />
    <glyph glyph-name="equal" unicode="=" horiz-adv-x="458" 
d="M409 322q0 -7 -6 -9t-11 -2q-38 0 -75.5 -2t-75.5 -6q-20 -2 -38.5 -5.5t-38.5 -3.5q-9 0 -13 11t-4 18q0 8 4.5 13.5t12.5 5.5h147h21t33 -2t30.5 -6t13.5 -12zM409 222q0 -7 -6 -9t-11 -2q-38 0 -75.5 -2t-75.5 -6q-20 -2 -38.5 -5.5t-38.5 -3.5q-9 0 -13 11t-4 18
q0 8 4.5 13.5t12.5 5.5h147h21t33 -2t30.5 -6t13.5 -12z" />
    <glyph glyph-name="greater" unicode="&#x3e;" horiz-adv-x="329" 
d="M43 22l-7 -1q-4 0 -8 2l-1 4q0 5 11.5 16.5t29.5 26t38.5 30t38.5 28t30.5 21t13.5 9.5l1 136q2 2 2.5 4.5t2.5 4.5l8 4l9 -4q14 -35 21 -75.5t15 -77.5z" />
    <glyph glyph-name="question" unicode="?" horiz-adv-x="382" 
d="M424 444q-32 -37 -64 -67t-61 -61.5t-54.5 -68t-44.5 -87.5q-4 -9 -12.5 -6t-6.5 13q9 37 31 76t50.5 77.5t60 76t59.5 72.5q33 42 35 72t-16 46t-51 17t-69 -17q-23 -11 -41 -31t-15 -38q3 12 13 20.5t22 15.5q22 12 37.5 7t22 -18t2 -31t-21.5 -31q-20 -15 -40 -16
t-34 9.5t-18.5 30.5t6.5 46q10 22 31.5 38t41.5 28q35 20 69.5 27t62.5 2.5t47 -20.5t22.5 -42t-11 -61t-53.5 -79zM202 27q-3 -17 -17 -29t-31 -12t-27 12t-7 29q2 17 16.5 29t31.5 12t27 -12t7 -29z" />
    <glyph glyph-name="at" unicode="@" horiz-adv-x="956" 
d="M942 442q4 -51 -8.5 -99.5t-36.5 -93t-57.5 -83t-70.5 -68.5q-14 -11 -34 -20.5t-42.5 -17t-45 -11.5t-40.5 -4q-16 -1 -35.5 4.5t-34 22.5t-19 47.5t9.5 80.5q-15 -25 -39 -58t-52 -60q-36 -35 -67 -41.5t-52.5 9t-31 49.5t-3 80t31 100.5t72.5 111.5q28 34 67 58.5
t80 34t79.5 2.5t65.5 -37q13 -14 7.5 -26.5t-20.5 -9.5q-11 35 -42 43t-66 -12q-21 -12 -43.5 -31t-44.5 -42.5t-42 -50.5t-37 -55q-4 -7 -11.5 -21t-16 -32t-15 -37.5t-9.5 -37.5q-5 -33 4.5 -48t26.5 -15t40 14.5t45 40.5q34 40 61 85t51 91q21 41 38.5 62.5t47.5 19.5
q12 -1 25.5 -4.5t27.5 -1.5q-10 -10 -27.5 -37t-35.5 -61.5t-33 -71.5t-21 -65q-6 -32 0 -49.5t21 -24.5t35 -5t42 9.5t42 18.5t35 23q33 27 60 64t45.5 79.5t27 88t5.5 90.5q-5 60 -30.5 101.5t-65 67.5t-89.5 37.5t-102 11.5q-68 0 -132 -20t-120.5 -55.5t-102.5 -85
t-78 -108t-47.5 -124.5t-9.5 -134q5 -67 35.5 -115.5t76.5 -80t103.5 -46.5t117.5 -15q85 0 163.5 27t145.5 72q4 4 9 3.5t7 -4t1.5 -8t-6.5 -7.5q-72 -48 -154 -76.5t-173 -28.5q-69 0 -134 16.5t-116.5 51.5t-85 90t-39.5 133q-6 72 12.5 140t55 127.5t88.5 109t113.5 85
t129.5 55t138 19.5q57 0 113.5 -13t103 -41.5t77 -73.5t35.5 -109z" />
    <glyph glyph-name="A" unicode="A" horiz-adv-x="712" 
d="M860 646q0 -27 -16 -59t-52.5 -60.5t-96 -50t-146.5 -29.5q-85 -8 -158 -4t-144 27q-14 -19 -33 -48.5t-39.5 -63.5t-40 -70.5t-32.5 -69.5q-38 -96 -31 -152.5t44.5 -74.5t98 2.5t129.5 77.5q39 33 77 72.5t72.5 81t63.5 83t49 78.5q23 43 43 53t30.5 0t8 -33.5
t-24.5 -47.5q-21 -24 -41.5 -55t-38 -66t-31 -72.5t-20.5 -74.5q-12 -63 -1.5 -92t33.5 -31t54 19t61 58q23 30 46.5 67t40.5 75q7 14 16 14t1 -18q-7 -15 -17 -35t-22.5 -41.5t-26 -43.5t-27.5 -40q-13 -17 -29.5 -32.5t-35.5 -27.5t-40 -19t-42 -7q-28 0 -45 15t-25 38.5
t-9 52.5t4 57.5t14 53t20 39.5q-20 -24 -49 -54.5t-62.5 -61t-71.5 -57.5t-76.5 -44t-77.5 -21t-74 11q-36 15 -54 54t-17.5 93t19 119t56.5 133q19 34 40.5 66t47.5 61q-30 14 -55.5 31t-44.5 38q-11 12 -16.5 29t-6.5 33.5t2.5 30.5t11.5 20q9 12 17.5 5.5t0.5 -24.5
q-10 -23 -3 -41t24 -38q32 -37 88 -63q47 52 102 99.5t116.5 83.5t129 57t140.5 21q81 0 126.5 -35.5t45.5 -91.5zM819 658q0 45 -36.5 67t-91.5 22q-70 0 -130 -21.5t-112 -57t-98 -82t-88 -96.5q58 -19 124.5 -23t161.5 4q62 5 112 21t85 40.5t54 56.5t19 69z" />
    <glyph glyph-name="B" unicode="B" horiz-adv-x="1041" 
d="M1066 488q-16 -27 -42.5 -46.5t-58 -32t-64 -18.5t-60.5 -7q25 -8 54.5 -20.5t56.5 -30t48.5 -40.5t29.5 -51q13 -46 3 -85.5t-37 -72.5t-67 -57.5t-86.5 -40t-95.5 -21.5t-94 0q-95 12 -157.5 30t-108.5 39q-58 -43 -122 -61t-133 -9q-51 6 -80 27.5t-37.5 48.5t1.5 54
t37 45.5t70 22.5t99 -16q28 -11 62.5 -31t82.5 -43q50 48 91 119t83 151t90 162.5t112 153.5l57 65q-84 14 -182.5 12.5t-200.5 -23.5q-69 -15 -122.5 -43t-90.5 -62.5t-56.5 -72t-21 -71t16 -59.5t54.5 -37q44 -14 78.5 -2.5t58 32.5t35 44.5t9.5 34.5q0 2 3.5 4t7 2t7 -3
t3.5 -11v-1q-6 -37 -27.5 -65.5t-51.5 -45.5t-65 -21t-68 8q-51 18 -77.5 52t-28.5 75t19 86t65 85t110.5 70t154.5 43q105 15 205.5 12.5t188.5 -21.5q13 11 27.5 20t27.5 14q24 10 26 3t-16 -18q-10 -7 -18.5 -15t-10.5 -12q64 -17 114 -41.5t79 -56t33.5 -70t-20.5 -81.5
zM942 681q-20 10 -44 17.5t-50 13.5q-50 -69 -100.5 -155t-100.5 -172t-100 -164.5t-100 -132.5q-10 -10 -19 -18.5t-19 -17.5q47 -20 106 -36t137 -24q65 -6 120.5 10t96.5 45t65.5 67.5t27.5 77.5t-17.5 74.5t-68.5 58.5q-29 14 -60.5 24t-58 18.5t-45 15.5t-22.5 15
q0 13 11.5 16.5t31.5 3t46.5 -3t55.5 -2.5q31 0 64 14.5t60 37t45 51.5t19.5 58.5t-17 57.5t-64.5 50zM345 53q-35 17 -69 34t-79 33q-38 13 -65 9.5t-42.5 -17.5t-19 -33.5t5 -38.5t28.5 -32.5t53 -15.5q55 -2 101.5 14.5t86.5 46.5z" />
    <glyph glyph-name="C" unicode="C" horiz-adv-x="710" 
d="M780 183q-16 -33 -31.5 -61t-33.5 -53.5t-41 -48.5t-55 -45q-38 -26 -83.5 -45t-95 -27t-103 -2t-107.5 29q-63 27 -100.5 71.5t-54.5 100t-15.5 117.5t17 123t42.5 117t62 100q-6 23 -10 51.5t-5.5 58.5t1 60.5t10.5 58.5q1 6 5.5 10t8 4t6 -4.5t0.5 -14.5
q-8 -48 -4 -98.5t12 -91.5q81 105 189 151t227 32q73 -8 122 -35t75 -64.5t31 -82.5t-9.5 -89.5t-47 -84.5t-81.5 -68t-113 -40t-141 -1q-78 11 -143.5 50t-104.5 120q-9 -12 -26 -50.5t-32 -90.5t-23 -112.5t2 -115.5t42 -99t97 -64q81 -24 170.5 -13.5t164.5 55.5
q33 19 56.5 41t42.5 47t34 53.5t31 60.5q6 13 13 9t-1 -19zM630 738q-56 8 -111.5 -5t-107.5 -43t-98.5 -75t-83.5 -102q34 -86 97.5 -127.5t145.5 -50.5q90 -10 157 13t109 64.5t58 93.5t3.5 100t-54.5 84.5t-115 47.5z" />
    </font>
</defs>
</svg>
